<svg xmlns="http://www.w3.org/2000/svg" xmlns:xlink="http://www.w3.org/1999/xlink" version="1.1" width="1080" height="1080" viewBox="0 0 1080 1080" xml:space="preserve">
<desc fill="#000000">Created with Fabric.js 5.2.4</desc>
<defs fill="#000000">
</defs>
<g transform="matrix(1 0 0 1 540 540)" id="e09fb269-de8b-433e-a43c-cee75133e36c">
<rect style="stroke: none; stroke-width: 1; stroke-dasharray: none; stroke-linecap: butt; stroke-dashoffset: 0; stroke-linejoin: miter; stroke-miterlimit: 4; fill: rgb(255,255,255); fill-rule: nonzero; opacity: 1; visibility: hidden;" vector-effect="non-scaling-stroke" x="-540" y="-540" rx="0" ry="0" width="1080" height="1080"/>
</g>
<g transform="matrix(1 0 0 1 540 540)" id="5dfbd7da-dea5-40d9-acf7-3248bd05193f">
</g>
<g transform="matrix(1.8 0 0 1.8 540 540)">
<g style="" vector-effect="non-scaling-stroke">
		<g transform="matrix(1.33 0 0 -1.33 -51.4 50.46)" id="path20" clip-path="url(#CLIPPATH_3)">
<clipPath id="CLIPPATH_3" fill="#000000">
	<path transform="matrix(1 0 0 1 36.5 14.14) translate(-250, -250)" id="path14" d="M 0 500 L 500 500 L 500 0 L 0 0 Z" stroke-linecap="round" fill="#000000"/>
</clipPath>
<path style="stroke: none; stroke-width: 1; stroke-dasharray: none; stroke-linecap: butt; stroke-dashoffset: 0; stroke-linejoin: miter; stroke-miterlimit: 4; fill:#d3ffcb; fill-rule: nonzero; opacity: 1;" vector-effect="non-scaling-stroke" transform=" translate(123.16, 0)" d="M 0 0 C 0 -68.021 -55.143 -123.163 -123.164 -123.163 C -191.185 -123.163 -246.327 -68.02099999999999 -246.327 0 C -246.327 68.021 -191.185 123.164 -123.164 123.164 C -55.143 123.164 0 68.021 0 0" stroke-linecap="round"/>
</g>
		<g transform="matrix(1.33 0 0 -1.33 -51.4 50.46)" id="path24" clip-path="url(#CLIPPATH_4)">
<clipPath id="CLIPPATH_4" fill="#000000">
	<path transform="matrix(1 0 0 1 36.5 14.14) translate(-250, -250)" id="path14" d="M 0 500 L 500 500 L 500 0 L 0 0 Z" stroke-linecap="round" fill="#000000"/>
</clipPath>
<path style="stroke: none; stroke-width: 1; stroke-dasharray: none; stroke-linecap: butt; stroke-dashoffset: 0; stroke-linejoin: miter; stroke-miterlimit: 4; fill:#d3ffcb; fill-rule: nonzero; opacity: 1;" vector-effect="non-scaling-stroke" transform=" translate(123.16, 0)" d="M 0 0 C 0 -68.021 -55.143 -123.163 -123.164 -123.163 C -191.185 -123.163 -246.327 -68.02099999999999 -246.327 0 C -246.327 68.021 -191.185 123.164 -123.164 123.164 C -55.143 123.164 0 68.021 0 0" stroke-linecap="round"/>
</g>
		<g transform="matrix(1.33 0 0 -1.33 205.6 -90.09)" id="path26">
<path style="stroke: none; stroke-width: 1; stroke-dasharray: none; stroke-linecap: butt; stroke-dashoffset: 0; stroke-linejoin: miter; stroke-miterlimit: 4; fill:#d3ffcb; fill-rule: nonzero; opacity: 1;" vector-effect="non-scaling-stroke" transform=" translate(-406.24, -341.27)" d="M 451.532 269.529 L 360.953 269.529 L 360.953 413.02099999999996 L 451.532 413.02099999999996 z" stroke-linecap="round"/>
</g>
		<g transform="matrix(1.33 0 0 -1.33 205.6 -90.09)" id="path28">
<path style="stroke: none; stroke-width: 1; stroke-dasharray: none; stroke-linecap: butt; stroke-dashoffset: 0; stroke-linejoin: miter; stroke-miterlimit: 4; fill: rgb(255,255,255); fill-rule: nonzero; opacity: 1;" vector-effect="non-scaling-stroke" transform=" translate(-406.24, -341.27)" d="M 444.173 276.703 L 368.313 276.703 L 368.313 405.846 L 444.173 405.846 z" stroke-linecap="round"/>
</g>
		<g transform="matrix(1.33 0 0 -1.33 204.6 -186.77)" id="path30">
<path style="stroke: none; stroke-width: 1; stroke-dasharray: none; stroke-linecap: butt; stroke-dashoffset: 0; stroke-linejoin: miter; stroke-miterlimit: 4; fill:#a6ff98; fill-rule: nonzero; opacity: 1;" vector-effect="non-scaling-stroke" transform=" translate(-405.5, -413.78)" d="M 454.92 411.157 L 356.07000000000005 411.157 L 356.07000000000005 416.409 L 454.9200000000001 416.409 z" stroke-linecap="round"/>
</g>
		<g transform="matrix(1.33 0 0 -1.33 204.6 -175.9)" id="path32">
<path style="stroke: none; stroke-width: 1; stroke-dasharray: none; stroke-linecap: butt; stroke-dashoffset: 0; stroke-linejoin: miter; stroke-miterlimit: 4; fill:#a6ff98; fill-rule: nonzero; opacity: 1;" vector-effect="non-scaling-stroke" transform=" translate(-405.5, -405.63)" d="M 454.92 403.007 L 356.07000000000005 403.007 L 356.07000000000005 408.259 L 454.9200000000001 408.259 z" stroke-linecap="round"/>
</g>
		<g transform="matrix(1.33 0 0 -1.33 204.6 -165.04)" id="path34">
<path style="stroke: none; stroke-width: 1; stroke-dasharray: none; stroke-linecap: butt; stroke-dashoffset: 0; stroke-linejoin: miter; stroke-miterlimit: 4; fill:#a6ff98; fill-rule: nonzero; opacity: 1;" vector-effect="non-scaling-stroke" transform=" translate(-405.5, -397.48)" d="M 454.92 394.857 L 356.07000000000005 394.857 L 356.07000000000005 400.10900000000004 L 454.9200000000001 400.10900000000004 z" stroke-linecap="round"/>
</g>
		<g transform="matrix(1.33 0 0 -1.33 204.6 -154.17)" id="path36">
<path style="stroke: none; stroke-width: 1; stroke-dasharray: none; stroke-linecap: butt; stroke-dashoffset: 0; stroke-linejoin: miter; stroke-miterlimit: 4; fill:#a6ff98; fill-rule: nonzero; opacity: 1;" vector-effect="non-scaling-stroke" transform=" translate(-405.5, -389.33)" d="M 454.92 386.707 L 356.07000000000005 386.707 L 356.07000000000005 391.959 L 454.9200000000001 391.959 z" stroke-linecap="round"/>
</g>
		<g transform="matrix(1.33 0 0 -1.33 204.6 -143.3)" id="path38">
<path style="stroke: none; stroke-width: 1; stroke-dasharray: none; stroke-linecap: butt; stroke-dashoffset: 0; stroke-linejoin: miter; stroke-miterlimit: 4; fill:#a6ff98; fill-rule: nonzero; opacity: 1;" vector-effect="non-scaling-stroke" transform=" translate(-405.5, -381.18)" d="M 454.92 378.557 L 356.07000000000005 378.557 L 356.07000000000005 383.809 L 454.9200000000001 383.809 z" stroke-linecap="round"/>
</g>
		<g transform="matrix(1.33 0 0 -1.33 204.6 -132.44)" id="path40">
<path style="stroke: none; stroke-width: 1; stroke-dasharray: none; stroke-linecap: butt; stroke-dashoffset: 0; stroke-linejoin: miter; stroke-miterlimit: 4; fill:#a6ff98; fill-rule: nonzero; opacity: 1;" vector-effect="non-scaling-stroke" transform=" translate(-405.5, -373.03)" d="M 454.92 370.408 L 356.07000000000005 370.408 L 356.07000000000005 375.66 L 454.9200000000001 375.66 z" stroke-linecap="round"/>
</g>
		<g transform="matrix(1.33 0 0 -1.33 204.6 -121.57)" id="path42">
<path style="stroke: none; stroke-width: 1; stroke-dasharray: none; stroke-linecap: butt; stroke-dashoffset: 0; stroke-linejoin: miter; stroke-miterlimit: 4; fill:#a6ff98; fill-rule: nonzero; opacity: 1;" vector-effect="non-scaling-stroke" transform=" translate(-405.5, -364.88)" d="M 454.92 362.258 L 356.07000000000005 362.258 L 356.07000000000005 367.51 L 454.9200000000001 367.51 z" stroke-linecap="round"/>
</g>
		<g transform="matrix(1.33 0 0 -1.33 204.6 -110.7)" id="path44">
<path style="stroke: none; stroke-width: 1; stroke-dasharray: none; stroke-linecap: butt; stroke-dashoffset: 0; stroke-linejoin: miter; stroke-miterlimit: 4; fill:#a6ff98; fill-rule: nonzero; opacity: 1;" vector-effect="non-scaling-stroke" transform=" translate(-405.5, -356.73)" d="M 454.92 354.108 L 356.07000000000005 354.108 L 356.07000000000005 359.36 L 454.9200000000001 359.36 z" stroke-linecap="round"/>
</g>
		<g transform="matrix(1.33 0 0 -1.33 204.6 -99.84)" id="path46">
<path style="stroke: none; stroke-width: 1; stroke-dasharray: none; stroke-linecap: butt; stroke-dashoffset: 0; stroke-linejoin: miter; stroke-miterlimit: 4; fill:#a6ff98; fill-rule: nonzero; opacity: 1;" vector-effect="non-scaling-stroke" transform=" translate(-405.5, -348.58)" d="M 454.92 345.958 L 356.07000000000005 345.958 L 356.07000000000005 351.21000000000004 L 454.9200000000001 351.21000000000004 z" stroke-linecap="round"/>
</g>
		<g transform="matrix(1.33 0 0 -1.33 270.5 -126.83)" id="path50">
<path style="stroke:#a6ff98; stroke-width: 1; stroke-dasharray: none; stroke-linecap: butt; stroke-dashoffset: 0; stroke-linejoin: miter; stroke-miterlimit: 10; fill: none; fill-rule: nonzero; opacity: 1;" vector-effect="non-scaling-stroke" transform=" translate(0, 47.58)" d="M 0 0 L 0 -95.163" stroke-linecap="round"/>
</g>
		<g transform="matrix(1.33 0 0 -1.33 270.5 -58.8)" id="path52">
<path style="stroke: none; stroke-width: 1; stroke-dasharray: none; stroke-linecap: butt; stroke-dashoffset: 0; stroke-linejoin: miter; stroke-miterlimit: 4; fill:#a6ff98; fill-rule: nonzero; opacity: 1;" vector-effect="non-scaling-stroke" transform=" translate(-454.92, -317.81)" d="M 456.759 313.174 L 453.081 313.174 L 453.081 322.441 L 456.759 322.441 z" stroke-linecap="round"/>
</g>
		<g transform="matrix(1.33 0 0 -1.33 166.26 -25.13)" id="path54">
<path style="stroke: none; stroke-width: 1; stroke-dasharray: none; stroke-linecap: butt; stroke-dashoffset: 0; stroke-linejoin: miter; stroke-miterlimit: 4; fill:#d3ffcb; fill-rule: nonzero; opacity: 1;" vector-effect="non-scaling-stroke" transform=" translate(-376.74, -292.55)" d="M 381.161 276.663 L 372.318 276.663 L 372.318 308.439 L 381.161 308.439 z" stroke-linecap="round"/>
</g>
		<g transform="matrix(1.33 0 0 -1.33 208.12 -21.76)" id="path56">
<path style="stroke: none; stroke-width: 1; stroke-dasharray: none; stroke-linecap: butt; stroke-dashoffset: 0; stroke-linejoin: miter; stroke-miterlimit: 4; fill:#d3ffcb; fill-rule: nonzero; opacity: 1;" vector-effect="non-scaling-stroke" transform=" translate(-408.13, -290.03)" d="M 412.104 276.663 L 404.15999999999997 276.663 L 404.15999999999997 303.397 L 412.104 303.397 z" stroke-linecap="round"/>
</g>
		<g transform="matrix(1.33 0 0 -1.33 222.49 -18.2)" id="path58">
<path style="stroke: none; stroke-width: 1; stroke-dasharray: none; stroke-linecap: butt; stroke-dashoffset: 0; stroke-linejoin: miter; stroke-miterlimit: 4; fill:#d3ffcb; fill-rule: nonzero; opacity: 1;" vector-effect="non-scaling-stroke" transform=" translate(-418.91, -287.36)" d="M 422.881 276.663 L 414.93699999999995 276.663 L 414.93699999999995 298.051 L 422.881 298.051 z" stroke-linecap="round"/>
</g>
		<g transform="matrix(1.33 0 0 -1.33 186.74 -30.18)" id="path60">
<path style="stroke: none; stroke-width: 1; stroke-dasharray: none; stroke-linecap: butt; stroke-dashoffset: 0; stroke-linejoin: miter; stroke-miterlimit: 4; fill:#d3ffcb; fill-rule: nonzero; opacity: 1;" vector-effect="non-scaling-stroke" transform=" translate(-392.1, -296.34)" d="M 399.241 276.663 L 384.96 276.663 L 384.96 316.026 L 399.241 316.026 z" stroke-linecap="round"/>
</g>
		<g transform="matrix(1.33 0 0 -1.33 240.92 -30.18)" id="path62">
<path style="stroke: none; stroke-width: 1; stroke-dasharray: none; stroke-linecap: butt; stroke-dashoffset: 0; stroke-linejoin: miter; stroke-miterlimit: 4; fill:#d3ffcb; fill-rule: nonzero; opacity: 1;" vector-effect="non-scaling-stroke" transform=" translate(-432.73, -296.34)" d="M 439.871 276.663 L 425.59 276.663 L 425.59 316.026 L 439.871 316.026 z" stroke-linecap="round"/>
</g>
		<g transform="matrix(1.33 0 0 -1.33 -0.22 274.77)" id="path66">
<path style="stroke: none; stroke-width: 1; stroke-dasharray: none; stroke-linecap: butt; stroke-dashoffset: 0; stroke-linejoin: miter; stroke-miterlimit: 4; fill:#d3ffcb; fill-rule: nonzero; opacity: 1;" vector-effect="non-scaling-stroke" transform=" translate(216.52, -7.35)" d="M 0 0 L -433.041 0 L -406.928 14.701 L -26.113 14.701 z" stroke-linecap="round"/>
</g>
		<g transform="matrix(1.33 0 0 -1.33 -0.7 293.15)" id="path68">
<path style="stroke: none; stroke-width: 1; stroke-dasharray: none; stroke-linecap: butt; stroke-dashoffset: 0; stroke-linejoin: miter; stroke-miterlimit: 4; fill:#a6ff98; fill-rule: nonzero; opacity: 1;" vector-effect="non-scaling-stroke" transform=" translate(-251.52, -53.84)" d="M 467.675 47.413 L 35.36 47.413 L 35.36 60.275999999999996 L 467.675 60.275999999999996 z" stroke-linecap="round"/>
</g>
		<g transform="matrix(1.33 0 0 -1.33 216.26 209.93)" id="path80" clip-path="url(#CLIPPATH_5)">
<clipPath id="CLIPPATH_5" fill="#000000">
	<path transform="matrix(1 0 0 1 -164.24 133.74) translate(-250, -250)" id="path74" d="M 0 500 L 500 500 L 500 0 L 0 0 Z" stroke-linecap="round" fill="#000000"/>
</clipPath>
<path style="stroke: none; stroke-width: 1; stroke-dasharray: none; stroke-linecap: butt; stroke-dashoffset: 0; stroke-linejoin: miter; stroke-miterlimit: 4; fill:#226f15; fill-rule: nonzero; opacity: 1;" vector-effect="non-scaling-stroke" transform=" translate(1.74, 4.35)" d="M 0 0 C 19.686 0 31.754 -3.76 32.502 -3.999 C 33.771 -4.406 34.469 -5.764 34.063 -7.031000000000001 C 33.656000000000006 -8.3 32.293 -8.994 31.031000000000002 -8.592 C 30.653000000000002 -8.473 3.9360000000000035 -0.24600000000000044 -34.727999999999994 -8.651 C -36.028999999999996 -8.93 -37.312999999999995 -8.108 -37.596 -6.808 C -37.879 -5.506 -37.053 -4.223 -35.751999999999995 -3.9389999999999996 C -22.17 -0.986 -10.085 0 0 0" stroke-linecap="round"/>
</g>
		<g transform="matrix(1.33 0 0 -1.33 174.26 148.41)" id="path84" clip-path="url(#CLIPPATH_6)">
<clipPath id="CLIPPATH_6" fill="#000000">
	<path transform="matrix(1 0 0 1 -132.74 87.6) translate(-250, -250)" id="path74" d="M 0 500 L 500 500 L 500 0 L 0 0 Z" stroke-linecap="round" fill="#000000"/>
</clipPath>
<path style="stroke: none; stroke-width: 1; stroke-dasharray: none; stroke-linecap: butt; stroke-dashoffset: 0; stroke-linejoin: miter; stroke-miterlimit: 4; fill: #2ba167; fill-rule: nonzero; opacity: 1;" vector-effect="non-scaling-stroke" transform=" translate(19.2, -26.26)" d="M 0 0 C 0.347 0.663 7.047 24.511 3.505 24.839 C -0.03699999999999992 25.166999999999998 1.5319999999999998 22.997999999999998 -0.40200000000000014 21.392 C -2.338 19.785 -6.413 43.683 -8.293 39.432 C -10.172999999999998 35.18 -6.68 30.066000000000003 -9.370999999999999 31.217000000000002 C -12.061999999999998 32.367000000000004 -16.903 54.472 -20.352999999999998 52.389 C -23.802999999999997 50.306000000000004 -18.813999999999997 42.557 -21.729999999999997 42.306000000000004 C -24.645999999999997 42.05500000000001 -40.717999999999996 49.425000000000004 -42.797 39.45400000000001 C -44.875 29.483000000000008 -22.848999999999997 27.867000000000008 -20.653 25.119000000000007 C -18.458 22.370000000000008 -31.598999999999997 21.123000000000008 -25.048 18.635000000000005 C -18.497999999999998 16.146000000000004 -7.402999999999999 12.940000000000005 -11.508999999999999 11.910000000000005 C -12.383 11.690000000000005 -24.255 16.494000000000007 -23.641 7.985000000000006 C -23.343 3.863 0 0 0 0" stroke-linecap="round"/>
</g>
		<g transform="matrix(1.33 0 0 -1.33 185.62 162.69)" id="path88" clip-path="url(#CLIPPATH_7)">
<clipPath id="CLIPPATH_7" fill="#000000">
	<path transform="matrix(1 0 0 1 -141.25 98.31) translate(-250, -250)" id="path74" d="M 0 500 L 500 500 L 500 0 L 0 0 Z" stroke-linecap="round" fill="#000000"/>
</clipPath>
<path style="stroke: rgb(29,64,47); stroke-width: 1; stroke-dasharray: none; stroke-linecap: round; stroke-dashoffset: 0; stroke-linejoin: miter; stroke-miterlimit: 10; fill: none; fill-rule: nonzero; opacity: 1;" vector-effect="non-scaling-stroke" transform=" translate(10.74, -18.2)" d="M 0 0 C 0 0 -4.025 31.679 -21.481 36.396" stroke-linecap="round"/>
</g>
		<g transform="matrix(1.33 0 0 -1.33 216.42 211.74)" id="path92" clip-path="url(#CLIPPATH_8)">
<clipPath id="CLIPPATH_8" fill="#000000">
	<path transform="matrix(1 0 0 1 -164.36 135.1) translate(-250, -250)" id="path74" d="M 0 500 L 500 500 L 500 0 L 0 0 Z" stroke-linecap="round" fill="#000000"/>
</clipPath>
<path style="stroke: none; stroke-width: 1; stroke-dasharray: none; stroke-linecap: butt; stroke-dashoffset: 0; stroke-linejoin: miter; stroke-miterlimit: 4; fill: rgb(29,64,47); fill-rule: nonzero; opacity: 1;" vector-effect="non-scaling-stroke" transform=" translate(33.53, 0)" d="M 0 0 C 0 -2.521 -15.012 -4.564 -33.529 -4.564 C -52.047000000000004 -4.564 -67.059 -2.521 -67.059 0 C -67.059 2.521 -52.047 4.563 -33.528999999999996 4.563 C -15.012 4.563 0 2.521 0 0" stroke-linecap="round"/>
</g>
		<g transform="matrix(1.33 0 0 -1.33 213.58 171.47)" id="path96" clip-path="url(#CLIPPATH_9)">
<clipPath id="CLIPPATH_9" fill="#000000">
	<path transform="matrix(1 0 0 1 -162.23 104.9) translate(-250, -250)" id="path74" d="M 0 500 L 500 500 L 500 0 L 0 0 Z" stroke-linecap="round" fill="#000000"/>
</clipPath>
<path style="stroke: none; stroke-width: 1; stroke-dasharray: none; stroke-linecap: butt; stroke-dashoffset: 0; stroke-linejoin: miter; stroke-miterlimit: 4; fill: #2ba167; fill-rule: nonzero; opacity: 1;" vector-effect="non-scaling-stroke" transform=" translate(1.14, -28.95)" d="M 0 0 C 0.636 0.395 18.553 17.5 15.673 19.587 C 12.792 21.675 13.038 19.009 10.554 18.612 C 8.07 18.215999999999998 16.741 40.854 12.957 38.155 C 9.174000000000001 35.455 9.573 29.275 7.845000000000001 31.637 C 6.115 33.997 13.212 55.483000000000004 9.183 55.449 C 5.153 55.415 5.496 46.205 2.859 47.476 C 0.22299999999999986 48.745 -9.851 63.275999999999996 -16.72 55.756 C -23.589 48.235 -5.459 35.620999999999995 -4.970999999999998 32.138000000000005 C -4.481999999999998 28.654000000000003 -16.424999999999997 34.27700000000001 -12.056999999999999 28.798000000000005 C -7.687999999999999 23.319000000000006 0.22400000000000198 14.908000000000005 -3.833999999999998 16.113000000000007 C -4.696999999999997 16.370000000000008 -12.464999999999998 26.553000000000004 -16.272 18.918000000000006 C -18.116 15.22 0 0 0 0" stroke-linecap="round"/>
</g>
		<g transform="matrix(1.33 0 0 -1.33 217.12 188.32)" id="path100" clip-path="url(#CLIPPATH_10)">
<clipPath id="CLIPPATH_10" fill="#000000">
	<path transform="matrix(1 0 0 1 -164.88 117.53) translate(-250, -250)" id="path74" d="M 0 500 L 500 500 L 500 0 L 0 0 Z" stroke-linecap="round" fill="#000000"/>
</clipPath>
<path style="stroke: rgb(29,64,47); stroke-width: 1; stroke-dasharray: none; stroke-linecap: round; stroke-dashoffset: 0; stroke-linejoin: miter; stroke-miterlimit: 10; fill: none; fill-rule: nonzero; opacity: 1;" vector-effect="non-scaling-stroke" transform=" translate(-2.84, -23.64)" d="M 0 0 C 0 0 12.708 34.336 0.092 47.289" stroke-linecap="round"/>
</g>
		<g transform="matrix(1.33 0 0 -1.33 255.41 191.87)" id="path104" clip-path="url(#CLIPPATH_11)">
<clipPath id="CLIPPATH_11" fill="#000000">
	<path transform="matrix(1 0 0 1 -193.6 120.2) translate(-250, -250)" id="path74" d="M 0 500 L 500 500 L 500 0 L 0 0 Z" stroke-linecap="round" fill="#000000"/>
</clipPath>
<path style="stroke: none; stroke-width: 1; stroke-dasharray: none; stroke-linecap: butt; stroke-dashoffset: 0; stroke-linejoin: miter; stroke-miterlimit: 4; fill: #2ba167; fill-rule: nonzero; opacity: 1;" vector-effect="non-scaling-stroke" transform=" translate(-24.31, -23.93)" d="M 0 0 C -0.216 0.717 -2.326 25.397 1.214 25.056 C 4.755 24.714000000000002 2.807 22.878 4.406000000000001 20.937 C 6.006 18.996000000000002 14.489 41.706 15.539 37.178 C 16.589 32.647999999999996 12.198 28.281 15.058 28.906 C 17.917 29.532 26.817 50.336 29.814999999999998 47.644 C 32.812999999999995 44.951 26.461 38.274 29.276999999999997 37.48 C 32.095 36.687999999999995 49.263 40.913999999999994 49.435 30.728999999999996 C 49.607 20.546 27.668 23.089 24.996 20.801 C 22.325 18.513 34.998 14.824 28.098 13.608 C 21.197 12.392 9.698 11.323 13.538 9.541 C 14.354 9.162 26.917 11.653 24.719 3.411 C 23.653 -0.582 0 0 0 0" stroke-linecap="round"/>
</g>
		<g transform="matrix(1.33 0 0 -1.33 238.67 208.6)" id="path108" clip-path="url(#CLIPPATH_12)">
<clipPath id="CLIPPATH_12" fill="#000000">
	<path transform="matrix(1 0 0 1 -181.05 132.75) translate(-250, -250)" id="path74" d="M 0 500 L 500 500 L 500 0 L 0 0 Z" stroke-linecap="round" fill="#000000"/>
</clipPath>
<path style="stroke: rgb(29,64,47); stroke-width: 1; stroke-dasharray: none; stroke-linecap: round; stroke-dashoffset: 0; stroke-linejoin: miter; stroke-miterlimit: 10; fill: none; fill-rule: nonzero; opacity: 1;" vector-effect="non-scaling-stroke" transform=" translate(-15.61, -17.75)" d="M 0 0 C 0 0 13.199 34.149 31.229 35.51" stroke-linecap="round"/>
</g>
		<g transform="matrix(1.33 0 0 -1.33 253.04 150.64)" id="path112" clip-path="url(#CLIPPATH_13)">
<clipPath id="CLIPPATH_13" fill="#000000">
	<path transform="matrix(1 0 0 1 -191.82 89.28) translate(-250, -250)" id="path74" d="M 0 500 L 500 500 L 500 0 L 0 0 Z" stroke-linecap="round" fill="#000000"/>
</clipPath>
<path style="stroke: none; stroke-width: 1; stroke-dasharray: none; stroke-linecap: butt; stroke-dashoffset: 0; stroke-linejoin: miter; stroke-miterlimit: 4; fill: #2ba167; fill-rule: nonzero; opacity: 1;" vector-effect="non-scaling-stroke" transform=" translate(-20.03, -25.98)" d="M 0 0 C -0.327 0.673 -6.361 24.697 -2.812 24.927 C 0.738 25.156 -0.8909999999999998 23.032 0.9990000000000001 21.372 C 2.8890000000000002 19.712 7.627000000000001 43.486999999999995 9.389000000000001 39.186 C 11.149000000000001 34.883 7.515000000000001 29.869 10.237000000000002 30.944 C 12.959000000000001 32.019999999999996 18.415000000000003 53.980000000000004 21.805 51.802 C 25.194 49.624 19.993 42.016999999999996 22.901 41.685 C 25.809 41.352000000000004 42.079 48.271 43.879000000000005 38.247 C 45.679 28.222 23.616 27.221 21.345 24.534 C 19.074 21.848 32.175 20.235 25.558 17.93 C 18.94 15.625 7.762 12.729 11.837 11.585 C 12.704 11.342 24.705 15.813 23.854 7.323 C 23.442 3.212 0 0 0 0" stroke-linecap="round"/>
</g>
		<g transform="matrix(1.33 0 0 -1.33 239.38 167.79)" id="path116" clip-path="url(#CLIPPATH_14)">
<clipPath id="CLIPPATH_14" fill="#000000">
	<path transform="matrix(1 0 0 1 -181.58 102.14) translate(-250, -250)" id="path74" d="M 0 500 L 500 500 L 500 0 L 0 0 Z" stroke-linecap="round" fill="#000000"/>
</clipPath>
<path style="stroke: rgb(29,64,47); stroke-width: 1; stroke-dasharray: none; stroke-linecap: round; stroke-dashoffset: 0; stroke-linejoin: miter; stroke-miterlimit: 10; fill: none; fill-rule: nonzero; opacity: 1;" vector-effect="non-scaling-stroke" transform=" translate(-12.57, -20.02)" d="M 0 0 C 0 0 7.562 35.821 25.143 40.05" stroke-linecap="round"/>
</g>
		<g transform="matrix(1.33 0 0 -1.33 176.97 186.1)" id="path120" clip-path="url(#CLIPPATH_15)">
<clipPath id="CLIPPATH_15" fill="#000000">
	<path transform="matrix(1 0 0 1 -134.77 115.87) translate(-250, -250)" id="path74" d="M 0 500 L 500 500 L 500 0 L 0 0 Z" stroke-linecap="round" fill="#000000"/>
</clipPath>
<path style="stroke: none; stroke-width: 1; stroke-dasharray: none; stroke-linecap: butt; stroke-dashoffset: 0; stroke-linejoin: miter; stroke-miterlimit: 4; fill: #2ba167; fill-rule: nonzero; opacity: 1;" vector-effect="non-scaling-stroke" transform=" translate(23.61, -24.36)" d="M 0 0 C 0.237 0.709 3.076 25.316 -0.473 25.08 C -4.022 24.843999999999998 -2.129 22.95 -3.7849999999999997 21.058 C -5.441 19.165 -13.25 42.116 -14.433 37.620000000000005 C -15.616 33.12500000000001 -11.357 28.629000000000005 -14.196 29.339000000000006 C -17.035 30.049000000000007 -25.316 51.107000000000006 -28.393 48.504000000000005 C -31.469 45.901 -25.316000000000003 39.040000000000006 -28.156000000000002 38.330000000000005 C -30.995 37.620000000000005 -48.031000000000006 42.35300000000001 -48.505 32.179 C -48.978 22.004 -26.974000000000004 23.897000000000002 -24.37 21.531000000000002 C -21.768 19.165000000000003 -34.545 15.853000000000002 -27.683 14.433000000000003 C -20.820999999999998 13.013000000000003 -9.358999999999998 11.604000000000003 -13.25 9.938000000000002 C -14.078 9.582 -26.561 12.444 -24.607 4.141 C -23.66 0.118 0 0 0 0" stroke-linecap="round"/>
</g>
		<g transform="matrix(1.33 0 0 -1.33 191.09 200.37)" id="path124" clip-path="url(#CLIPPATH_16)">
<clipPath id="CLIPPATH_16" fill="#000000">
	<path transform="matrix(1 0 0 1 -145.36 126.57) translate(-250, -250)" id="path74" d="M 0 500 L 500 500 L 500 0 L 0 0 Z" stroke-linecap="round" fill="#000000"/>
</clipPath>
<path style="stroke: rgb(29,64,47); stroke-width: 1; stroke-dasharray: none; stroke-linecap: round; stroke-dashoffset: 0; stroke-linejoin: miter; stroke-miterlimit: 10; fill: none; fill-rule: nonzero; opacity: 1;" vector-effect="non-scaling-stroke" transform=" translate(13.49, -16.27)" d="M 0 0 C 0 0 -8.991 30.642 -26.974 32.534" stroke-linecap="round"/>
</g>
		<g transform="matrix(1.33 0 0 -1.33 216.38 244.86)" id="path128" clip-path="url(#CLIPPATH_17)">
<clipPath id="CLIPPATH_17" fill="#000000">
	<path transform="matrix(1 0 0 1 -164.33 159.94) translate(-250, -250)" id="path74" d="M 0 500 L 500 500 L 500 0 L 0 0 Z" stroke-linecap="round" fill="#000000"/>
</clipPath>
<path style="stroke: none; stroke-width: 1; stroke-dasharray: none; stroke-linecap: butt; stroke-dashoffset: 0; stroke-linejoin: miter; stroke-miterlimit: 4; fill:#226f15; fill-rule: nonzero; opacity: 1;" vector-effect="non-scaling-stroke" transform=" translate(21.4, -21.91)" d="M 0 0 L -1.467 -0.346 C -14.881 -3.508 -29.436999999999998 -3.629 -42.961999999999996 -0.691 L -54.94199999999999 46.628 C -33.916999999999994 41.906 -11.258999999999993 41.742 9.909000000000006 46.16 L 12.151000000000007 46.628 z" stroke-linecap="round"/>
</g>
		<g transform="matrix(1.33 0 0 -1.33 216.38 218.77)" id="path132" clip-path="url(#CLIPPATH_18)">
<clipPath id="CLIPPATH_18" fill="#000000">
	<path transform="matrix(1 0 0 1 -164.33 140.37) translate(-250, -250)" id="path74" d="M 0 500 L 500 500 L 500 0 L 0 0 Z" stroke-linecap="round" fill="#000000"/>
</clipPath>
<path style="stroke: none; stroke-width: 1; stroke-dasharray: none; stroke-linecap: butt; stroke-dashoffset: 0; stroke-linejoin: miter; stroke-miterlimit: 4; fill:#226f15; fill-rule: nonzero; opacity: 1;" vector-effect="non-scaling-stroke" transform=" translate(-31.99, -1)" d="M 0 0 C 4.473 -1.14 15.077 -3.347 30.163 -3.347 C 39.764 -3.347 51.193 -2.431 63.985 0.20199999999999996 L 65.328 5.354 C 65.184 5.35 65.037 5.337 64.891 5.306 C 26.228 -3.1 -0.49 5.127 -0.867 5.245 C -1.028 5.297 -1.191 5.329 -1.354 5.346 Z" stroke-linecap="round"/>
</g>
		<g transform="matrix(1.33 0 0 -1.33 216.26 215.98)" id="path136" clip-path="url(#CLIPPATH_19)">
<clipPath id="CLIPPATH_19" fill="#000000">
	<path transform="matrix(1 0 0 1 -164.24 138.28) translate(-250, -250)" id="path74" d="M 0 500 L 500 500 L 500 0 L 0 0 Z" stroke-linecap="round" fill="#000000"/>
</clipPath>
<path style="stroke: none; stroke-width: 1; stroke-dasharray: none; stroke-linecap: butt; stroke-dashoffset: 0; stroke-linejoin: miter; stroke-miterlimit: 4; fill:#226f15; fill-rule: nonzero; opacity: 1;" vector-effect="non-scaling-stroke" transform=" translate(-1.74, -4.35)" d="M 0 0 C -19.685 0 -31.754 3.761 -32.502 4 C -33.771 4.406 -34.469 5.764 -34.063 7.031000000000001 C -33.655 8.3 -32.293 8.994 -31.03 8.592 C -30.653000000000002 8.474 -3.936 0.2469999999999999 34.727999999999994 8.652000000000001 C 36.029 8.93 37.313 8.108 37.597 6.809 C 37.879 5.507 37.053 4.223 35.752 3.939 C 22.17 0.987 10.085 0 0 0" stroke-linecap="round"/>
</g>
		<g transform="matrix(1.33 0 0 -1.33 -115.7 164.07)" id="path140" clip-path="url(#CLIPPATH_20)">
<clipPath id="CLIPPATH_20" fill="#000000">
	<path transform="matrix(1 0 0 1 84.73 99.35) translate(-250, -250)" id="path74" d="M 0 500 L 500 500 L 500 0 L 0 0 Z" stroke-linecap="round" fill="#000000"/>
</clipPath>
<path style="stroke: none; stroke-width: 1; stroke-dasharray: none; stroke-linecap: butt; stroke-dashoffset: 0; stroke-linejoin: miter; stroke-miterlimit: 4; fill: rgb(66,66,66); fill-rule: nonzero; opacity: 1;" vector-effect="non-scaling-stroke" transform=" translate(125.75, -66.2)" d="M 0 0 L -201.776 -5.194 L -251.508 132.4 L -49.732 137.595 z" stroke-linecap="round"/>
</g>
		<g transform="matrix(1.33 0 0 -1.33 -19.7 262.89)" id="path144" clip-path="url(#CLIPPATH_21)">
<clipPath id="CLIPPATH_21" fill="#000000">
	<path transform="matrix(1 0 0 1 12.73 173.46) translate(-250, -250)" id="path74" d="M 0 500 L 500 500 L 500 0 L 0 0 Z" stroke-linecap="round" fill="#000000"/>
</clipPath>
<path style="stroke: none; stroke-width: 1; stroke-dasharray: none; stroke-linecap: butt; stroke-dashoffset: 0; stroke-linejoin: miter; stroke-miterlimit: 4; fill: rgb(51,51,51); fill-rule: nonzero; opacity: 1;" vector-effect="non-scaling-stroke" transform=" translate(148.03, -3.03)" d="M 0 0 L -201.775 -5.193 L -296.066 6.055 L -94.29 11.249 Z" stroke-linecap="round"/>
</g>
		<g transform="matrix(1.33 0 0 -1.33 -114.28 163.31)" id="path148" clip-path="url(#CLIPPATH_22)">
<clipPath id="CLIPPATH_22" fill="#000000">
	<path transform="matrix(1 0 0 1 83.67 98.78) translate(-250, -250)" id="path74" d="M 0 500 L 500 500 L 500 0 L 0 0 Z" stroke-linecap="round" fill="#000000"/>
</clipPath>
<path style="stroke: none; stroke-width: 1; stroke-dasharray: none; stroke-linecap: butt; stroke-dashoffset: 0; stroke-linejoin: miter; stroke-miterlimit: 4; fill:#226f15; fill-rule: nonzero; opacity: 1;" vector-effect="non-scaling-stroke" transform=" translate(114.9, -58.84)" d="M 0 0 L -185.561 -4.776 L -229.79000000000002 117.684 L -44.22900000000001 122.46 z" stroke-linecap="round"/>
</g>
		<g transform="matrix(1.33 0 0 -1.33 -154.02 273.91)" id="path152" clip-path="url(#CLIPPATH_23)">
<clipPath id="CLIPPATH_23" fill="#000000">
	<path transform="matrix(1 0 0 1 113.47 181.73) translate(-250, -250)" id="path74" d="M 0 500 L 500 500 L 500 0 L 0 0 Z" stroke-linecap="round" fill="#000000"/>
</clipPath>
<path style="stroke: none; stroke-width: 1; stroke-dasharray: none; stroke-linecap: butt; stroke-dashoffset: 0; stroke-linejoin: miter; stroke-miterlimit: 4; fill: rgb(26,26,26); fill-rule: nonzero; opacity: 1;" vector-effect="non-scaling-stroke" transform=" translate(-47.29, 11.29)" d="M 0 0 L 94.291 -11.248 L 94.582 -22.586 L 0.658 -9.81 Z" stroke-linecap="round"/>
</g>
		<g transform="matrix(1.33 0 0 -1.33 43.31 277.95)" id="path156" clip-path="url(#CLIPPATH_24)">
<clipPath id="CLIPPATH_24" fill="#000000">
	<path transform="matrix(1 0 0 1 -34.52 184.76) translate(-250, -250)" id="path74" d="M 0 500 L 500 500 L 500 0 L 0 0 Z" stroke-linecap="round" fill="#000000"/>
</clipPath>
<path style="stroke: none; stroke-width: 1; stroke-dasharray: none; stroke-linecap: butt; stroke-dashoffset: 0; stroke-linejoin: miter; stroke-miterlimit: 4; fill: rgb(0,0,0); fill-rule: nonzero; opacity: 1;" vector-effect="non-scaling-stroke" transform=" translate(-101, 3.07)" d="M 0 0 L 201.775 5.193 L 201.994 -3.31 L 0.292 -11.338 Z" stroke-linecap="round"/>
</g>
		<g transform="matrix(1.33 0 0 -1.33 -114.28 160.23)" id="path160" clip-path="url(#CLIPPATH_25)">
<clipPath id="CLIPPATH_25" fill="#000000">
	<path transform="matrix(1 0 0 1 83.67 96.47) translate(-250, -250)" id="path74" d="M 0 500 L 500 500 L 500 0 L 0 0 Z" stroke-linecap="round" fill="#000000"/>
</clipPath>
<path style="stroke: none; stroke-width: 1; stroke-dasharray: none; stroke-linecap: butt; stroke-dashoffset: 0; stroke-linejoin: miter; stroke-miterlimit: 4; fill: rgb(18,33,56); fill-rule: nonzero; opacity: 1;" vector-effect="non-scaling-stroke" transform=" translate(66.2, 57.11)" d="M 0 0 L 42.767 -118.411 L 48.693000000000005 -118.259 L 4.464000000000006 4.200999999999993 L -181.097 -0.5750000000000064 L -179.63400000000001 -4.625000000000006 z" stroke-linecap="round"/>
</g>
		<g transform="matrix(1.33 0 0 -1.33 -250.6 173.87)" id="path164" clip-path="url(#CLIPPATH_26)">
<clipPath id="CLIPPATH_26" fill="#000000">
	<path transform="matrix(1 0 0 1 185.91 106.7) translate(-250, -250)" id="path74" d="M 0 500 L 500 500 L 500 0 L 0 0 Z" stroke-linecap="round" fill="#000000"/>
</clipPath>
<path style="stroke: none; stroke-width: 1; stroke-dasharray: none; stroke-linecap: butt; stroke-dashoffset: 0; stroke-linejoin: miter; stroke-miterlimit: 4; fill: rgb(0,0,0); fill-rule: nonzero; opacity: 1;" vector-effect="non-scaling-stroke" transform=" translate(-24.58, 73.55)" d="M 0 0 L -1.225 -1.618 L 50.382 -147.1 L 49.724 -137.29 z" stroke-linecap="round"/>
</g>
		<g transform="matrix(1.33 0 0 -1.33 -5.89 264.25)" id="path168" clip-path="url(#CLIPPATH_27)">
<clipPath id="CLIPPATH_27" fill="#000000">
	<path transform="matrix(1 0 0 1 2.37 174.48) translate(-250, -250)" id="path74" d="M 0 500 L 500 500 L 500 0 L 0 0 Z" stroke-linecap="round" fill="#000000"/>
</clipPath>
<path style="stroke: none; stroke-width: 1; stroke-dasharray: none; stroke-linecap: butt; stroke-dashoffset: 0; stroke-linejoin: miter; stroke-miterlimit: 4; fill: rgb(66,66,66); fill-rule: nonzero; opacity: 1;" vector-effect="non-scaling-stroke" transform=" translate(34.83, -0.71)" d="M 0 0 L -47.471 -1.222 L -69.654 1.4249999999999998 L -22.183 2.646 z" stroke-linecap="round"/>
</g>
		<g transform="matrix(1.33 0 0 -1.33 51.97 -241.28)" id="path172" clip-path="url(#CLIPPATH_28)">
<clipPath id="CLIPPATH_28" fill="#000000">
	<path transform="matrix(1 0 0 1 -41.02 -204.66) translate(-250, -250)" id="path74" d="M 0 500 L 500 500 L 500 0 L 0 0 Z" stroke-linecap="round" fill="#000000"/>
</clipPath>
<path style="stroke: rgb(66,66,66); stroke-width: 1; stroke-dasharray: none; stroke-linecap: round; stroke-dashoffset: 0; stroke-linejoin: miter; stroke-miterlimit: 10; fill: none; fill-rule: nonzero; opacity: 1;" vector-effect="non-scaling-stroke" transform=" translate(0, 45.34)" d="M 0 0 L 0 -90.67" stroke-linecap="round"/>
</g>
		<g transform="matrix(1.33 0 0 -1.33 53.2 -143.34)" id="path176" clip-path="url(#CLIPPATH_29)">
<clipPath id="CLIPPATH_29" fill="#000000">
	<path transform="matrix(1 0 0 1 -41.94 -131.21) translate(-250, -250)" id="path74" d="M 0 500 L 500 500 L 500 0 L 0 0 Z" stroke-linecap="round" fill="#000000"/>
</clipPath>
<path style="stroke: none; stroke-width: 1; stroke-dasharray: none; stroke-linecap: butt; stroke-dashoffset: 0; stroke-linejoin: miter; stroke-miterlimit: 4; fill:#d3ffcb; fill-rule: nonzero; opacity: 1;" vector-effect="non-scaling-stroke" transform=" translate(-34.7, -19.45)" d="M 0 0 L 69.409 0 L 34.062 38.904 Z" stroke-linecap="round"/>
</g>
		<g transform="matrix(1.33 0 0 -1.33 52.74 -171.79)" id="path178" clip-path="url(#CLIPPATH_30)">
<clipPath id="CLIPPATH_30" fill="#000000">
	<path transform="matrix(1 0 0 1 -41.6 -152.55) translate(-250, -250)" id="path74" d="M 0 500 L 500 500 L 500 0 L 0 0 Z" stroke-linecap="round" fill="#000000"/>
</clipPath>
<path style="stroke: none; stroke-width: 1; stroke-dasharray: none; stroke-linecap: butt; stroke-dashoffset: 0; stroke-linejoin: miter; stroke-miterlimit: 4; fill:#d3ffcb; fill-rule: nonzero; opacity: 1;" vector-effect="non-scaling-stroke" transform=" translate(-291.6, -402.55)" d="M 300.167 389.865 L 283.029 389.865 L 283.029 415.229 L 300.167 415.229 z" stroke-linecap="round"/>
</g>
		<g transform="matrix(1.33 0 0 -1.33 50.97 -154.64)" id="path182" clip-path="url(#CLIPPATH_31)">
<clipPath id="CLIPPATH_31" fill="#000000">
	<path transform="matrix(1 0 0 1 -40.27 -139.68) translate(-250, -250)" id="path74" d="M 0 500 L 500 500 L 500 0 L 0 0 Z" stroke-linecap="round" fill="#000000"/>
</clipPath>
<path style="stroke: none; stroke-width: 1; stroke-dasharray: none; stroke-linecap: butt; stroke-dashoffset: 0; stroke-linejoin: miter; stroke-miterlimit: 4; fill:#226f15; fill-rule: nonzero; opacity: 1;" vector-effect="non-scaling-stroke" transform=" translate(-7.24, 1.51)" d="M 0 0 L 17.116 -0.128 L -2.636 -3.021 Z" stroke-linecap="round"/>
</g>
		<g transform="matrix(1.33 0 0 -1.33 -64.71 -118.92)" id="path186" clip-path="url(#CLIPPATH_32)">
<clipPath id="CLIPPATH_32" fill="#000000">
	<path transform="matrix(1 0 0 1 46.49 -112.9) translate(-250, -250)" id="path74" d="M 0 500 L 500 500 L 500 0 L 0 0 Z" stroke-linecap="round" fill="#000000"/>
</clipPath>
<path style="stroke: none; stroke-width: 1; stroke-dasharray: none; stroke-linecap: butt; stroke-dashoffset: 0; stroke-linejoin: miter; stroke-miterlimit: 4; fill: rgb(26,26,26); fill-rule: nonzero; opacity: 1;" vector-effect="non-scaling-stroke" transform=" translate(7.18, 14.41)" d="M 0 0 C 0 0 7.184 -32.522 -4.204 -29.046 C -15.592 -25.569 -16.6 0.483 -16.6 0.483 Z" stroke-linecap="round"/>
</g>
		<g transform="matrix(1.33 0 0 -1.33 -5.96 121.52)" id="path190" clip-path="url(#CLIPPATH_33)">
<clipPath id="CLIPPATH_33" fill="#000000">
	<path transform="matrix(1 0 0 1 2.43 67.44) translate(-250, -250)" id="path74" d="M 0 500 L 500 500 L 500 0 L 0 0 Z" stroke-linecap="round" fill="#000000"/>
</clipPath>
<path style="stroke: none; stroke-width: 1; stroke-dasharray: none; stroke-linecap: butt; stroke-dashoffset: 0; stroke-linejoin: miter; stroke-miterlimit: 4; fill: rgb(252,188,118); fill-rule: nonzero; opacity: 1;" vector-effect="non-scaling-stroke" transform=" translate(-22.14, 17.95)" d="M 0 0 C 4.293 -13.953 9.144 -26.974 13.614 -34.385 C 19.843 -53.456999999999994 27.865000000000002 -56.95099999999999 27.865000000000002 -56.95099999999999 L 42.134 -51.769999999999996 C 44.382 -50.843999999999994 44.577 -46.855999999999995 44.026 -44.659 L 31.201 21.06 L 30.991 20.981" stroke-linecap="round"/>
</g>
		<g transform="matrix(1.33 0 0 -1.33 -24.04 43.7)" id="path194" clip-path="url(#CLIPPATH_34)">
<clipPath id="CLIPPATH_34" fill="#000000">
	<path transform="matrix(1 0 0 1 15.99 9.07) translate(-250, -250)" id="path74" d="M 0 500 L 500 500 L 500 0 L 0 0 Z" stroke-linecap="round" fill="#000000"/>
</clipPath>
<path style="stroke: none; stroke-width: 1; stroke-dasharray: none; stroke-linecap: butt; stroke-dashoffset: 0; stroke-linejoin: miter; stroke-miterlimit: 4; fill: rgb(255,255,255); fill-rule: nonzero; opacity: 1;" vector-effect="non-scaling-stroke" transform=" translate(22.41, -19.44)" d="M 0 0 L -19.081 59.253 C -55.711 65.16 -42.49 25.674 -42.49 25.674 C -40.613 14.359 -36.215 -4.001999999999999 -30.991 -20.981" stroke-linecap="round"/>
</g>
		<g transform="matrix(1.33 0 0 -1.33 -7.52 85.61)" id="path198" clip-path="url(#CLIPPATH_35)">
<clipPath id="CLIPPATH_35" fill="#000000">
	<path transform="matrix(1 0 0 1 3.6 40.5) translate(-250, -250)" id="path74" d="M 0 500 L 500 500 L 500 0 L 0 0 Z" stroke-linecap="round" fill="#000000"/>
</clipPath>
<path style="stroke: none; stroke-width: 1; stroke-dasharray: none; stroke-linecap: butt; stroke-dashoffset: 0; stroke-linejoin: miter; stroke-miterlimit: 4; fill: rgb(255,255,255); fill-rule: nonzero; opacity: 1;" vector-effect="non-scaling-stroke" transform=" translate(16.66, 13.7)" d="M 0 0 C 0 0 -25.406 4.686 -37.27 -13.842 L -31.934000000000005 -27.841 L -30.271000000000004 -27.897000000000002 C -18.055000000000007 -28.318 -6.036000000000005 -24.724000000000004 3.9429999999999943 -17.664 z" stroke-linecap="round"/>
</g>
		<g transform="matrix(1.33 0 0 -1.33 -9.93 78.55)" id="path202" clip-path="url(#CLIPPATH_36)">
<clipPath id="CLIPPATH_36" fill="#000000">
	<path transform="matrix(1 0 0 1 5.4 35.21) translate(-250, -250)" id="path74" d="M 0 500 L 500 500 L 500 0 L 0 0 Z" stroke-linecap="round" fill="#000000"/>
</clipPath>
<path style="stroke: none; stroke-width: 1; stroke-dasharray: none; stroke-linecap: butt; stroke-dashoffset: 0; stroke-linejoin: miter; stroke-miterlimit: 4; fill: rgb(173,173,173); fill-rule: nonzero; opacity: 1;" vector-effect="non-scaling-stroke" transform=" translate(15.88, 3.34)" d="M 0 0 C 0 0 -4.876 -4.765 -13.785 -7.496 C -22.694000000000003 -10.228000000000002 -32.405 -10.253 -31.719 -8.103 C -31.034000000000002 -5.951 -30.585 -6.702 -30.585 -6.702 L -29.238 -8.957 C -29.238 -8.957 -10.172 -7.228000000000001 -1.7459999999999987 -0.28600000000000136 L -2.2379999999999987 2.9559999999999986 C -2.2379999999999987 2.9559999999999986 -0.6359999999999986 2.828999999999999 1.3322676295501878e-15 -1.3322676295501878e-15" stroke-linecap="round"/>
</g>
		<g transform="matrix(1.33 0 0 -1.33 -96.02 -21.23)" id="path206" clip-path="url(#CLIPPATH_37)">
<clipPath id="CLIPPATH_37" fill="#000000">
	<path transform="matrix(1 0 0 1 69.97 -39.63) translate(-250, -250)" id="path74" d="M 0 500 L 500 500 L 500 0 L 0 0 Z" stroke-linecap="round" fill="#000000"/>
</clipPath>
<path style="stroke: none; stroke-width: 1; stroke-dasharray: none; stroke-linecap: butt; stroke-dashoffset: 0; stroke-linejoin: miter; stroke-miterlimit: 4; fill: rgb(255,255,255); fill-rule: nonzero; opacity: 1;" vector-effect="non-scaling-stroke" transform=" translate(-57.31, -7.72)" d="M 0 0 L 61.53 16.711 L 114.621 -1.268 Z" stroke-linecap="round"/>
</g>
		<g transform="matrix(1.33 0 0 -1.33 -89.93 109.85)" id="path210" clip-path="url(#CLIPPATH_38)">
<clipPath id="CLIPPATH_38" fill="#000000">
	<path transform="matrix(1 0 0 1 65.41 58.68) translate(-250, -250)" id="path74" d="M 0 500 L 500 500 L 500 0 L 0 0 Z" stroke-linecap="round" fill="#000000"/>
</clipPath>
<path style="stroke: none; stroke-width: 1; stroke-dasharray: none; stroke-linecap: butt; stroke-dashoffset: 0; stroke-linejoin: miter; stroke-miterlimit: 4; fill: rgb(255,255,255); fill-rule: nonzero; opacity: 1;" vector-effect="non-scaling-stroke" transform=" translate(56.88, -99.96)" d="M 0 0 L -0.24 35.534 L 1.624 93.396 C 3.181 115.203 -1.1389999999999998 171.725 -13.171 189.981 L -43.33 200.51399999999998 L -46.414 195.26399999999998 L -51.349000000000004 192.194 L -73.839 202.636 L -115.685 191.165 L -105.38300000000001 -2.7120000000000175 z" stroke-linecap="round"/>
</g>
		<g transform="matrix(1.33 0 0 -1.33 -68.58 118.26)" id="path214" clip-path="url(#CLIPPATH_39)">
<clipPath id="CLIPPATH_39" fill="#000000">
	<path transform="matrix(1 0 0 1 49.39 64.99) translate(-250, -250)" id="path74" d="M 0 500 L 500 500 L 500 0 L 0 0 Z" stroke-linecap="round" fill="#000000"/>
</clipPath>
<path style="stroke: none; stroke-width: 1; stroke-dasharray: none; stroke-linecap: butt; stroke-dashoffset: 0; stroke-linejoin: miter; stroke-miterlimit: 4; fill: rgb(173,173,173); fill-rule: nonzero; opacity: 1;" vector-effect="non-scaling-stroke" transform=" translate(-7.9, 94.54)" d="M 0 0 C 1.568 -8.042 3.03 -16.106 4.407 -24.186 C 5.697 -32.277 6.878 -40.387 8.011 -48.504000000000005 C 10.227 -64.74600000000001 11.881 -81.06 13.395999999999999 -97.387 C 14.598999999999998 -113.739 15.598999999999998 -130.115 15.937999999999999 -146.516 C 15.94 -154.721 16.107 -162.918 15.829999999999998 -171.119 C 15.647999999999998 -179.318 15.662999999999998 -180.895 15.156999999999998 -189.066 L 14.625999999999998 -189.079 C 15.297999999999998 -172.72 14.927999999999997 -162.929 14.429999999999998 -146.565 C 13.802999999999997 -130.206 12.812999999999999 -113.862 11.459999999999997 -97.547 C 10.090999999999998 -81.233 8.442999999999998 -64.94200000000001 6.506999999999997 -48.686 C 4.555999999999997 -32.431 2.3829999999999973 -16.198999999999998 -0.19200000000000284 -0.031999999999996476 z" stroke-linecap="round"/>
</g>
		<g transform="matrix(1.33 0 0 -1.33 -87.22 -1.37)" id="path218" clip-path="url(#CLIPPATH_40)">
<clipPath id="CLIPPATH_40" fill="#000000">
	<path transform="matrix(1 0 0 1 63.38 -24.74) translate(-250, -250)" id="path74" d="M 0 500 L 500 500 L 500 0 L 0 0 Z" stroke-linecap="round" fill="#000000"/>
</clipPath>
<path style="stroke: none; stroke-width: 1; stroke-dasharray: none; stroke-linecap: butt; stroke-dashoffset: 0; stroke-linejoin: miter; stroke-miterlimit: 4; fill: rgb(173,173,173); fill-rule: nonzero; opacity: 1;" vector-effect="non-scaling-stroke" transform=" translate(0.04, -1.93)" d="M 0 0 C -0.506 -0.009 -1.015 0.196 -1.373 0.559 C -1.749 0.9020000000000001 -1.972 1.404 -1.9809999999999999 1.9090000000000003 C -1.9909999999999999 2.434 -1.7859999999999998 2.9240000000000004 -1.4229999999999998 3.301 C -0.716 4.034 0.586 4.058 1.32 3.352 C 1.696 2.989 1.899 2.506 1.909 1.981 C 1.918 1.476 1.733 0.966 1.371 0.609 C 1.008 0.233 0.525 0.01 0 0" stroke-linecap="round"/>
</g>
		<g transform="matrix(1.33 0 0 -1.33 -74.05 128.83)" id="path222" clip-path="url(#CLIPPATH_41)">
<clipPath id="CLIPPATH_41" fill="#000000">
	<path transform="matrix(1 0 0 1 53.49 72.91) translate(-250, -250)" id="path74" d="M 0 500 L 500 500 L 500 0 L 0 0 Z" stroke-linecap="round" fill="#000000"/>
</clipPath>
<path style="stroke: none; stroke-width: 1; stroke-dasharray: none; stroke-linecap: butt; stroke-dashoffset: 0; stroke-linejoin: miter; stroke-miterlimit: 4; fill: rgb(173,173,173); fill-rule: nonzero; opacity: 1;" vector-effect="non-scaling-stroke" transform=" translate(-7.1, 65.01)" d="M 0 0 L 0 0 C -0.137 1.068 0.623 2.055 1.69 2.191 C 2.739 2.327 3.725 1.587 3.862 0.519 C 3.999 -0.549 3.257 -1.535 2.19 -1.672 C 2.112 -1.674 2.035 -1.675 1.957 -1.677 C 0.984 -1.694 0.135 -0.99 0 0 M 3.907 -32.48 C 3.791 -31.411999999999995 4.57 -30.443999999999996 5.638 -30.326999999999998 C 6.7059999999999995 -30.209999999999997 7.6739999999999995 -30.99 7.771 -32.059 C 7.888 -33.126 7.127 -34.074 6.06 -34.190999999999995 C 6.0009999999999994 -34.211999999999996 5.943 -34.212999999999994 5.885 -34.214 C 4.893 -34.232 4.023 -33.49 3.907 -32.48 M 7.038 -65.032 L 7.038 -65.032 C 6.9590000000000005 -63.964 7.74 -63.016 8.828 -62.918 C 9.895999999999999 -62.839 10.825999999999999 -63.638999999999996 10.924 -64.708 C 11.001 -65.776 10.200999999999999 -66.706 9.133 -66.804 C 9.094999999999999 -66.805 9.056 -66.805 9.017 -66.806 C 8.004999999999999 -66.824 7.135 -66.063 7.037999999999999 -65.032 M 9.254999999999999 -97.642 L 9.254999999999999 -97.642 C 9.197 -96.572 10.015999999999998 -95.643 11.104999999999999 -95.603 C 12.174 -95.544 13.084 -96.36399999999999 13.142999999999999 -97.43299999999999 C 13.201999999999998 -98.502 12.382 -99.43199999999999 11.293 -99.472 C 11.274 -99.491 11.254 -99.491 11.235 -99.491 C 10.184999999999999 -99.511 9.314 -98.69 9.254999999999999 -97.642 M 12.287999999999998 -132.219 C 11.216999999999999 -132.239 10.325999999999999 -131.35999999999999 10.325 -130.29 C 10.305 -129.22 11.165 -128.349 12.234 -128.32899999999998 C 13.324 -128.30899999999997 14.196 -129.18699999999998 14.216 -130.25699999999998 C 14.216999999999999 -131.32699999999997 13.376 -132.19899999999998 12.306999999999999 -132.21899999999997 z" stroke-linecap="round"/>
</g>
		<g transform="matrix(1.33 0 0 -1.33 -93.83 -46.3)" id="path226" clip-path="url(#CLIPPATH_42)">
<clipPath id="CLIPPATH_42" fill="#000000">
	<path transform="matrix(1 0 0 1 68.33 -58.43) translate(-250, -250)" id="path74" d="M 0 500 L 500 500 L 500 0 L 0 0 Z" stroke-linecap="round" fill="#000000"/>
</clipPath>
<path style="stroke: none; stroke-width: 1; stroke-dasharray: none; stroke-linecap: butt; stroke-dashoffset: 0; stroke-linejoin: miter; stroke-miterlimit: 4; fill: rgb(252,188,118); fill-rule: nonzero; opacity: 1;" vector-effect="non-scaling-stroke" transform=" translate(-6.49, -26.36)" d="M 0 0 L -6.982 11.569 L -11.421 49.299 L 12.079 55.971 L 24.349 4.714999999999996 C 25.479 -3.879 6.583 -5.639 0 0" stroke-linecap="round"/>
</g>
		<g transform="matrix(1.33 0 0 -1.33 -96.28 -60.33)" id="path230" clip-path="url(#CLIPPATH_43)">
<clipPath id="CLIPPATH_43" fill="#000000">
	<path transform="matrix(1 0 0 1 70.17 -68.95) translate(-250, -250)" id="path74" d="M 0 500 L 500 500 L 500 0 L 0 0 Z" stroke-linecap="round" fill="#000000"/>
</clipPath>
<path style="stroke: none; stroke-width: 1; stroke-dasharray: none; stroke-linecap: butt; stroke-dashoffset: 0; stroke-linejoin: miter; stroke-miterlimit: 4; fill: rgb(227,146,60); fill-rule: nonzero; opacity: 1;" vector-effect="non-scaling-stroke" transform=" translate(11.09, -18.95)" d="M 0 0 C 1.79 0.261 3.455 0.889 4.976 1.768 L -3.656999999999999 38.041000000000004 L -27.157 31.369000000000003 L -25.06 13.549000000000003 L -24.543 12.734000000000004 L -10.530999999999999 2.661000000000003 C -7.405 0.413 -3.659 -0.534 0 0" stroke-linecap="round"/>
</g>
		<g transform="matrix(1.33 0 0 -1.33 -89.8 -95.11)" id="path234" clip-path="url(#CLIPPATH_44)">
<clipPath id="CLIPPATH_44" fill="#000000">
	<path transform="matrix(1 0 0 1 65.31 -95.04) translate(-250, -250)" id="path74" d="M 0 500 L 500 500 L 500 0 L 0 0 Z" stroke-linecap="round" fill="#000000"/>
</clipPath>
<path style="stroke: none; stroke-width: 1; stroke-dasharray: none; stroke-linecap: butt; stroke-dashoffset: 0; stroke-linejoin: miter; stroke-miterlimit: 4; fill: rgb(252,188,118); fill-rule: nonzero; opacity: 1;" vector-effect="non-scaling-stroke" transform=" translate(10.94, -42.22)" d="M 0 0 L 0 0 C 6.519 0.587 11.889 5.681 13.313 12.629 L 17.572000000000003 33.397 C 18.167 36.298 18.239000000000004 39.275999999999996 17.779000000000003 42.201 C 16.073000000000004 53.04 13.727000000000004 64.644 11.261000000000003 70.788 L 10.889000000000003 73.76599999999999 C 6.374 85.017 -4.463 85.1 -15.606 84.097 C -27.837 82.996 -31.663 73.703 -32.957 60.396 L -39.815 53.537 C -40.4 47.522 -39.135 41.435 -36.217999999999996 36.227999999999994 L -26.000999999999998 16.465999999999994 C -25.453999999999997 15.408999999999994 -24.686999999999998 14.480999999999995 -23.750999999999998 13.745999999999993 L -10.369 3.237 C -7.37 0.82 -3.683 -0.332 0 0" stroke-linecap="round"/>
</g>
		<g transform="matrix(1.33 0 0 -1.33 -91.87 -117.92)" id="path238" clip-path="url(#CLIPPATH_45)">
<clipPath id="CLIPPATH_45" fill="#000000">
	<path transform="matrix(1 0 0 1 66.86 -112.15) translate(-250, -250)" id="path74" d="M 0 500 L 500 500 L 500 0 L 0 0 Z" stroke-linecap="round" fill="#000000"/>
</clipPath>
<path style="stroke: none; stroke-width: 1; stroke-dasharray: none; stroke-linecap: butt; stroke-dashoffset: 0; stroke-linejoin: miter; stroke-miterlimit: 4; fill: rgb(26,26,26); fill-rule: nonzero; opacity: 1;" vector-effect="non-scaling-stroke" transform=" translate(-20.95, -27.44)" d="M 0 0 C 0 0 4.679 21.574 3.135 30.523 C 3.135 30.523 45.867999999999995 19.125 49.861999999999995 40.257 C 49.861999999999995 40.257 54.333 54.824 39.278999999999996 54.695 C 23.839 54.563 -9.161 58.977 -8.573 32.434 C -7.822 -1.547 0 0 0 0" stroke-linecap="round"/>
</g>
		<g transform="matrix(1.33 0 0 -1.33 -120.17 -84.18)" id="path242" clip-path="url(#CLIPPATH_46)">
<clipPath id="CLIPPATH_46" fill="#000000">
	<path transform="matrix(1 0 0 1 88.08 -86.85) translate(-250, -250)" id="path74" d="M 0 500 L 500 500 L 500 0 L 0 0 Z" stroke-linecap="round" fill="#000000"/>
</clipPath>
<path style="stroke: none; stroke-width: 1; stroke-dasharray: none; stroke-linecap: butt; stroke-dashoffset: 0; stroke-linejoin: miter; stroke-miterlimit: 4; fill: rgb(252,188,118); fill-rule: nonzero; opacity: 1;" vector-effect="non-scaling-stroke" transform=" translate(5.8, 4.11)" d="M 0 0 C 2.96 -4.175 2.764 -9.401 -0.439 -11.673 C -3.6430000000000002 -13.943999999999999 -8.639 -12.4 -11.6 -8.225 C -14.561 -4.0489999999999995 -14.363999999999999 1.1769999999999996 -11.161 3.4480000000000004 C -7.958 5.719 -2.961 4.176 0 0" stroke-linecap="round"/>
</g>
		<g transform="matrix(1.33 0 0 -1.33 -101.83 -8.01)" id="path252" clip-path="url(#CLIPPATH_47)">
<clipPath id="CLIPPATH_47" fill="#000000">
	<path transform="matrix(1 0 0 1 0 0) translate(-175.67, -279.71)" id="path248" clip-path="url(#undefined)" d="M 158.722 291.642 L 192.616 291.642 L 192.616 267.779 L 158.722 267.779 z" stroke-linecap="round" fill="#000000"/>
</clipPath>
<path style="stroke: none; stroke-width: 1; stroke-dasharray: none; stroke-linecap: butt; stroke-dashoffset: 0; stroke-linejoin: miter; stroke-miterlimit: 4; fill: rgb(112,112,112); fill-rule: nonzero; opacity: 0.669998;" vector-effect="non-scaling-stroke" transform=" translate(-16.95, 11.93)" d="M 0 0 L 20.95 -23.863 L 33.894 -12.107 z" stroke-linecap="round"/>
</g>
		<g transform="matrix(1.33 0 0 -1.33 -64.71 -10.97)" id="path268" clip-path="url(#CLIPPATH_48)">
<clipPath id="CLIPPATH_48" fill="#000000">
	<path transform="matrix(1 0 0 1 0 0) translate(-203.51, -281.93)" id="path264" clip-path="url(#undefined)" d="M 200.466 290.213 L 206.553 290.213 L 206.553 273.653 L 200.466 273.653 z" stroke-linecap="round" fill="#000000"/>
</clipPath>
<path style="stroke: none; stroke-width: 1; stroke-dasharray: none; stroke-linecap: butt; stroke-dashoffset: 0; stroke-linejoin: miter; stroke-miterlimit: 4; fill: rgb(112,112,112); fill-rule: nonzero; opacity: 0.669998;" vector-effect="non-scaling-stroke" transform=" translate(3.04, 8.28)" d="M 0 0 L -6.088 -16.49 L -3.0380000000000003 -16.56 z" stroke-linecap="round"/>
</g>
		<g transform="matrix(1.33 0 0 -1.33 -78.41 -0.68)" id="path284" clip-path="url(#CLIPPATH_49)">
<clipPath id="CLIPPATH_49" fill="#000000">
	<path transform="matrix(1 0 0 1 0 0) translate(-193.23, -274.22)" id="path280" clip-path="url(#undefined)" d="M 185.331 279.535 L 201.137 279.535 L 201.137 268.90200000000004 L 185.331 268.90200000000004 z" stroke-linecap="round" fill="#000000"/>
</clipPath>
<path style="stroke: none; stroke-width: 1; stroke-dasharray: none; stroke-linecap: butt; stroke-dashoffset: 0; stroke-linejoin: miter; stroke-miterlimit: 4; fill: rgb(112,112,112); fill-rule: nonzero; opacity: 0.669998;" vector-effect="non-scaling-stroke" transform=" translate(-0.62, 5.32)" d="M 0 0 L -7.285 -10.633 L 0.7599999999999998 -2.7169999999999987 L 8.521 -7.236999999999998 z" stroke-linecap="round"/>
</g>
		<g transform="matrix(1.33 0 0 -1.33 -71.1 -29.36)" id="path294" clip-path="url(#CLIPPATH_50)">
<clipPath id="CLIPPATH_50" fill="#000000">
	<path transform="matrix(1 0 0 1 51.28 -45.72) translate(-250, -250)" id="path74" d="M 0 500 L 500 500 L 500 0 L 0 0 Z" stroke-linecap="round" fill="#000000"/>
</clipPath>
<path style="stroke: none; stroke-width: 1; stroke-dasharray: none; stroke-linecap: butt; stroke-dashoffset: 0; stroke-linejoin: miter; stroke-miterlimit: 4; fill: rgb(173,173,173); fill-rule: nonzero; opacity: 1;" vector-effect="non-scaling-stroke" transform=" translate(-2.34, 4.03)" d="M 0 0 L 4.675 -0.104 L 1.606 -8.059 Z" stroke-linecap="round"/>
</g>
		<g transform="matrix(1.33 0 0 -1.33 -69.94 -16.25)" id="path298" clip-path="url(#CLIPPATH_51)">
<clipPath id="CLIPPATH_51" fill="#000000">
	<path transform="matrix(1 0 0 1 50.41 -35.89) translate(-250, -250)" id="path74" d="M 0 500 L 500 500 L 500 0 L 0 0 Z" stroke-linecap="round" fill="#000000"/>
</clipPath>
<path style="stroke: none; stroke-width: 1; stroke-dasharray: none; stroke-linecap: butt; stroke-dashoffset: 0; stroke-linejoin: miter; stroke-miterlimit: 4; fill: rgb(255,255,255); fill-rule: nonzero; opacity: 1;" vector-effect="non-scaling-stroke" transform=" translate(1.47, 13.76)" d="M 0 0 L 5.498 -9.438 L 0.3130000000000006 -27.512999999999998 L -8.439 -20.115 z" stroke-linecap="round"/>
</g>
		<g transform="matrix(1.33 0 0 -1.33 -115.93 -35.03)" id="path302" clip-path="url(#CLIPPATH_52)">
<clipPath id="CLIPPATH_52" fill="#000000">
	<path transform="matrix(1 0 0 1 84.91 -49.98) translate(-250, -250)" id="path74" d="M 0 500 L 500 500 L 500 0 L 0 0 Z" stroke-linecap="round" fill="#000000"/>
</clipPath>
<path style="stroke: none; stroke-width: 1; stroke-dasharray: none; stroke-linecap: butt; stroke-dashoffset: 0; stroke-linejoin: miter; stroke-miterlimit: 4; fill: rgb(173,173,173); fill-rule: nonzero; opacity: 1;" vector-effect="non-scaling-stroke" transform=" translate(2.2, 1.82)" d="M 0 0 L -4.761 -0.07 C -4.22 -0.396 0.352 -3.649 0.352 -3.649 Z" stroke-linecap="round"/>
</g>
		<g transform="matrix(1.33 0 0 -1.33 -101.96 -15.48)" id="path306" clip-path="url(#CLIPPATH_53)">
<clipPath id="CLIPPATH_53" fill="#000000">
	<path transform="matrix(1 0 0 1 74.43 -35.32) translate(-250, -250)" id="path74" d="M 0 500 L 500 500 L 500 0 L 0 0 Z" stroke-linecap="round" fill="#000000"/>
</clipPath>
<path style="stroke: none; stroke-width: 1; stroke-dasharray: none; stroke-linecap: butt; stroke-dashoffset: 0; stroke-linejoin: miter; stroke-miterlimit: 4; fill: rgb(255,255,255); fill-rule: nonzero; opacity: 1;" vector-effect="non-scaling-stroke" transform=" translate(-13.03, 16.41)" d="M 0 0 L -4.013 -10.279 L 22.796 -32.828 L 30.081 -22.194 L 4.81 -3.349" stroke-linecap="round"/>
</g>
		<g transform="matrix(1.33 0 0 -1.33 -103.45 103.39)" id="path316" clip-path="url(#CLIPPATH_54)">
<clipPath id="CLIPPATH_54" fill="#000000">
	<path transform="matrix(1 0 0 1 0 0) translate(-174.46, -196.16)" id="path312" clip-path="url(#undefined)" d="M 107.551 276.924 L 241.364 276.924 L 241.364 115.398 L 107.551 115.398 Z" stroke-linecap="round" fill="#000000"/>
</clipPath>
<path style="stroke: none; stroke-width: 1; stroke-dasharray: none; stroke-linecap: butt; stroke-dashoffset: 0; stroke-linejoin: miter; stroke-miterlimit: 4; fill: rgb(112,112,112); fill-rule: nonzero; opacity: 0.419998;" vector-effect="non-scaling-stroke" transform=" translate(48.2, -38.66)" d="M 0 0 L -85.877 1.987 C -86.237 23.331000000000003 -85.42699999999999 73.288 -90.814 95.67099999999999 C -90.814 95.67099999999999 -94.098 121.761 -103.39099999999999 119.255 L -114.84899999999999 44.327 L -115.106 -36.581 L -106.067 -22.405 C -99.24699999999999 -31.385 -79.905 -43.129000000000005 -68.77499999999999 -42.028999999999996 C -10.10499999999999 -36.232 18.707000000000008 -16.027999999999995 18.707000000000008 -16.027999999999995 z" stroke-linecap="round"/>
</g>
		<g transform="matrix(1.33 0 0 -1.33 -170.16 29.66)" id="path326" clip-path="url(#CLIPPATH_55)">
<clipPath id="CLIPPATH_55" fill="#000000">
	<path transform="matrix(1 0 0 1 125.57 -1.46) translate(-250, -250)" id="path74" d="M 0 500 L 500 500 L 500 0 L 0 0 Z" stroke-linecap="round" fill="#000000"/>
</clipPath>
<path style="stroke: none; stroke-width: 1; stroke-dasharray: none; stroke-linecap: butt; stroke-dashoffset: 0; stroke-linejoin: miter; stroke-miterlimit: 4; fill: rgb(173,173,173); fill-rule: nonzero; opacity: 1;" vector-effect="non-scaling-stroke" transform=" translate(-1.44, 27.44)" d="M 0 0 C 1.175 -0.683 1.509 -1.946 1.946 -3.032 C 2.32 -4.162 2.63 -5.314 2.867 -6.471 C 3.292 -8.796 3.5060000000000002 -11.129999999999999 3.7 -13.464 C 3.899 -15.795 3.859 -18.135 3.8240000000000003 -20.457 C 3.8000000000000003 -22.786 3.733 -25.109 3.611 -27.427 C 3.4330000000000003 -29.744 3.1780000000000004 -32.048 2.9320000000000004 -34.353 C 2.6780000000000004 -36.657000000000004 2.4810000000000003 -38.965 2.0410000000000004 -41.245000000000005 C 1.6500000000000004 -43.531000000000006 1.2880000000000003 -45.818000000000005 0.8340000000000003 -48.092000000000006 C 0.29100000000000026 -50.355000000000004 -0.14099999999999968 -52.63000000000001 -0.7829999999999997 -54.87500000000001 L -0.9759999999999998 -54.851000000000006 C -0.45899999999999974 -50.266000000000005 0.11700000000000021 -45.687000000000005 0.5390000000000001 -41.093 C 1.0090000000000001 -36.503 1.391 -31.904000000000003 1.6720000000000002 -27.301000000000002 C 2.021 -22.702 2.18 -18.091 2.185 -13.482000000000001 C 2.154 -11.179000000000002 2.092 -8.873000000000001 1.844 -6.584000000000001 C 1.737 -5.4380000000000015 1.5590000000000002 -4.302000000000001 1.318 -3.1800000000000015 C 1.1680000000000001 -2.6280000000000014 1.053 -2.0630000000000015 0.8270000000000001 -1.5400000000000016 C 0.645 -1.0220000000000016 0.3460000000000001 -0.4510000000000016 -0.04599999999999993 -0.1890000000000016 z" stroke-linecap="round"/>
</g>
		<g transform="matrix(1.33 0 0 -1.33 -155.32 89.84)" id="path330" clip-path="url(#CLIPPATH_56)">
<clipPath id="CLIPPATH_56" fill="#000000">
	<path transform="matrix(1 0 0 1 114.45 43.68) translate(-250, -250)" id="path74" d="M 0 500 L 500 500 L 500 0 L 0 0 Z" stroke-linecap="round" fill="#000000"/>
</clipPath>
<path style="stroke: none; stroke-width: 1; stroke-dasharray: none; stroke-linecap: butt; stroke-dashoffset: 0; stroke-linejoin: miter; stroke-miterlimit: 4; fill: rgb(173,173,173); fill-rule: nonzero; opacity: 1;" vector-effect="non-scaling-stroke" transform=" translate(-0.15, -2.32)" d="M 0 0 L 0.303 4.644 C 0.178 3.138 0.083 1.579 0 0" stroke-linecap="round"/>
</g>
		<g transform="matrix(1.33 0 0 -1.33 -182.67 60.48)" id="path334" clip-path="url(#CLIPPATH_57)">
<clipPath id="CLIPPATH_57" fill="#000000">
	<path transform="matrix(1 0 0 1 134.96 21.65) translate(-250, -250)" id="path74" d="M 0 500 L 500 500 L 500 0 L 0 0 Z" stroke-linecap="round" fill="#000000"/>
</clipPath>
<path style="stroke: none; stroke-width: 1; stroke-dasharray: none; stroke-linecap: butt; stroke-dashoffset: 0; stroke-linejoin: miter; stroke-miterlimit: 4; fill: rgb(255,255,255); fill-rule: nonzero; opacity: 1;" vector-effect="non-scaling-stroke" transform=" translate(16.99, -32.86)" d="M 0 0 C -1.16 11.396 6.033 37.017 -0.289 63.284 C -0.289 63.284 8.133000000000001 92.542 -15.809 85.269 C -22.704 83.17500000000001 -32.42 49.60900000000001 -33.574999999999996 36.279 L -35.979 1.203 C -37.135999999999996 -7.902 -35.071 -11.577 -34.173 -20.712" stroke-linecap="round"/>
</g>
		<g transform="matrix(1.33 0 0 -1.33 -172.27 155.2)" id="path338" clip-path="url(#CLIPPATH_58)">
<clipPath id="CLIPPATH_58" fill="#000000">
	<path transform="matrix(1 0 0 1 127.16 92.69) translate(-250, -250)" id="path74" d="M 0 500 L 500 500 L 500 0 L 0 0 Z" stroke-linecap="round" fill="#000000"/>
</clipPath>
<path style="stroke: none; stroke-width: 1; stroke-dasharray: none; stroke-linecap: butt; stroke-dashoffset: 0; stroke-linejoin: miter; stroke-miterlimit: 4; fill: rgb(252,188,118); fill-rule: nonzero; opacity: 1;" vector-effect="non-scaling-stroke" transform=" translate(-24.99, 17.47)" d="M 0 0 L 5.312 -48.569 C 5.761 -51.235 7.784000000000001 -55.569 10.486 -55.645 L 49.971999999999994 -53.815000000000005 C 49.971999999999994 -53.815000000000005 36.59199999999999 -3.0450000000000017 34.172999999999995 20.711999999999996" stroke-linecap="round"/>
</g>
		<g transform="matrix(1.33 0 0 -1.33 -107.67 174.35)" id="path342" clip-path="url(#CLIPPATH_59)">
<clipPath id="CLIPPATH_59" fill="#000000">
	<path transform="matrix(1 0 0 1 78.71 107.06) translate(-250, -250)" id="path74" d="M 0 500 L 500 500 L 500 0 L 0 0 Z" stroke-linecap="round" fill="#000000"/>
</clipPath>
<path style="stroke: none; stroke-width: 1; stroke-dasharray: none; stroke-linecap: butt; stroke-dashoffset: 0; stroke-linejoin: miter; stroke-miterlimit: 4; fill: rgb(252,188,118); fill-rule: nonzero; opacity: 1;" vector-effect="non-scaling-stroke" transform=" translate(-51.75, -7.45)" d="M 0 0 L 13.267 29.679 L 103.014 27.601999999999997 L 103.759 -1.951000000000004 C 103.759 -1.951 -6.323 -32.096 0 0" stroke-linecap="round"/>
</g>
		<g transform="matrix(1.33 0 0 -1.33 -73.9 165.52)" id="path346" clip-path="url(#CLIPPATH_60)">
<clipPath id="CLIPPATH_60" fill="#000000">
	<path transform="matrix(1 0 0 1 53.38 100.43) translate(-250, -250)" id="path74" d="M 0 500 L 500 500 L 500 0 L 0 0 Z" stroke-linecap="round" fill="#000000"/>
</clipPath>
<path style="stroke: none; stroke-width: 1; stroke-dasharray: none; stroke-linecap: butt; stroke-dashoffset: 0; stroke-linejoin: miter; stroke-miterlimit: 4; fill: rgb(227,146,60); fill-rule: nonzero; opacity: 1;" vector-effect="non-scaling-stroke" transform=" translate(-36.37, 14.97)" d="M 0 0 L -8.933 1.123 C -8.933 1.123 59.148999999999994 -32.979 63.532000000000004 -30.984999999999996 C 72.67500000000001 -26.824999999999996 81.671 -21.544999999999995 81.671 -21.544999999999995 L 62.305 -1.442 Z" stroke-linecap="round"/>
</g>
		<g transform="matrix(1.33 0 0 -1.33 -138.03 135.56)" id="path350" clip-path="url(#CLIPPATH_61)">
<clipPath id="CLIPPATH_61" fill="#000000">
	<path transform="matrix(1 0 0 1 101.48 77.96) translate(-250, -250)" id="path74" d="M 0 500 L 500 500 L 500 0 L 0 0 Z" stroke-linecap="round" fill="#000000"/>
</clipPath>
<path style="stroke: none; stroke-width: 1; stroke-dasharray: none; stroke-linecap: butt; stroke-dashoffset: 0; stroke-linejoin: miter; stroke-miterlimit: 4; fill: rgb(252,188,118); fill-rule: nonzero; opacity: 1;" vector-effect="non-scaling-stroke" transform=" translate(11.29, 7.45)" d="M 0 0 C 0 0 -7.825 -0.145 -10.845 -0.705 C -13.864 -1.266 -22.58 -14.426 -22.58 -14.426 L -5.059999999999999 -14.891 z" stroke-linecap="round"/>
</g>
		<g transform="matrix(1.33 0 0 -1.33 -62.42 149.59)" id="path354" clip-path="url(#CLIPPATH_62)">
<clipPath id="CLIPPATH_62" fill="#000000">
	<path transform="matrix(1 0 0 1 44.77 88.48) translate(-250, -250)" id="path74" d="M 0 500 L 500 500 L 500 0 L 0 0 Z" stroke-linecap="round" fill="#000000"/>
</clipPath>
<path style="stroke: none; stroke-width: 1; stroke-dasharray: none; stroke-linecap: butt; stroke-dashoffset: 0; stroke-linejoin: miter; stroke-miterlimit: 4; fill: rgb(252,188,118); fill-rule: nonzero; opacity: 1;" vector-effect="non-scaling-stroke" transform=" translate(53.15, -8.74)" d="M 0 0 L -5.142 28.382 L -98.569 26.708000000000002 L -106.50800000000001 12.232000000000001 C -106.508 12.232 5.646 -30.306 0 0" stroke-linecap="round"/>
</g>
		<g transform="matrix(1.33 0 0 -1.33 -184.51 116.99)" id="path358" clip-path="url(#CLIPPATH_63)">
<clipPath id="CLIPPATH_63" fill="#000000">
	<path transform="matrix(1 0 0 1 136.34 64.04) translate(-250, -250)" id="path74" d="M 0 500 L 500 500 L 500 0 L 0 0 Z" stroke-linecap="round" fill="#000000"/>
</clipPath>
<path style="stroke: none; stroke-width: 1; stroke-dasharray: none; stroke-linecap: butt; stroke-dashoffset: 0; stroke-linejoin: miter; stroke-miterlimit: 4; fill: rgb(255,255,255); fill-rule: nonzero; opacity: 1;" vector-effect="non-scaling-stroke" transform=" translate(24.34, 13.8)" d="M 0 0 C 0 0 -31.255 11.124 -50.078 -9.945 L -46.169000000000004 -28.782 L -44.074000000000005 -29.193 C -28.670000000000005 -32.221000000000004 -12.699000000000005 -30.115000000000002 1.394999999999996 -23.200000000000003 z" stroke-linecap="round"/>
</g>
		<g transform="matrix(1.33 0 0 -1.33 -185.8 108.51)" id="path362" clip-path="url(#CLIPPATH_64)">
<clipPath id="CLIPPATH_64" fill="#000000">
	<path transform="matrix(1 0 0 1 137.31 57.67) translate(-250, -250)" id="path74" d="M 0 500 L 500 500 L 500 0 L 0 0 Z" stroke-linecap="round" fill="#000000"/>
</clipPath>
<path style="stroke: none; stroke-width: 1; stroke-dasharray: none; stroke-linecap: butt; stroke-dashoffset: 0; stroke-linejoin: miter; stroke-miterlimit: 4; fill: rgb(173,173,173); fill-rule: nonzero; opacity: 1;" vector-effect="non-scaling-stroke" transform=" translate(20.98, 1.55)" d="M 0 0 C 0 0 -7.155 -5.047 -19.008 -6.691 C -30.860999999999997 -8.337 -43.179 -6.388 -41.87 -3.8009999999999997 C -40.562 -1.2129999999999996 -40.146 -2.258 -40.146 -2.258 L -38.898 -5.3919999999999995 C -38.898 -5.3919999999999995 -14.372000000000003 -7.09 -2.2720000000000056 -0.007999999999999119 L -2.2350000000000056 4.203000000000001 C -2.2350000000000056 4.203000000000001 -0.22900000000000587 3.715000000000001 -5.773159728050814e-15 8.881784197001252e-16" stroke-linecap="round"/>
</g>
		<g transform="matrix(1.33 0 0 -1.33 -15.95 73.13)" id="path366" clip-path="url(#CLIPPATH_65)">
<clipPath id="CLIPPATH_65" fill="#000000">
	<path transform="matrix(1 0 0 1 9.92 31.14) translate(-250, -250)" id="path74" d="M 0 500 L 500 500 L 500 0 L 0 0 Z" stroke-linecap="round" fill="#000000"/>
</clipPath>
<path style="stroke: none; stroke-width: 1; stroke-dasharray: none; stroke-linecap: butt; stroke-dashoffset: 0; stroke-linejoin: miter; stroke-miterlimit: 4; fill: rgb(173,173,173); fill-rule: nonzero; opacity: 1;" vector-effect="non-scaling-stroke" transform=" translate(-3.35, 25.18)" d="M 0 0 C 1.205 -3.896 2.108 -7.934 2.903 -12.021 C 3.331 -14.05 3.645 -16.133000000000003 4.015000000000001 -18.188000000000002 C 4.345000000000001 -20.264000000000003 4.643000000000001 -22.353 4.954000000000001 -24.437 C 5.211 -26.546 5.493 -28.643 5.729000000000001 -30.761000000000003 C 5.933000000000001 -32.895 6.188000000000001 -35.004000000000005 6.334000000000001 -37.165000000000006 C 6.684000000000001 -41.459 6.928000000000002 -45.80200000000001 6.872000000000002 -50.284000000000006 L 6.693000000000001 -50.367000000000004 L 3.1680000000000015 -25.267000000000003 L -0.1789999999999985 -0.08300000000000196 z" stroke-linecap="round"/>
</g>
		<g transform="matrix(1.33 0 0 -1.33 -14.23 125.89)" id="path370" clip-path="url(#CLIPPATH_66)">
<clipPath id="CLIPPATH_66" fill="#000000">
	<path transform="matrix(1 0 0 1 8.63 70.71) translate(-250, -250)" id="path74" d="M 0 500 L 500 500 L 500 0 L 0 0 Z" stroke-linecap="round" fill="#000000"/>
</clipPath>
<path style="stroke: none; stroke-width: 1; stroke-dasharray: none; stroke-linecap: butt; stroke-dashoffset: 0; stroke-linejoin: miter; stroke-miterlimit: 4; fill: rgb(252,188,118); fill-rule: nonzero; opacity: 1;" vector-effect="non-scaling-stroke" transform=" translate(-22.67, 1.22)" d="M 0 0 C 0 0 19.475 13.785 31.729 14.012 L 45.347 3.64 L 43.679 -16.456 L 29.273 -1.312 Z" stroke-linecap="round"/>
</g>
		<g transform="matrix(1.33 0 0 -1.33 -161.6 14.62)" id="path374" clip-path="url(#CLIPPATH_67)">
<clipPath id="CLIPPATH_67" fill="#000000">
	<path transform="matrix(1 0 0 1 119.16 -12.74) translate(-250, -250)" id="path74" d="M 0 500 L 500 500 L 500 0 L 0 0 Z" stroke-linecap="round" fill="#000000"/>
</clipPath>
<path style="stroke: none; stroke-width: 1; stroke-dasharray: none; stroke-linecap: butt; stroke-dashoffset: 0; stroke-linejoin: miter; stroke-miterlimit: 4; fill: rgb(173,173,173); fill-rule: nonzero; opacity: 1;" vector-effect="non-scaling-stroke" transform=" translate(-5.06, 19.78)" d="M 0 0 C 2.065 -2.815 3.691 -5.911 5.005 -9.11 C 6.354 -12.302 7.3870000000000005 -15.611999999999998 8.25 -18.96 C 9.01 -22.332 9.725 -25.721 9.971 -29.177 C 10.137 -30.896 10.203 -32.626 10.291 -34.348 C 10.251000000000001 -36.083999999999996 10.252 -37.81 10.079 -39.542 L 9.886000000000001 -39.561 C 9.511000000000001 -36.17 9.087000000000002 -32.785 8.483 -29.429000000000002 C 7.929 -26.064 7.168000000000001 -22.739 6.363 -19.428000000000004 C 5.554 -16.117000000000004 4.621 -12.837000000000003 3.5510000000000006 -9.601000000000004 C 2.4720000000000004 -6.3700000000000045 1.2850000000000006 -3.1630000000000047 -0.1729999999999996 -0.08800000000000452 z" stroke-linecap="round"/>
</g>
		<g transform="matrix(1.33 0 0 -1.33 -180.3 54.03)" id="path378" clip-path="url(#CLIPPATH_68)">
<clipPath id="CLIPPATH_68" fill="#000000">
	<path transform="matrix(1 0 0 1 133.18 16.82) translate(-250, -250)" id="path74" d="M 0 500 L 500 500 L 500 0 L 0 0 Z" stroke-linecap="round" fill="#000000"/>
</clipPath>
<path style="stroke: none; stroke-width: 1; stroke-dasharray: none; stroke-linecap: butt; stroke-dashoffset: 0; stroke-linejoin: miter; stroke-miterlimit: 4; fill: rgb(173,173,173); fill-rule: nonzero; opacity: 1;" vector-effect="non-scaling-stroke" transform=" translate(-0.8, 41.17)" d="M 0 0 L -0.684 -20.945 C -0.8800000000000001 -27.914 -1.1320000000000001 -34.874 -1.077 -41.831 C -1.192 -48.783 -1.028 -55.737 -0.5559999999999999 -62.633 C -0.32599999999999996 -66.08200000000001 0.026000000000000023 -69.522 0.658 -72.875 C 1.248 -76.227 2.142 -79.561 3.9419999999999997 -82.237 L 3.8569999999999998 -82.356 C 1.835 -79.84899999999999 0.7859999999999996 -76.44 0.0129999999999999 -73.098 C -0.7440000000000001 -69.716 -1.1960000000000002 -66.246 -1.536 -62.771 C -2.2030000000000003 -55.812 -2.362 -48.8 -2.347 -41.808 C -2.308 -34.812 -2.052 -27.823999999999998 -1.672 -20.851 C -1.287 -13.878 -0.7879999999999999 -6.917 -0.1259999999999999 0.021000000000000796 z" stroke-linecap="round"/>
</g>
		<g transform="matrix(1.33 0 0 -1.33 -121.81 -85.23)" id="path382" clip-path="url(#CLIPPATH_69)">
<clipPath id="CLIPPATH_69" fill="#000000">
	<path transform="matrix(1 0 0 1 89.32 -87.63) translate(-250, -250)" id="path74" d="M 0 500 L 500 500 L 500 0 L 0 0 Z" stroke-linecap="round" fill="#000000"/>
</clipPath>
<path style="stroke: rgb(227,146,60); stroke-width: 1; stroke-dasharray: none; stroke-linecap: round; stroke-dashoffset: 0; stroke-linejoin: miter; stroke-miterlimit: 10; fill: none; fill-rule: nonzero; opacity: 1;" vector-effect="non-scaling-stroke" transform=" translate(-3.28, 1.86)" d="M 0 0 C 0 0 4.816 1.435 6.559 -3.894" stroke-linecap="round"/>
</g>
		<g transform="matrix(1.33 0 0 -1.33 -121.68 -84.77)" id="path386" clip-path="url(#CLIPPATH_70)">
<clipPath id="CLIPPATH_70" fill="#000000">
	<path transform="matrix(1 0 0 1 89.22 -87.28) translate(-250, -250)" id="path74" d="M 0 500 L 500 500 L 500 0 L 0 0 Z" stroke-linecap="round" fill="#000000"/>
</clipPath>
<path style="stroke: rgb(227,146,60); stroke-width: 1; stroke-dasharray: none; stroke-linecap: round; stroke-dashoffset: 0; stroke-linejoin: miter; stroke-miterlimit: 10; fill: none; fill-rule: nonzero; opacity: 1;" vector-effect="non-scaling-stroke" transform=" translate(-0.97, -1.44)" d="M 0 0 L 1.947 2.87" stroke-linecap="round"/>
</g>
		<g transform="matrix(1.33 0 0 -1.33 -46.17 -5.45)" id="path390" clip-path="url(#CLIPPATH_71)">
<clipPath id="CLIPPATH_71" fill="#000000">
	<path transform="matrix(1 0 0 1 32.59 -27.79) translate(-250, -250)" id="path74" d="M 0 500 L 500 500 L 500 0 L 0 0 Z" stroke-linecap="round" fill="#000000"/>
</clipPath>
<path style="stroke: none; stroke-width: 1; stroke-dasharray: none; stroke-linecap: butt; stroke-dashoffset: 0; stroke-linejoin: miter; stroke-miterlimit: 4; fill:#226f15; fill-rule: nonzero; opacity: 1;" vector-effect="non-scaling-stroke" transform=" translate(11.58, -15.59)" d="M 0 0 C -5.309 22.887 -23.148 29.473 -23.332 29.541 L -24.278000000000002 31.172 C -24.021 31.123 -4.33 23.743 1.118 0.259 Z" stroke-linecap="round"/>
</g>
		<g transform="matrix(1.33 0 0 -1.33 -31.34 29.07)" id="path394" clip-path="url(#CLIPPATH_72)">
<clipPath id="CLIPPATH_72" fill="#000000">
	<path transform="matrix(1 0 0 1 21.46 -1.9) translate(-250, -250)" id="path74" d="M 0 500 L 500 500 L 500 0 L 0 0 Z" stroke-linecap="round" fill="#000000"/>
</clipPath>
<path style="stroke: none; stroke-width: 1; stroke-dasharray: none; stroke-linecap: butt; stroke-dashoffset: 0; stroke-linejoin: miter; stroke-miterlimit: 4; fill: rgb(201,201,201); fill-rule: nonzero; opacity: 1;" vector-effect="non-scaling-stroke" transform=" translate(0.23, -9.95)" d="M 0 0 C -2.639 0.346 -5.013 1.656 -6.72 3.717 C -8.51 5.881 -9.352 8.612 -9.088 11.408 C -8.742999999999999 15.082999999999998 -6.443999999999999 18.348 -3.0889999999999995 19.929000000000002 C -2.8329999999999993 20.049000000000003 -2.526 19.965000000000003 -2.3699999999999997 19.73 C -2.211 19.495 -2.2489999999999997 19.18 -2.4579999999999997 18.988 C -4.172 17.413 -5.234999999999999 15.277999999999999 -5.452999999999999 12.977 C -5.937 7.834 -2.14 3.266 2.995 2.774 L 2.996 2.774 C 4.653 2.618 6.332 2.914 7.852 3.631 C 8.109 3.751 8.415 3.666 8.572 3.432 C 8.73 3.196 8.693 2.881 8.484 2.689 C 6.29 0.675 3.341 -0.322 0.394 -0.045 C 0.262 -0.032 0.13 -0.018 0 0" stroke-linecap="round"/>
</g>
		<g transform="matrix(1.33 0 0 -1.33 -31.34 29.07)" id="path398" clip-path="url(#CLIPPATH_73)">
<clipPath id="CLIPPATH_73" fill="#000000">
	<path transform="matrix(1 0 0 1 21.46 -1.9) translate(-250, -250)" id="path74" d="M 0 500 L 500 500 L 500 0 L 0 0 Z" stroke-linecap="round" fill="#000000"/>
</clipPath>
<path style="stroke: none; stroke-width: 1; stroke-dasharray: none; stroke-linecap: butt; stroke-dashoffset: 0; stroke-linejoin: miter; stroke-miterlimit: 4; fill:#62ab4f; fill-rule: nonzero; opacity: 1;" vector-effect="non-scaling-stroke" transform=" translate(0.23, -9.95)" d="M 0 0 C -2.639 0.346 -5.013 1.656 -6.72 3.717 C -8.51 5.881 -9.352 8.612 -9.088 11.408 C -8.742999999999999 15.082999999999998 -6.443999999999999 18.348 -3.0889999999999995 19.929000000000002 C -2.8329999999999993 20.049000000000003 -2.526 19.965000000000003 -2.3699999999999997 19.73 C -2.211 19.495 -2.2489999999999997 19.18 -2.4579999999999997 18.988 C -4.172 17.413 -5.234999999999999 15.277999999999999 -5.452999999999999 12.977 C -5.937 7.834 -2.14 3.266 2.995 2.774 L 2.996 2.774 C 4.653 2.618 6.332 2.914 7.852 3.631 C 8.109 3.751 8.415 3.666 8.572 3.432 C 8.73 3.196 8.693 2.881 8.484 2.689 C 6.29 0.675 3.341 -0.322 0.394 -0.045 C 0.262 -0.032 0.13 -0.018 0 0" stroke-linecap="round"/>
</g>
		<g transform="matrix(1.33 0 0 -1.33 -27.31 27.31)" id="path402" clip-path="url(#CLIPPATH_74)">
<clipPath id="CLIPPATH_74" fill="#000000">
	<path transform="matrix(1 0 0 1 18.44 -3.22) translate(-250, -250)" id="path74" d="M 0 500 L 500 500 L 500 0 L 0 0 Z" stroke-linecap="round" fill="#000000"/>
</clipPath>
<path style="stroke: none; stroke-width: 1; stroke-dasharray: none; stroke-linecap: butt; stroke-dashoffset: 0; stroke-linejoin: miter; stroke-miterlimit: 4; fill:#226f15; fill-rule: nonzero; opacity: 1;" vector-effect="non-scaling-stroke" transform=" translate(-1.37, -10.42)" d="M 0 0 C -5.573 0.731 -9.625 5.766 -9.094 11.407 C -8.549999999999999 17.179000000000002 -3.4129999999999994 21.433 2.3580000000000005 20.89 C 8.132000000000001 20.361 12.384 15.209 11.841000000000001 9.438 L 11.841000000000001 9.438 C 11.297 3.666 6.16 -0.587 0.389 -0.044 C 0.259 -0.032 0.129 -0.018 0 0" stroke-linecap="round"/>
</g>
		<g transform="matrix(1.33 0 0 -1.33 -27.31 27.31)" id="path406" clip-path="url(#CLIPPATH_75)">
<clipPath id="CLIPPATH_75" fill="#000000">
	<path transform="matrix(1 0 0 1 18.44 -3.22) translate(-250, -250)" id="path74" d="M 0 500 L 500 500 L 500 0 L 0 0 Z" stroke-linecap="round" fill="#000000"/>
</clipPath>
<path style="stroke: none; stroke-width: 1; stroke-dasharray: none; stroke-linecap: butt; stroke-dashoffset: 0; stroke-linejoin: miter; stroke-miterlimit: 4; fill:#62ab4f; fill-rule: nonzero; opacity: 1;" vector-effect="non-scaling-stroke" transform=" translate(-1.01, -7.65)" d="M 0 0 C -4.089 0.536 -7.062 4.23 -6.672 8.37 C -6.273 12.605 -2.5039999999999996 15.725999999999999 1.7299999999999995 15.328 C 5.967 14.939 9.087 11.16 8.687999999999999 6.924999999999999 L 8.687999999999999 6.924999999999999 C 8.29 2.689 4.52 -0.431 0.285 -0.032 C 0.19 -0.023 0.095 -0.013 0 0" stroke-linecap="round"/>
</g>
		<g transform="matrix(1.33 0 0 -1.33 -150.36 76.35)" id="path410" clip-path="url(#CLIPPATH_76)">
<clipPath id="CLIPPATH_76" fill="#000000">
	<path transform="matrix(1 0 0 1 110.73 33.56) translate(-250, -250)" id="path74" d="M 0 500 L 500 500 L 500 0 L 0 0 Z" stroke-linecap="round" fill="#000000"/>
</clipPath>
<path style="stroke: none; stroke-width: 1; stroke-dasharray: none; stroke-linecap: butt; stroke-dashoffset: 0; stroke-linejoin: miter; stroke-miterlimit: 4; fill:#226f15; fill-rule: nonzero; opacity: 1;" vector-effect="non-scaling-stroke" transform=" translate(-8.19, -33.85)" d="M 0 0 L -5.979 0.572 C -8.314 0.7959999999999999 -10.417 1.92 -11.899000000000001 3.737 C -13.381 5.554 -14.06 7.839 -13.81 10.17 L -8.544 59.222 C -7.729000000000001 63.706 -4.315 66.977 0.15799999999999947 67.595 C 4.627 68.212 8.804 65.992 10.789 61.936 L 29.588 15.748 C 30.536 13.421 30.432 10.798 29.302 8.554 C 28.173 6.308 26.129 4.66 23.695 4.034 L 19.384 2.923 L 19.098 4.033 L 23.41 5.1450000000000005 C 25.523 5.688000000000001 27.297 7.119000000000001 28.278 9.068000000000001 C 29.258 11.019000000000002 29.349 13.295000000000002 28.526 15.316000000000003 L 9.743 61.468 C 7.996 65.034 4.289 67.009 0.315 66.459 C -3.659 65.91 -6.691 63.005 -7.41 59.058 L -12.669 10.048000000000002 C -12.887 8.023 -12.298 6.04 -11.011 4.462 C -9.723 2.884 -7.897 1.908 -5.87 1.715 L 0.109 1.143 Z" stroke-linecap="round"/>
</g>
		<g transform="matrix(1.33 0 0 -1.33 -135.2 117.06)" id="path414" clip-path="url(#CLIPPATH_77)">
<clipPath id="CLIPPATH_77" fill="#000000">
	<path transform="matrix(1 0 0 1 99.36 64.09) translate(-250, -250)" id="path74" d="M 0 500 L 500 500 L 500 0 L 0 0 Z" stroke-linecap="round" fill="#000000"/>
</clipPath>
<path style="stroke: none; stroke-width: 1; stroke-dasharray: none; stroke-linecap: butt; stroke-dashoffset: 0; stroke-linejoin: miter; stroke-miterlimit: 4; fill:#226f15; fill-rule: nonzero; opacity: 1;" vector-effect="non-scaling-stroke" transform=" translate(-2.71, -0.21)" d="M 0 0 C -0.113 1.499 1.01 2.806 2.508 2.919 C 4.007 3.032 5.314 1.909 5.427 0.41 C 5.541 -1.088 4.417 -2.395 2.919 -2.508 C 1.42 -2.621 0.113 -1.498 0 0" stroke-linecap="round"/>
</g>
		<g transform="matrix(1.33 0 0 -1.33 -161.08 120.51)" id="path418" clip-path="url(#CLIPPATH_78)">
<clipPath id="CLIPPATH_78" fill="#000000">
	<path transform="matrix(1 0 0 1 118.77 66.68) translate(-250, -250)" id="path74" d="M 0 500 L 500 500 L 500 0 L 0 0 Z" stroke-linecap="round" fill="#000000"/>
</clipPath>
<path style="stroke: none; stroke-width: 1; stroke-dasharray: none; stroke-linecap: butt; stroke-dashoffset: 0; stroke-linejoin: miter; stroke-miterlimit: 4; fill:#226f15; fill-rule: nonzero; opacity: 1;" vector-effect="non-scaling-stroke" transform=" translate(-2.71, -0.2)" d="M 0 0 C -0.113 1.498 1.01 2.806 2.508 2.919 C 4.007 3.031 5.313 1.909 5.427 0.41 C 5.541 -1.089 4.417 -2.396 2.918 -2.509 C 1.42 -2.622 0.113 -1.499 0 0" stroke-linecap="round"/>
</g>
		<g transform="matrix(1.33 0 0 -1.33 -158.11 48.34)" id="path422" clip-path="url(#CLIPPATH_79)">
<clipPath id="CLIPPATH_79" fill="#000000">
	<path transform="matrix(1 0 0 1 116.54 12.55) translate(-250, -250)" id="path74" d="M 0 500 L 500 500 L 500 0 L 0 0 Z" stroke-linecap="round" fill="#000000"/>
</clipPath>
<path style="stroke: none; stroke-width: 1; stroke-dasharray: none; stroke-linecap: butt; stroke-dashoffset: 0; stroke-linejoin: miter; stroke-miterlimit: 4; fill:#226f15; fill-rule: nonzero; opacity: 1;" vector-effect="non-scaling-stroke" transform=" translate(-10.89, -4.8)" d="M 0 0 L -0.993 0.573 C 2.2760000000000002 6.2330000000000005 6.090999999999999 9.26 10.347 9.57 C 17.168 10.057 22.558 3.3810000000000002 22.783 3.096 L 21.883000000000003 2.3840000000000003 C 21.832 2.449 16.647 8.887 10.424 8.426 C 6.574 8.144 3.066 5.309 0 0" stroke-linecap="round"/>
</g>
		<g transform="matrix(1.33 0 0 -1.33 -143.12 2.04)" id="path426" clip-path="url(#CLIPPATH_80)">
<clipPath id="CLIPPATH_80" fill="#000000">
	<path transform="matrix(1 0 0 1 105.3 -22.18) translate(-250, -250)" id="path74" d="M 0 500 L 500 500 L 500 0 L 0 0 Z" stroke-linecap="round" fill="#000000"/>
</clipPath>
<path style="stroke: none; stroke-width: 1; stroke-dasharray: none; stroke-linecap: butt; stroke-dashoffset: 0; stroke-linejoin: miter; stroke-miterlimit: 4; fill:#226f15; fill-rule: nonzero; opacity: 1;" vector-effect="non-scaling-stroke" transform=" translate(-14.96, -22.56)" d="M 0 0 C -0.044 0.376 -3.774 37.654 30.066 45.116 L 29.525 43.727 C -3.314 36.485 1.097 0.498 1.139 0.132 Z" stroke-linecap="round"/>
</g>
		<g transform="matrix(1.33 0 0 -1.33 -94.16 -94.1)" id="path430" clip-path="url(#CLIPPATH_81)">
<clipPath id="CLIPPATH_81" fill="#000000">
	<path transform="matrix(1 0 0 1 68.58 -94.28) translate(-250, -250)" id="path74" d="M 0 500 L 500 500 L 500 0 L 0 0 Z" stroke-linecap="round" fill="#000000"/>
</clipPath>
<path style="stroke: none; stroke-width: 1; stroke-dasharray: none; stroke-linecap: butt; stroke-dashoffset: 0; stroke-linejoin: miter; stroke-miterlimit: 4; fill: rgb(26,26,26); fill-rule: nonzero; opacity: 1;" vector-effect="non-scaling-stroke" transform=" translate(1.26, -0.03)" d="M 0 0 C -0.024 -1.213 -0.61 -2.185 -1.309 -2.17 C -2.0069999999999997 -2.156 -2.5540000000000003 -1.162 -2.5300000000000002 0.051000000000000156 C -2.5050000000000003 1.2640000000000002 -1.9190000000000003 2.2350000000000003 -1.2210000000000003 2.221 C -0.522 2.207 0.024 1.213 0 0" stroke-linecap="round"/>
</g>
		<g transform="matrix(1.33 0 0 -1.33 -63.08 -96.04)" id="path434" clip-path="url(#CLIPPATH_82)">
<clipPath id="CLIPPATH_82" fill="#000000">
	<path transform="matrix(1 0 0 1 45.27 -95.74) translate(-250, -250)" id="path74" d="M 0 500 L 500 500 L 500 0 L 0 0 Z" stroke-linecap="round" fill="#000000"/>
</clipPath>
<path style="stroke: none; stroke-width: 1; stroke-dasharray: none; stroke-linecap: butt; stroke-dashoffset: 0; stroke-linejoin: miter; stroke-miterlimit: 4; fill: rgb(26,26,26); fill-rule: nonzero; opacity: 1;" vector-effect="non-scaling-stroke" transform=" translate(1.26, -0.03)" d="M 0 0 C -0.024 -1.213 -0.61 -2.185 -1.309 -2.17 C -2.0069999999999997 -2.157 -2.5540000000000003 -1.162 -2.529 0.051000000000000156 C -2.505 1.2630000000000001 -1.919 2.2350000000000003 -1.2209999999999999 2.221 C -0.522 2.207 0.024 1.212 0 0" stroke-linecap="round"/>
</g>
		<g transform="matrix(1.33 0 0 -1.33 -74.85 -88.76)" id="path438" clip-path="url(#CLIPPATH_83)">
<clipPath id="CLIPPATH_83" fill="#000000">
	<path transform="matrix(1 0 0 1 54.1 -90.27) translate(-250, -250)" id="path74" d="M 0 500 L 500 500 L 500 0 L 0 0 Z" stroke-linecap="round" fill="#000000"/>
</clipPath>
<path style="stroke: rgb(227,146,60); stroke-width: 1; stroke-dasharray: none; stroke-linecap: round; stroke-dashoffset: 0; stroke-linejoin: miter; stroke-miterlimit: 10; fill: none; fill-rule: nonzero; opacity: 1;" vector-effect="non-scaling-stroke" transform=" translate(-0.41, 8.88)" d="M 0 0 C 0 0 2.697 -7.876 4.208 -13.271 C 5.718 -18.667 -3.561 -17.695 -3.561 -17.695" stroke-linecap="round"/>
</g>
		<g transform="matrix(1.33 0 0 -1.33 -86.15 -68.97)" id="path442" clip-path="url(#CLIPPATH_84)">
<clipPath id="CLIPPATH_84" fill="#000000">
	<path transform="matrix(1 0 0 1 62.57 -75.43) translate(-250, -250)" id="path74" d="M 0 500 L 500 500 L 500 0 L 0 0 Z" stroke-linecap="round" fill="#000000"/>
</clipPath>
<path style="stroke: rgb(227,146,60); stroke-width: 1; stroke-dasharray: none; stroke-linecap: round; stroke-dashoffset: 0; stroke-linejoin: miter; stroke-miterlimit: 10; fill: none; fill-rule: nonzero; opacity: 1;" vector-effect="non-scaling-stroke" transform=" translate(-6.05, 3.3)" d="M 0 0 C 0 0 3.484 -8.608 12.092 -6.149" stroke-linecap="round"/>
</g>
		<g transform="matrix(1.33 0 0 -1.33 -160.26 149.98)" id="path446" clip-path="url(#CLIPPATH_85)">
<clipPath id="CLIPPATH_85" fill="#000000">
	<path transform="matrix(1 0 0 1 118.16 88.78) translate(-250, -250)" id="path74" d="M 0 500 L 500 500 L 500 0 L 0 0 Z" stroke-linecap="round" fill="#000000"/>
</clipPath>
<path style="stroke: none; stroke-width: 1; stroke-dasharray: none; stroke-linecap: butt; stroke-dashoffset: 0; stroke-linejoin: miter; stroke-miterlimit: 4; fill: rgb(227,146,60); fill-rule: nonzero; opacity: 1;" vector-effect="non-scaling-stroke" transform=" translate(5.07, 3.89)" d="M 0 0 C 0 0 -6.427 0.349 -10.13 -7.775 C -10.13 -7.775 -2.304000000000001 -1.6770000000000005 0 0" stroke-linecap="round"/>
</g>
		<g transform="matrix(1.33 0 0 -1.33 -14.83 135.54)" id="path450" clip-path="url(#CLIPPATH_86)">
<clipPath id="CLIPPATH_86" fill="#000000">
	<path transform="matrix(1 0 0 1 9.08 77.95) translate(-250, -250)" id="path74" d="M 0 500 L 500 500 L 500 0 L 0 0 Z" stroke-linecap="round" fill="#000000"/>
</clipPath>
<path style="stroke: none; stroke-width: 1; stroke-dasharray: none; stroke-linecap: butt; stroke-dashoffset: 0; stroke-linejoin: miter; stroke-miterlimit: 4; fill: rgb(227,146,60); fill-rule: nonzero; opacity: 1;" vector-effect="non-scaling-stroke" transform=" translate(-22.22, 8.46)" d="M 0 0 L 30.145 -1.311 L 44.442 -16.924 L 24.819 -3.744 Z" stroke-linecap="round"/>
</g>
		<g transform="matrix(1.33 0 0 -1.33 2.03 111.86)" id="path454" clip-path="url(#CLIPPATH_87)">
<clipPath id="CLIPPATH_87" fill="#000000">
	<path transform="matrix(1 0 0 1 -3.57 60.19) translate(-250, -250)" id="path74" d="M 0 500 L 500 500 L 500 0 L 0 0 Z" stroke-linecap="round" fill="#000000"/>
</clipPath>
<path style="stroke: none; stroke-width: 1; stroke-dasharray: none; stroke-linecap: butt; stroke-dashoffset: 0; stroke-linejoin: miter; stroke-miterlimit: 4; fill: rgb(227,146,60); fill-rule: nonzero; opacity: 1;" vector-effect="non-scaling-stroke" transform=" translate(-10.12, 3.53)" d="M 0 0 L 7.901 2.014 L 20.248 -9.082 L 7.927 0.613 Z" stroke-linecap="round"/>
</g>
		<g transform="matrix(1.33 0 0 -1.33 9.24 119.61)" id="path458" clip-path="url(#CLIPPATH_88)">
<clipPath id="CLIPPATH_88" fill="#000000">
	<path transform="matrix(1 0 0 1 -8.97 66) translate(-250, -250)" id="path74" d="M 0 500 L 500 500 L 500 0 L 0 0 Z" stroke-linecap="round" fill="#000000"/>
</clipPath>
<path style="stroke: none; stroke-width: 1; stroke-dasharray: none; stroke-linecap: butt; stroke-dashoffset: 0; stroke-linejoin: miter; stroke-miterlimit: 4; fill: rgb(227,146,60); fill-rule: nonzero; opacity: 1;" vector-effect="non-scaling-stroke" transform=" translate(-5.63, 4.18)" d="M 0 0 C 1.132 -0.452 2.08 -1.119 3.074 -1.743 C 4.054 -2.382 4.986 -3.083 5.938 -3.7569999999999997 C 6.85 -4.486 7.785 -5.183999999999999 8.672 -5.943 C 9.561 -6.702 10.439 -7.473999999999999 11.260000000000002 -8.318999999999999 L 11.229000000000001 -8.358999999999998 L 5.639000000000001 -4.155999999999998 L 2.8430000000000013 -2.0569999999999977 C 1.9040000000000012 -1.3769999999999976 0.9740000000000013 -0.6349999999999978 0.0010000000000012221 -0.0499999999999976 z" stroke-linecap="round"/>
</g>
		<g transform="matrix(1.33 0 0 -1.33 10.15 126.6)" id="path462" clip-path="url(#CLIPPATH_89)">
<clipPath id="CLIPPATH_89" fill="#000000">
	<path transform="matrix(1 0 0 1 -9.65 71.24) translate(-250, -250)" id="path74" d="M 0 500 L 500 500 L 500 0 L 0 0 Z" stroke-linecap="round" fill="#000000"/>
</clipPath>
<path style="stroke: none; stroke-width: 1; stroke-dasharray: none; stroke-linecap: butt; stroke-dashoffset: 0; stroke-linejoin: miter; stroke-miterlimit: 4; fill: rgb(227,146,60); fill-rule: nonzero; opacity: 1;" vector-effect="non-scaling-stroke" transform=" translate(-5.63, 4.18)" d="M 0 0 C 1.132 -0.452 2.08 -1.118 3.074 -1.742 C 4.054 -2.382 4.984999999999999 -3.083 5.938 -3.757 C 6.85 -4.486 7.785 -5.184 8.672 -5.943 C 9.561 -6.702 10.439 -7.473 11.260000000000002 -8.318999999999999 L 11.229000000000001 -8.358999999999998 L 5.639000000000001 -4.155999999999998 L 2.8430000000000013 -2.055999999999998 C 1.9040000000000012 -1.3769999999999978 0.9730000000000012 -0.6349999999999978 0.0010000000000012221 -0.049999999999998046 z" stroke-linecap="round"/>
</g>
		<g transform="matrix(1.33 0 0 -1.33 10.61 134.53)" id="path466" clip-path="url(#CLIPPATH_90)">
<clipPath id="CLIPPATH_90" fill="#000000">
	<path transform="matrix(1 0 0 1 -10 77.19) translate(-250, -250)" id="path74" d="M 0 500 L 500 500 L 500 0 L 0 0 Z" stroke-linecap="round" fill="#000000"/>
</clipPath>
<path style="stroke: none; stroke-width: 1; stroke-dasharray: none; stroke-linecap: butt; stroke-dashoffset: 0; stroke-linejoin: miter; stroke-miterlimit: 4; fill: rgb(227,146,60); fill-rule: nonzero; opacity: 1;" vector-effect="non-scaling-stroke" transform=" translate(-5.63, 4.18)" d="M 0 0 C 1.132 -0.452 2.08 -1.119 3.074 -1.743 C 4.054 -2.382 4.986 -3.083 5.939 -3.7569999999999997 C 6.851 -4.486 7.785 -5.183999999999999 8.673 -5.943999999999999 C 9.561 -6.701999999999999 10.439 -7.473999999999999 11.26 -8.319999999999999 L 11.229 -8.359 L 5.64 -4.156 L 2.844 -2.057 C 1.9049999999999998 -1.3769999999999998 0.9739999999999998 -0.635 0.0009999999999998899 -0.04999999999999982 z" stroke-linecap="round"/>
</g>
		<g transform="matrix(1.33 0 0 -1.33 -93.32 -91.95)" id="path470" clip-path="url(#CLIPPATH_91)">
<clipPath id="CLIPPATH_91" fill="#000000">
	<path transform="matrix(1 0 0 1 67.95 -92.67) translate(-250, -250)" id="path74" d="M 0 500 L 500 500 L 500 0 L 0 0 Z" stroke-linecap="round" fill="#000000"/>
</clipPath>
<path style="stroke: rgb(255,255,255); stroke-width: 1; stroke-dasharray: none; stroke-linecap: round; stroke-dashoffset: 0; stroke-linejoin: miter; stroke-miterlimit: 10; fill: none; fill-rule: nonzero; opacity: 1;" vector-effect="non-scaling-stroke" transform=" translate(-7.82, -0.55)" d="M 0 0 C -0.012 0.166 -0.018 0.333 -0.019 0.501 C -0.048 4.833 3.439 8.369 7.771 8.398 C 12.103 8.427999999999999 15.639 4.9399999999999995 15.668 0.6079999999999997 C 15.697999999999999 -3.724 12.209 -7.259 7.877999999999999 -7.289000000000001 C 3.714 -7.317 0.287 -4.096 0 0" stroke-linecap="round"/>
</g>
		<g transform="matrix(1.33 0 0 -1.33 -59.66 -95.02)" id="path474" clip-path="url(#CLIPPATH_92)">
<clipPath id="CLIPPATH_92" fill="#000000">
	<path transform="matrix(1 0 0 1 42.7 -94.97) translate(-250, -250)" id="path74" d="M 0 500 L 500 500 L 500 0 L 0 0 Z" stroke-linecap="round" fill="#000000"/>
</clipPath>
<path style="stroke: rgb(255,255,255); stroke-width: 1; stroke-dasharray: none; stroke-linecap: round; stroke-dashoffset: 0; stroke-linejoin: miter; stroke-miterlimit: 10; fill: none; fill-rule: nonzero; opacity: 1;" vector-effect="non-scaling-stroke" transform=" translate(7.84, 0.05)" d="M 0 0 C 0.03 -4.332 -3.458 -7.867 -7.79 -7.897 C -12.122 -7.926 -15.658000000000001 -4.438000000000001 -15.687000000000001 -0.10599999999999987 C -15.716000000000001 4.226 -12.229000000000001 7.761 -7.897000000000001 7.791 C -3.565 7.82 -0.029 4.332 0 0 Z" stroke-linecap="round"/>
</g>
		<g transform="matrix(1.33 0 0 -1.33 -76.53 -95.78)" id="path478" clip-path="url(#CLIPPATH_93)">
<clipPath id="CLIPPATH_93" fill="#000000">
	<path transform="matrix(1 0 0 1 55.36 -95.54) translate(-250, -250)" id="path74" d="M 0 500 L 500 500 L 500 0 L 0 0 Z" stroke-linecap="round" fill="#000000"/>
</clipPath>
<path style="stroke: rgb(255,255,255); stroke-width: 1; stroke-dasharray: none; stroke-linecap: round; stroke-dashoffset: 0; stroke-linejoin: miter; stroke-miterlimit: 10; fill: none; fill-rule: nonzero; opacity: 1;" vector-effect="non-scaling-stroke" transform=" translate(-4.81, -1.16)" d="M 0 0 C 0 0 5.021 4.848 9.614 0.536" stroke-linecap="round"/>
</g>
		<g transform="matrix(1.33 0 0 -1.33 -110.85 -93.55)" id="path482" clip-path="url(#CLIPPATH_94)">
<clipPath id="CLIPPATH_94" fill="#000000">
	<path transform="matrix(1 0 0 1 81.1 -93.87) translate(-250, -250)" id="path74" d="M 0 500 L 500 500 L 500 0 L 0 0 Z" stroke-linecap="round" fill="#000000"/>
</clipPath>
<path style="stroke: rgb(255,255,255); stroke-width: 1; stroke-dasharray: none; stroke-linecap: round; stroke-dashoffset: 0; stroke-linejoin: miter; stroke-miterlimit: 10; fill: none; fill-rule: nonzero; opacity: 1;" vector-effect="non-scaling-stroke" transform=" translate(-5.3, 1.25)" d="M 0 0 L 10.608 -2.499" stroke-linecap="round"/>
</g>
		<g transform="matrix(1.33 0 0 -1.33 -60.94 -110.2)" id="path486" clip-path="url(#CLIPPATH_95)">
<clipPath id="CLIPPATH_95" fill="#000000">
	<path transform="matrix(1 0 0 1 43.66 -106.36) translate(-250, -250)" id="path74" d="M 0 500 L 500 500 L 500 0 L 0 0 Z" stroke-linecap="round" fill="#000000"/>
</clipPath>
<path style="stroke: rgb(26,26,26); stroke-width: 1; stroke-dasharray: none; stroke-linecap: round; stroke-dashoffset: 0; stroke-linejoin: miter; stroke-miterlimit: 10; fill: none; fill-rule: nonzero; opacity: 1;" vector-effect="non-scaling-stroke" transform=" translate(-3.36, -0.54)" d="M 0 0 C 0 0 2.629 3.088 6.726 -0.231" stroke-linecap="round"/>
</g>
		<g transform="matrix(1.33 0 0 -1.33 -95.18 -107.16)" id="path490" clip-path="url(#CLIPPATH_96)">
<clipPath id="CLIPPATH_96" fill="#000000">
	<path transform="matrix(1 0 0 1 69.34 -104.07) translate(-250, -250)" id="path74" d="M 0 500 L 500 500 L 500 0 L 0 0 Z" stroke-linecap="round" fill="#000000"/>
</clipPath>
<path style="stroke: rgb(26,26,26); stroke-width: 1; stroke-dasharray: none; stroke-linecap: round; stroke-dashoffset: 0; stroke-linejoin: miter; stroke-miterlimit: 10; fill: none; fill-rule: nonzero; opacity: 1;" vector-effect="non-scaling-stroke" transform=" translate(-4.75, -0.88)" d="M 0 0 C 0 0 3.092 3.428 9.507 0.72" stroke-linecap="round"/>
</g>
		<g transform="matrix(1.33 0 0 -1.33 -113.84 66.77)" id="path494" clip-path="url(#CLIPPATH_97)">
<clipPath id="CLIPPATH_97" fill="#000000">
	<path transform="matrix(1 0 0 1 83.34 26.37) translate(-250, -250)" id="path74" d="M 0 500 L 500 500 L 500 0 L 0 0 Z" stroke-linecap="round" fill="#000000"/>
</clipPath>
<path style="stroke: none; stroke-width: 1; stroke-dasharray: none; stroke-linecap: butt; stroke-dashoffset: 0; stroke-linejoin: miter; stroke-miterlimit: 4; fill:#226f15; fill-rule: nonzero; opacity: 1;" vector-effect="non-scaling-stroke" transform=" translate(10.03, -2.81)" d="M 0 0 L -20.067 -1.879 L -20.056 5.616 L 0.012000000000000455 7.494999999999999 z" stroke-linecap="round"/>
</g>
		<g transform="matrix(1.33 0 0 -1.33 -211.07 -184.36)" id="path496" clip-path="url(#CLIPPATH_98)">
<clipPath id="CLIPPATH_98" fill="#000000">
	<path transform="matrix(1 0 0 1 156.26 -161.98) translate(-250, -250)" id="path74" d="M 0 500 L 500 500 L 500 0 L 0 0 Z" stroke-linecap="round" fill="#000000"/>
</clipPath>
<path style="stroke: none; stroke-width: 1; stroke-dasharray: none; stroke-linecap: butt; stroke-dashoffset: 0; stroke-linejoin: miter; stroke-miterlimit: 4; fill:#a6ff98; fill-rule: nonzero; opacity: 1;" vector-effect="non-scaling-stroke" transform=" translate(-93.74, -411.98)" d="M 139.641 383.847 L 47.840999999999994 383.847 L 47.840999999999994 440.11199999999997 L 139.641 440.11199999999997 z" stroke-linecap="round"/>
</g>
		<g transform="matrix(1.33 0 0 -1.33 -182.14 -140.71)" id="path500" clip-path="url(#CLIPPATH_99)">
<clipPath id="CLIPPATH_99" fill="#000000">
	<path transform="matrix(1 0 0 1 134.57 -129.24) translate(-250, -250)" id="path74" d="M 0 500 L 500 500 L 500 0 L 0 0 Z" stroke-linecap="round" fill="#000000"/>
</clipPath>
<path style="stroke: none; stroke-width: 1; stroke-dasharray: none; stroke-linecap: butt; stroke-dashoffset: 0; stroke-linejoin: miter; stroke-miterlimit: 4; fill:#a6ff98; fill-rule: nonzero; opacity: 1;" vector-effect="non-scaling-stroke" transform=" translate(-9.35, 10.36)" d="M 0 0 L 18.708 -22.863 L 18.708 2.144 Z" stroke-linecap="round"/>
</g>
		<g transform="matrix(1.33 0 0 -1.33 -231.95 -203.92)" id="path504" clip-path="url(#CLIPPATH_100)">
<clipPath id="CLIPPATH_100" fill="#000000">
	<path transform="matrix(1 0 0 1 171.92 -176.64) translate(-250, -250)" id="path74" d="M 0 500 L 500 500 L 500 0 L 0 0 Z" stroke-linecap="round" fill="#000000"/>
</clipPath>
<path style="stroke: rgb(255,255,255); stroke-width: 1; stroke-dasharray: none; stroke-linecap: butt; stroke-dashoffset: 0; stroke-linejoin: miter; stroke-miterlimit: 10; fill: none; fill-rule: nonzero; opacity: 1;" vector-effect="non-scaling-stroke" transform=" translate(-18, 0)" d="M 0 0 L 36 0" stroke-linecap="round"/>
</g>
		<g transform="matrix(1.33 0 0 -1.33 -211.07 -192.56)" id="path508" clip-path="url(#CLIPPATH_101)">
<clipPath id="CLIPPATH_101" fill="#000000">
	<path transform="matrix(1 0 0 1 156.26 -168.12) translate(-250, -250)" id="path74" d="M 0 500 L 500 500 L 500 0 L 0 0 Z" stroke-linecap="round" fill="#000000"/>
</clipPath>
<path style="stroke: rgb(255,255,255); stroke-width: 1; stroke-dasharray: none; stroke-linecap: butt; stroke-dashoffset: 0; stroke-linejoin: miter; stroke-miterlimit: 10; fill: none; fill-rule: nonzero; opacity: 1;" vector-effect="non-scaling-stroke" transform=" translate(-33.66, 0)" d="M 0 0 L 67.32 0" stroke-linecap="round"/>
</g>
		<g transform="matrix(1.33 0 0 -1.33 -211.07 -181.2)" id="path512" clip-path="url(#CLIPPATH_102)">
<clipPath id="CLIPPATH_102" fill="#000000">
	<path transform="matrix(1 0 0 1 156.26 -159.6) translate(-250, -250)" id="path74" d="M 0 500 L 500 500 L 500 0 L 0 0 Z" stroke-linecap="round" fill="#000000"/>
</clipPath>
<path style="stroke: rgb(255,255,255); stroke-width: 1; stroke-dasharray: none; stroke-linecap: butt; stroke-dashoffset: 0; stroke-linejoin: miter; stroke-miterlimit: 10; fill: none; fill-rule: nonzero; opacity: 1;" vector-effect="non-scaling-stroke" transform=" translate(-33.66, 0)" d="M 0 0 L 67.32 0" stroke-linecap="round"/>
</g>
		<g transform="matrix(1.33 0 0 -1.33 -211.07 -169.84)" id="path516" clip-path="url(#CLIPPATH_103)">
<clipPath id="CLIPPATH_103" fill="#000000">
	<path transform="matrix(1 0 0 1 156.26 -151.08) translate(-250, -250)" id="path74" d="M 0 500 L 500 500 L 500 0 L 0 0 Z" stroke-linecap="round" fill="#000000"/>
</clipPath>
<path style="stroke: rgb(255,255,255); stroke-width: 1; stroke-dasharray: none; stroke-linecap: butt; stroke-dashoffset: 0; stroke-linejoin: miter; stroke-miterlimit: 10; fill: none; fill-rule: nonzero; opacity: 1;" vector-effect="non-scaling-stroke" transform=" translate(-33.66, 0)" d="M 0 0 L 67.32 0" stroke-linecap="round"/>
</g>
</g>
</g>
</svg>