<svg width="800" height="600" xmlns="http://www.w3.org/2000/svg" xmlns:undefined="http://www.inkscape.org/namespaces/inkscape">
 <g>
  <title>Layer 1</title>
  <g stroke="null">
   <defs stroke="null" transform="translate(0 1) translate(0 -1) translate(0 -1) translate(0 1) translate(0 1) translate(0 1) translate(0 1) translate(0 1) translate(2 -6) translate(19 7) translate(25 10) translate(63 13) translate(-591 -479) translate(-9 -49) translate(-828 -460) translate(-831 -578) translate(-575 -421) translate(-747 -355) translate(-359 -293) translate(-47 35) translate(551 -82) translate(384 155) translate(420 216) translate(355 369) translate(326 326) translate(-10 309) translate(-1933.33 0) translate(0 -1366.67) translate(4712.33 3294.67) scale(0.912786 0.912786) translate(-4712.33 -3294.67) translate(4769.28 3288.47) scale(0.896236 0.896236) translate(-4769.28 -3288.47) translate(4408.33 3235.25) scale(0.854623 0.854623) translate(-4408.33 -3235.25) translate(4335.79 3183.42) scale(0.734879 0.734879) translate(-4335.79 -3183.42) translate(4282.59 3206.91) scale(0.703462 0.703462) translate(-4282.59 -3206.91) translate(3772.07 3150.46) scale(0.504348 0.504348) translate(-3772.07 -3150.46) translate(4582.55 3690.18) scale(1.07406 1.07406) translate(-4582.55 -3690.18) translate(4394.26 3486.81) scale(1.05363 1.05363) translate(-4394.26 -3486.81)" fill="#000000" id="svg_201">
    <clipPath stroke="null" fill="#000000" id="svg_194" clipPathUnits="userSpaceOnUse">
     <path stroke="null" fill="#000000" id="svg_203" d="m-58468.31775,50333.08333l5976.88,0l0,5771.77l-5976.88,0l0,-5771.77z"/>
    </clipPath>
    <clipPath stroke="null" fill="#000000" id="svg_71" clipPathUnits="userSpaceOnUse">
     <path stroke="null" fill="#000000" id="svg_202" d="m-48857.63775,52475.78333l93,-833.5c0,0 -421.8,-790.6 -143.7,-996.9c278.1,-206.2 534.3,15.7 609.3,531.3c75,515.5 -203.1,1465.5 -450,1649.9c-246.8,184.3 -1143.7,168.7 -1231.1,62.5c-87.5,-106.3 -962.9,-2064.3 -618,-2465.8c344.8,-401.5 1456.6,-36 1456.6,-36l-180.1,1163.2l-489,344.9c0,0 -28.7,632.7 -25.4,622.7c3.3,-10.1 68.2,310 68.2,310c307.1,88.8 539.6,99.8 842.7,-22.6l67.5,-329.7"/>
    </clipPath>
   </defs>
   <g stroke="null" transform="matrix(0.275048 0 0 -0.275048 1709.94 2009.99)"   id="svg_3">
    <g stroke="null" transform="translate(0 1025) scale(0.1 0.1)" id="svg_4">
     <path stroke="null" fill-rule="nonzero" fill="#ffffff" id="svg_200" d="m-65126.03775,37826.28333l35000,0l0,25000l-35000,0l0,-25000z"/>
     <path stroke="null" fill-rule="nonzero" fill="#d3ffcb" id="svg_199" d="m-62223.03775,41105.58333c3550.45,1631.2 1625.47,4614.1 720.51,10078.9c-2656.854,7656.7 5152.69,12226.8 11673.99,6936.2c2659.1,-1856.7 4972.9,-1641.1 7164.4,-1425.5c2434.9,239.5 4718.8,479 7157.8,-2123.5c3139.2,-3349.8 527.5,-7129.3 450.4,-9872.4c-60.8,-2162.2 2026.9,-3593.7 2026.9,-3593.7l-29194,0"/>
     <path stroke="null" fill-rule="nonzero" fill="#000000" id="svg_198" d="m-33078.93775,41007.98333l-29394.18,0c-28.81,0 -52.17,23.3 -52.17,52.1c0,28.9 23.36,52.2 52.17,52.2l29394.18,0c28.8,0 52.2,-23.3 52.2,-52.2c0,-28.8 -23.4,-52.1 -52.2,-52.1"/>
     <path stroke="null" fill-rule="nonzero" fill="#d3ffcb" id="svg_197" d="m-52298.13775,50144.08333l-6376.21,0l0,6188.9l6376.21,0l0,-6188.9"/>
     <g stroke="null" id="svg_192">
      <g stroke="null" clip-path="url(#svg_194)" id="svg_193">
       <path stroke="null" fill-rule="nonzero" fill="#ffffff" id="svg_196" d="m-52491.43775,50333.08333l-5976.88,0l0,5771.8l5976.88,0l0,-5771.8"/>
       <path stroke="null" fill-rule="nonzero" fill="#f2faff" id="svg_195" d="m-52003.93775,49802.88333l0,3311.6c-1.1,0.2 -2.2,0.4 -3.3,0.4c-15.4,1.9 -30.4,-8.8 -30.2,-24.9l0,-242.8c-111.7,-20.4 -95.6,-131.4 -95.1,-222.3c-174.2,-60.3 -163,-225.1 -158.5,-384.7l-136.1,0l0,-487.8c-124.4,-55.8 -204.5,-133.9 -204.5,-234.4l0,-812.4l-157.8,0l0,3225.1l-131.7,0l0,308.5l-755.1,0l0,-308.5l-133.4,0l0,-2663.1l-133.9,0l0,1470.3l-444,261.9l0,436l-309.8,0l0,0.2l-58.5,0l0,-0.2l-0.5,0l0,-237.1c-1.6,-1.4 -6,-4.5 -7.8,-5.8l0,-0.5l-286.5,-305.5l0,-2102.5c-24.1,-3.4 -42.6,-10.9 -66.4,-26.7c-26.07,-17.4 -35.62,-36.7 -52.71,-52.1l-69.23,0l0,871.8l-216.5,0l0,2177.1l-731.24,-745l0,-1432.1l-171.37,0l0,2.3l-80.89,0l0,1495.2l-542.66,0l0,-2369.3l-0.66,0l0,1931.5l-617.36,0l0,-806.8l-531.88,0l0,-623.8l-27.07,17.9l-171.96,0l0,627.1l-241.32,0l0,164.7l-382.06,0l0,-2213.3l6950.01,0"/>
      </g>
     </g>
     <path stroke="null" fill-rule="nonzero" fill="#d3ffcb" id="svg_191" d="m-55479.87775,50144.08333l-196.69,0l0,6088l196.69,0l0,-6088"/>
     <path stroke="null" fill-rule="nonzero" fill="#d3ffcb" id="svg_190" d="m-58646.23775,53089.68333l0,196.7l6320,0l0,-196.7l-6320,0"/>
     <path stroke="null" fill-rule="nonzero" fill="#349f1e" id="svg_189" d="m-43564.73775,41848.48333l-216.3,0l0,12944.4l216.3,0l0,-12944.4"/>
     <path stroke="null" fill-rule="nonzero" fill="#349f1e" id="svg_188" d="m-45383.13775,41641.78333c759.2,195 2661.3,195 3420.6,0l320.3,0l0,141.6c0,460.2 -4061.3,460.2 -4061.3,0l0,-141.6l320.4,0"/>
     <path stroke="null" fill-rule="nonzero" fill="#95b5d1" id="svg_187" d="m-43363.93775,41286.78333c0,-100.2 80.8,-181.5 180.6,-181.5c99.7,0 180.6,81.3 180.6,181.5c0,100.2 -80.9,181.4 -180.6,181.4c-99.8,0 -180.6,-81.2 -180.6,-181.4"/>
     <path stroke="null" fill-rule="nonzero" fill="#000000" id="svg_186" d="m-43303.73775,41286.78333c0,-66.8 53.9,-121 120.4,-121c66.5,0 120.4,54.2 120.4,121c0,66.8 -53.9,120.9 -120.4,120.9c-66.5,0 -120.4,-54.1 -120.4,-120.9"/>
     <path stroke="null" fill-rule="nonzero" fill="#000000" id="svg_185" d="m-43063.43775,41664.58333l0,-377.8l-133.8,0l0,377.8l133.8,0"/>
     <path stroke="null" fill-rule="nonzero" fill="#95b5d1" id="svg_184" d="m-43063.43775,41664.58333l0,-177.3l-133.8,0l0,177.3l133.8,0"/>
     <path stroke="null" fill-rule="nonzero" fill="#349f1e" id="svg_183" d="m-43101.03775,41848.48333c99.3,-5 174.7,-124 159.2,-248l-380.7,0c1,140.7 -99.2,203.7 -227.8,248l449.3,0"/>
     <path stroke="null" fill-rule="nonzero" fill="#95b5d1" id="svg_182" d="m-42044.53775,41286.98333c0,-100.3 80.9,-181.5 180.6,-181.5c99.8,0 180.6,81.2 180.6,181.5c0,100.2 -80.8,181.4 -180.6,181.4c-99.7,0 -180.6,-81.2 -180.6,-181.4"/>
     <path stroke="null" fill-rule="nonzero" fill="#000000" id="svg_181" d="m-41984.33775,41286.98333c0,-66.9 53.9,-121 120.4,-121c66.5,0 120.4,54.1 120.4,121c0,66.8 -53.9,120.9 -120.4,120.9c-66.5,0 -120.4,-54.1 -120.4,-120.9"/>
     <path stroke="null" fill-rule="nonzero" fill="#000000" id="svg_180" d="m-41744.03775,41664.78333l0,-377.8l-133.8,0l0,377.8l133.8,0"/>
     <path stroke="null" fill-rule="nonzero" fill="#95b5d1" id="svg_179" d="m-41744.03775,41664.78333l0,-177.3l-133.8,0l0,177.3l133.8,0"/>
     <path stroke="null" fill-rule="nonzero" fill="#349f1e" id="svg_178" d="m-41683.33775,41664.78333l0,-64.4l-266.7,0l0,64.4l266.7,0"/>
     <path stroke="null" fill-rule="nonzero" fill="#95b5d1" id="svg_177" d="m-45312.63775,41286.98333c0,-100.3 -80.8,-181.5 -180.6,-181.5c-99.7,0 -180.6,81.2 -180.6,181.5c0,100.2 80.9,181.4 180.6,181.4c99.8,0 180.6,-81.2 180.6,-181.4"/>
     <path stroke="null" fill-rule="nonzero" fill="#000000" id="svg_176" d="m-45372.83775,41286.98333c0,-66.9 -53.9,-121 -120.4,-121c-66.5,0 -120.4,54.1 -120.4,121c0,66.8 53.9,120.9 120.4,120.9c66.5,0 120.4,-54.1 120.4,-120.9"/>
     <path stroke="null" fill-rule="nonzero" fill="#000000" id="svg_175" d="m-45613.13775,41664.78333l0,-377.8l133.8,0l0,377.8l-133.8,0"/>
     <path stroke="null" fill-rule="nonzero" fill="#95b5d1" id="svg_174" d="m-45613.13775,41664.78333l0,-177.3l133.8,0l0,177.3l-133.8,0"/>
     <path stroke="null" fill-rule="nonzero" fill="#349f1e" id="svg_173" d="m-45673.83775,41664.78333l0,-64.4l266.8,0l0,64.4l-266.8,0"/>
     <path stroke="null" fill-rule="nonzero" fill="#349f1e" id="svg_172" d="m-43002.73775,41565.38333l-291.9,0l0,67.2l291.9,0l0,-67.2"/>
     <path stroke="null" fill-rule="nonzero" fill="#000000" id="svg_171" d="m-45765.03775,54355.88333c-19.1,0 -37.1,4.4 -54,13c-65.1,33.3 -86.3,119.6 -87.2,123.2c-3.2,13.5 5.1,26.9 18.5,30.1c13.5,3.3 26.9,-5 30.1,-18.5c0.4,-1.4 17.2,-67.8 61.5,-90.3c20.3,-10.4 43.7,-9.9 71.4,1.5c104.6,43.1 56.5,174.7 54.4,180.3c-2.9,7.6 -1.9,16.3 2.8,23c4.7,6.8 12.4,10.8 20.6,10.8l3948.2,0c7.3,0 14.2,-3.2 19,-8.8c4.7,-5.6 6.8,-12.9 5.7,-20.2c-0.2,-1.2 -18.9,-125.3 52.9,-154.7c38.4,-15.7 68.5,-16.6 89.5,-2.6c41.6,28 42.8,107.5 42.8,108.3c0,13.8 11.2,25 25,25c13.8,0 25,-11.2 25,-25c0,-4.4 -0.8,-106.7 -65,-149.8c-35.6,-23.9 -81.4,-24.6 -136.2,-2.2c-81.6,33.4 -88.3,130.8 -86.1,180l-3887.5,0c15,-68.2 9,-168.7 -92,-210.3c-20.7,-8.5 -40.6,-12.8 -59.4,-12.8"/>
     <path stroke="null" fill-rule="nonzero" fill="#bfffd0" id="svg_170" d="m-43510.63775,48516.88333l-9,38.9c1907.6,442.2 1907.6,2484.1 1907.6,3356l40,0c0,-432 0,-1155.1 -241.5,-1841.7c-294.8,-838 -865.8,-1360.5 -1697.1,-1553.2"/>
     <path stroke="null" fill-rule="nonzero" fill="#a8ff8c" id="svg_169" d="m-44943.53775,50339.28333l2508.1,0l0,1069.4l-2508.1,0l0,-1069.4"/>
     <path stroke="null" fill-rule="nonzero" fill="#74cf61" id="svg_168" d="m-42435.43775,51408.68333l-270,0l0,-762.2l-539.9,-201.6l0,-417.6l809.9,0l0,1381.4"/>
     <path stroke="null" fill-rule="nonzero" fill="#a8ff8c" id="svg_167" d="m-44667.43775,51408.68333l-269.9,0l0,-762.2l-540,-201.6l0,-417.6l809.9,0l0,1381.4"/>
     <path stroke="null" fill-rule="nonzero" fill="#a8ff8c" id="svg_166" d="m-45477.33775,50027.28333l2232,0l0,417.6l-2232,0l0,-417.6"/>
     <path stroke="null" fill-rule="nonzero" fill="#b1ffb0" id="svg_165" d="m-42705.43775,50646.48333l-2231.9,0l-540,-201.6l2232,0l539.9,201.6"/>
     <path stroke="null" fill-rule="nonzero" fill="#74cf61" id="svg_164" d="m-43245.33775,50803.48333c0,-39 31.5,-70.5 70.4,-70.5c39,0 70.5,31.5 70.5,70.5c0,38.9 -31.5,70.5 -70.5,70.5c-38.9,0 -70.4,-31.6 -70.4,-70.5"/>
     <path stroke="null" fill-rule="nonzero" fill="#74cf61" id="svg_163" d="m-43521.23775,50803.48333c0,-39 31.5,-70.5 70.5,-70.5c38.9,0 70.5,31.5 70.5,70.5c0,38.9 -31.6,70.5 -70.5,70.5c-39,0 -70.5,-31.6 -70.5,-70.5"/>
     <path stroke="null" fill-rule="nonzero" fill="#74cf61" id="svg_162" d="m-43791.33775,50803.48333c0,-39 31.6,-70.5 70.5,-70.5c38.9,0 70.5,31.5 70.5,70.5c0,38.9 -31.6,70.5 -70.5,70.5c-38.9,0 -70.5,-31.6 -70.5,-70.5"/>
     <path stroke="null" fill-rule="nonzero" fill="#74cf61" id="svg_161" d="m-44042.13775,50803.48333c0,-39 31.6,-70.5 70.5,-70.5c38.9,0 70.5,31.5 70.5,70.5c0,38.9 -31.6,70.5 -70.5,70.5c-38.9,0 -70.5,-31.6 -70.5,-70.5"/>
     <path stroke="null" fill-rule="nonzero" fill="#74cf61" id="svg_160" d="m-44796.83775,50732.98333l516.7,0l0,141l-516.7,0l0,-141"/>
     <path stroke="null" fill-rule="nonzero" fill="#74cf61" id="svg_159" d="m-44796.83775,51095.48333l1880.3,0l0,140.9l-1880.3,0l0,-140.9"/>
     <path stroke="null" fill-rule="nonzero" fill="#74cf61" id="svg_158" d="m-45330.63775,50108.88333l533.8,0l0,230.4l-533.8,0l0,-230.4"/>
     <path stroke="null" fill-rule="nonzero" fill="#357899" id="svg_157" d="m-45007.93775,50215.08333c0,-34.5 27.9,-62.4 62.4,-62.4c34.5,0 62.4,27.9 62.4,62.4c0,34.5 -27.9,62.4 -62.4,62.4c-34.5,0 -62.4,-27.9 -62.4,-62.4"/>
     <path stroke="null" fill-rule="nonzero" fill="#357899" id="svg_156" d="m-45063.73775,50213.58333c0,-28 13.7,-50.7 30.5,-50.7c16.9,0 30.5,22.7 30.5,50.7c0,28.1 -13.6,50.8 -30.5,50.8c-16.8,0 -30.5,-22.7 -30.5,-50.8"/>
     <path stroke="null" fill-rule="nonzero" fill="#357899" id="svg_155" d="m-45034.93775,50162.88333l89.4,-10.2l0,124.8l-89.4,-12.7l0,-101.9"/>
     <path stroke="null" fill-rule="nonzero" fill="#357899" id="svg_154" d="m-45035.43775,50198.98333l-0.1,0l0.6,16.1l-0.5,-16.1zm-3554.2,-9116.9c-803,0 -1372.9,5.4 -1381.4,5.5l0.4,32.1c12.8,-0.1 1294.7,-12.2 2730.1,0c704,6 1220.8,299 1579.9,725.9c284.1,337.8 467.4,819.3 544.9,1431c86.3,680.8 44.3,1544.7 -124.8,2567.7c-79.2,479.5 -143.8,1335.7 -168.4,2234.6c-25,909.1 -0.9,1615.1 62.8,1842.4c88,313.7 309.5,309.8 311.7,309.9l-1.1,-32.2c-8.4,0.3 -198.9,1.3 -279.6,-286.4c-132.9,-473.9 -66.3,-3018.1 106.3,-4063.1c169.6,-1026 211.6,-1893.1 125,-2577c-78.2,-617.9 -264,-1104.9 -552.2,-1447.6c-365.5,-434.5 -890.2,-731.3 -1604.2,-737.3c-481,-4.1 -944.8,-5.5 -1349.4,-5.5"/>
     <path stroke="null" fill-rule="nonzero" fill="#ffffff" id="svg_153" d="m-41220.03775,54185.78333c0,68.2 -733.6,68.2 -733.6,0l0,-1442.6c0,-52.9 29.2,-101.5 75.9,-126.4l158.2,-84.5l0,-217.6l237.4,0l0,217.6l180.5,86c49.9,23.8 81.6,74.2 81.6,129.4l0,1438.1"/>
     <path stroke="null" fill-rule="nonzero" fill="#bfffd0" id="svg_152" d="m-41882.83775,53211.48333l0,-468.2c0,-26.9 14.7,-51.5 38.4,-64.1l195.7,-104.4l0,-189.4l95.8,0l0,191.6l220.8,105.2c25.2,12 41.4,37.7 41.4,65.6l0,463.7l-592.1,0"/>
     <path stroke="null" fill-rule="nonzero" fill="#ffffff" id="svg_151" d="m-41648.63775,52366.88333l0,-132.6c0,-26.3 21.4,-47.7 47.7,-47.7c26.4,0 47.7,21.4 47.7,47.7l0,132.6l-95.4,0"/>
     <path stroke="null" fill-rule="nonzero" fill="#ffffff" id="svg_150" d="m-41648.63775,53211.48333l-163.9,0l0,603.9c0,32 26,57.9 57.9,57.9l48.1,0c32,0 57.9,-25.9 57.9,-57.9l0,-603.9"/>
     <path stroke="null" fill-rule="nonzero" fill="#dff4ff" id="svg_149" d="m-41706.53775,52744.78333l-48.1,0c-31.9,0 -57.9,25.9 -57.9,57.9l0,408.8l163.9,0l0,-408.8c0,-32 -25.9,-57.9 -57.9,-57.9"/>
     <path stroke="null" fill-rule="nonzero" fill="#74cf61" id="svg_148" d="m-41391.43775,52186.58333l-404.9,0l0,72.5l404.9,0l0,-72.5"/>
     <path stroke="null" fill-rule="nonzero" fill="#74cf61" id="svg_147" d="m-41523.43775,51946.98333l0,264.4l-140.9,0l0,-264.4c0,-38.9 31.6,-70.4 70.5,-70.4c38.9,0 70.4,31.5 70.4,70.4"/>
     <path stroke="null" fill-rule="nonzero" fill="#ffffff" id="svg_146" d="m-41576.83775,54171.38333l-20,0l0,15.8c0,54.7 -14.8,110.2 -44.2,165c-16,29.9 -16.5,60.7 -1.5,88.9c9.1,17.3 22.2,28.5 38.8,33.3c32.4,9.4 66.1,-9.5 67.5,-10.3l-9.9,-17.4c-0.3,0.2 -27.9,15.6 -52.1,8.5c-11.4,-3.3 -20.1,-11 -26.7,-23.4c-11.8,-22.4 -11.3,-46 1.6,-70.1c30.9,-57.8 46.5,-116.5 46.5,-174.5l0,-15.8"/>
     <path stroke="null" fill-rule="nonzero" fill="#ffffff" id="svg_145" d="m-45380.83775,54185.78333c0,68.2 -733.7,68.2 -733.7,0l0,-1442.6c0,-52.9 29.2,-101.5 75.9,-126.4l158.3,-84.5l0,-217.6l237.3,0l0,217.6l180.5,86c49.9,23.8 81.7,74.2 81.7,129.4l0,1438.1"/>
     <path stroke="null" fill-rule="nonzero" fill="#bfffd0" id="svg_144" d="m-46043.73775,53211.48333l0,-468.2c0,-26.9 14.7,-51.5 38.4,-64.1l195.7,-104.4l0,-189.4l95.9,0l0,191.6l220.7,105.2c25.2,12 41.4,37.7 41.4,65.6l0,463.7l-592.1,0"/>
     <path stroke="null" fill-rule="nonzero" fill="#ffffff" id="svg_143" d="m-45809.53775,52366.88333l0,-132.6c0,-26.3 21.4,-47.7 47.7,-47.7c26.4,0 47.7,21.4 47.7,47.7l0,132.6l-95.4,0"/>
     <path stroke="null" fill-rule="nonzero" fill="#ffffff" id="svg_142" d="m-45809.53775,53211.48333l-163.8,0l0,603.9c0,32 25.9,57.9 57.9,57.9l48,0c32,0 57.9,-25.9 57.9,-57.9l0,-603.9"/>
     <path stroke="null" fill-rule="nonzero" fill="#dff4ff" id="svg_141" d="m-45867.43775,52744.78333l-48,0c-32,0 -57.9,25.9 -57.9,57.9l0,408.8l163.8,0l0,-408.8c0,-32 -25.9,-57.9 -57.9,-57.9"/>
     <path stroke="null" fill-rule="nonzero" fill="#ffffff" id="svg_140" d="m-45737.73775,54171.38333l-20,0l0,15.8c0,54.7 -14.8,110.2 -44.2,165c-15.9,29.9 -16.5,60.7 -1.5,88.9c9.1,17.3 22.2,28.5 38.8,33.3c32.3,9.4 66.1,-9.5 67.5,-10.3l-9.9,-17.4l5,8.7l-5,-8.7c-0.2,0.2 -28,15.5 -52.1,8.5c-11.4,-3.3 -20.1,-11 -26.7,-23.4c-11.8,-22.4 -11.3,-46 1.6,-70.1c30.9,-57.8 46.5,-116.5 46.5,-174.5l0,-15.8"/>
     <path stroke="null" fill-rule="nonzero" fill="#349f1e" id="svg_139" d="m-43472.83775,45607.98333l-397.6,0l0,2712.7l397.6,0l0,-2712.7"/>
     <path stroke="null" fill-rule="nonzero" fill="#a8ff8c" id="svg_138" d="m-43458.23775,48244.68333l-434.7,0l0,125.8l434.7,0l0,-125.8"/>
     <path stroke="null" fill-rule="nonzero" fill="#a8ff8c" id="svg_137" d="m-43458.23775,45590.08333l-434.7,0l0,125.8l434.7,0l0,-125.8"/>
     <path stroke="null" fill-rule="nonzero" fill="#ffffff" id="svg_136" d="m-55890.47775,49033.58333c-17.97,-0.1 -34.95,-0.4 -50.79,-0.5l0,188.4l-260.06,0l0,-7191.4l260.06,0l0,6741.8c15.84,0.1 32.82,0.4 50.79,0.5c249.44,3 699.08,8.1 953.94,10.7c94.6,0.9 162.4,1.5 182.9,1.5l0,261.2c-77.8,0 -792.47,-8.2 -1136.84,-12.2"/>
     <path stroke="null" fill-rule="nonzero" fill="#ffffff" id="svg_135" d="m-55890.47775,49058.78333l0,-356.7l-354.99,0l0,356.7l354.99,0"/>
     <path stroke="null" fill-rule="nonzero" fill="#f2faff" id="svg_134" d="m-54936.53775,48848.08333l0,-65.1c-254.86,-2.5 -704.5,-7.6 -953.94,-10.6l0,-70.3l-50.79,0l0,-1530.4l-126.63,36.5c1.98,40.4 0.28,1208.7 0,1461.7c0,20.9 0,32.2 0,32.2l49.94,0l0,198.2l127.48,0l0,-52.2l953.94,0"/>
     <path stroke="null" fill-rule="nonzero" fill="#74cf61" id="svg_133" d="m-51751.33775,48518.28333l-3491.3,0l0,597l3491.3,0l0,-597"/>
     <path stroke="null" fill-rule="nonzero" fill="#a8ff8c" id="svg_132" d="m-51751.33775,48518.28333l-2122.3,0l0,597l2122.3,0l0,-597"/>
     <path stroke="null" fill-rule="nonzero" fill="#74cf61" id="svg_131" d="m-51751.33775,48891.48333l-2122.3,0l0,74.6l2122.3,0l0,-74.6"/>
     <path stroke="null" fill-rule="nonzero" fill="#ffffff" id="svg_130" d="m-51574.53775,48967.68333l-3823.07,0l0,147.6l3823.07,0l0,-147.6"/>
     <path stroke="null" fill-rule="nonzero" fill="#ffffff" id="svg_129" d="m-54095.13775,48705.08333l-1209.88,0c-5.53,0 -10,4.5 -10,10l0,339.3l20,0l0,-329.3l1189.88,0l0,390.2l20,0l0,-400.2c0,-5.5 -4.5,-10 -10,-10"/>
     <path stroke="null" fill-rule="nonzero" fill="#c4ffd3" id="svg_128" d="m-55941.26775,48702.08333l0,-32.2l-260.06,0l0,32.2l260.06,0"/>
     <path stroke="null" fill-rule="nonzero" fill="#ffffff" id="svg_127" d="m-57565.65775,41675.28333c759.24,195 2661.42,195 3420.62,0l320.3,0l0,141.6c0,460.2 -4061.23,460.2 -4061.23,0l0,-141.6l320.31,0"/>
     <path stroke="null" fill-rule="nonzero" fill="#95b5d1" id="svg_126" d="m-55546.44775,41320.28333c0,-100.2 80.86,-181.5 180.62,-181.5c99.75,0 180.62,81.3 180.62,181.5c0,100.2 -80.87,181.4 -180.62,181.4c-99.76,0 -180.62,-81.2 -180.62,-181.4"/>
     <path stroke="null" fill-rule="nonzero" fill="#ffffff" id="svg_125" d="m-55486.24775,41320.28333c0,-66.8 53.92,-121 120.42,-121c66.5,0 120.41,54.2 120.41,121c0,66.8 -53.91,120.9 -120.41,120.9c-66.5,0 -120.42,-54.1 -120.42,-120.9"/>
     <path stroke="null" fill-rule="nonzero" fill="#ffffff" id="svg_124" d="m-55245.93775,41698.08333l0,-377.8l-133.79,0l0,377.8l133.79,0"/>
     <path stroke="null" fill-rule="nonzero" fill="#a8ff8c" id="svg_123" d="m-55245.93775,41698.08333l0,-177.3l-133.79,0l0,177.3l133.79,0"/>
     <path stroke="null" fill-rule="nonzero" fill="#ffffff" id="svg_122" d="m-55283.50775,41882.08333c99.25,-5.1 174.67,-124.1 159.17,-248.1l-380.66,0c0.98,140.7 -99.26,203.7 -227.83,248.1l449.32,0"/>
     <path stroke="null" fill-rule="nonzero" fill="#95b5d1" id="svg_121" d="m-54227.03775,41320.48333c0,-100.2 80.9,-181.5 180.6,-181.5c99.8,0 180.7,81.3 180.7,181.5c0,100.2 -80.9,181.4 -180.7,181.4c-99.7,0 -180.6,-81.2 -180.6,-181.4"/>
     <path stroke="null" fill-rule="nonzero" fill="#ffffff" id="svg_120" d="m-54166.83775,41320.48333c0,-66.8 53.9,-121 120.4,-121c66.5,0 120.5,54.2 120.5,121c0,66.8 -54,120.9 -120.5,120.9c-66.5,0 -120.4,-54.1 -120.4,-120.9"/>
     <path stroke="null" fill-rule="nonzero" fill="#ffffff" id="svg_119" d="m-53926.53775,41698.28333l0,-377.8l-133.8,0l0,377.8l133.8,0"/>
     <path stroke="null" fill-rule="nonzero" fill="#a8ff8c" id="svg_118" d="m-53926.53775,41698.28333l0,-177.3l-133.8,0l0,177.3l133.8,0"/>
     <path stroke="null" fill-rule="nonzero" fill="#ffffff" id="svg_117" d="m-53865.73775,41734.18333l0,-100.2l-266.8,0l0,100.2l266.8,0"/>
     <path stroke="null" fill-rule="nonzero" fill="#95b5d1" id="svg_116" d="m-57495.06775,41320.48333c0,-100.2 -80.86,-181.5 -180.62,-181.5c-99.75,0 -180.62,81.3 -180.62,181.5c0,100.2 80.87,181.4 180.62,181.4c99.76,0 180.62,-81.2 180.62,-181.4"/>
     <path stroke="null" fill-rule="nonzero" fill="#ffffff" id="svg_115" d="m-57555.26775,41320.48333c0,-66.8 -53.91,-121 -120.42,-121c-66.5,0 -120.41,54.2 -120.41,121c0,66.8 53.91,120.9 120.41,120.9c66.51,0 120.42,-54.1 120.42,-120.9"/>
     <path stroke="null" fill-rule="nonzero" fill="#ffffff" id="svg_114" d="m-57795.57775,41698.28333l0,-377.8l133.79,0l0,377.8l-133.79,0"/>
     <path stroke="null" fill-rule="nonzero" fill="#a8ff8c" id="svg_113" d="m-57795.57775,41698.28333l0,-177.3l133.79,0l0,177.3l-133.79,0"/>
     <path stroke="null" fill-rule="nonzero" fill="#ffffff" id="svg_112" d="m-57856.29775,41698.28333l0,-64.3l266.77,0l0,64.3l-266.77,0"/>
     <path stroke="null" fill-rule="nonzero" fill="#ffffff" id="svg_111" d="m-55185.20775,41598.88333l-291.94,0l0,67.2l291.94,0l0,-67.2"/>
     <path stroke="null" fill-rule="nonzero" fill="#a8ff8c" id="svg_110" d="m-52188.63775,49121.48333l-2142.5,0l0,95.2l2142.5,0l0,-95.2"/>
     <path stroke="null" fill-rule="nonzero" fill="#ffffff" id="svg_109" d="m-54465.03775,49122.48333l-457.5,0l-38.9,654.3l535.3,0l-38.9,-654.3"/>
     <path stroke="null" fill-rule="nonzero" fill="#a8ff8c" id="svg_108" d="m-54907.43775,49410.98333l15.2,-256.4l396.9,0l15.2,256.4l-427.3,0"/>
     <path stroke="null" fill-rule="nonzero" fill="#ffffff" id="svg_107" d="m-54758.93775,49410.98333l-110.4,0l-16.9,313.3l110.4,0l16.9,-313.3"/>
     <path stroke="null" fill-rule="nonzero" fill="#b0ffaf" id="svg_106" d="m-54745.13775,49154.58333l-110.4,0l-13.8,256.4l110.4,0l13.8,-256.4"/>
     <path stroke="null" fill-rule="nonzero" fill="#ffffff" id="svg_105" d="m-53681.93775,49214.58333l-318.1,0l0,318.1l318.1,0l0,-318.1"/>
     <path stroke="null" fill-rule="nonzero" fill="#363636" id="svg_104" d="m-51854.93775,41043.18333l967.1,3.3c19.9,11.4 34.5,24.4 43.2,39c47.4,719.4 117.9,1065.9 117.9,1065.9l-673.6,25.2l-150.7,-535.6c-225.1,-155 -492.9,-486.8 -303.9,-597.8"/>
     <path stroke="null" fill-rule="nonzero" fill="#363636" id="svg_103" d="m-50814.53775,41033.78333l-1146.5,-3.9c-29,-0.1 -19.8,159.3 9.2,159.4l1139.7,-2.5c29.9,0.1 27.6,-152.9 -2.4,-153"/>
     <path stroke="null" fill-rule="nonzero" fill="#595959" id="svg_102" d="m-50554.23775,48449.38333c-280.1,-857.2 -512,-3202.2 -911.2,-6538.1l686.5,-33.8c202.8,1005.1 433.5,1515.1 664.7,2963.8c532.3,1214 819.8,2366.7 972.7,3546.3l-1412.7,61.8"/>
     <path stroke="null" fill-rule="nonzero" fill="#595959" id="svg_101" d="m-49624.83775,48408.78333c65.5,-1779.4 617.9,-3665.4 617.9,-3665.4c80.2,-1535.4 23.8,-1777.5 94.8,-2874.1l620.3,10.4c48.3,748.1 698.4,4105.7 74.9,6467.5l-1407.9,61.6"/>
     <path stroke="null" fill-rule="nonzero" fill="#363636" id="svg_100" d="m-48912.13775,41869.28333c-54.4,-296.6 -93.3,-527.9 -69.1,-796l1502.5,-24.1c0,0 148.3,145.3 -39.5,362c-187.7,216.6 -542.3,89.7 -773.6,468.5l-620.3,-10.4"/>
     <path stroke="null" fill-rule="nonzero" fill="#363636" id="svg_99" d="m-47410.43775,41045.48333l-1596.3,-5.5c-29.1,-0.1 -22,159.4 7.1,159.5l1589.5,-1c29.9,0.1 29.6,-152.9 -0.3,-153"/>
     <path stroke="null" fill-rule="nonzero" fill="#ffffff" id="svg_98" d="m-45203.53775,49411.88333l-499.8,-514.8l-15.9,-16.5c0,0 -1686.1,768.5 -1878.4,992.3c-74.2,86.5 -201.4,251.1 -345.2,443.4c-66.5,88.9 -136.8,183.7 -207,279.6c-170.7,232.4 -341.6,470.3 -461.9,641.3c-243.5,346.4 316.6,1070.8 663,929.5c25.6,-10.5 50.1,-25.6 73,-46.1l1068.9,-1578l1603.3,-1130.7"/>
     <path stroke="null" fill-rule="nonzero" fill="#4b9490" id="svg_97" d="m-50506.83775,52117.48333c343.5,255.9 1522.2,454.6 2276.5,101c321,-40.9 149.2,-4145.1 149.2,-4145.1l-2550.2,0l124.5,4044.1"/>
     <path stroke="null" fill-rule="nonzero" fill="#f79b88" id="svg_96" d="m-49139.43775,51967.48333c-405.4,-59 -657.6,224 -716.9,342.3l163.2,1013l330,-147.2c134.8,-11.2 269.6,-43.5 385.5,-89.3l104.6,-540.3l23.1,-117.1c52.6,-115.3 116,-402.4 -289.5,-461.4"/>
     <path stroke="null" fill-rule="nonzero" fill="#e6836f" id="svg_95" d="m-49587.53775,53065.58333c13.2,-125.4 178.1,-633.3 725.6,-580.5l-101.6,528.4l-624,52.1"/>
     <path stroke="null" fill-rule="nonzero" fill="#f79b88" id="svg_94" d="m-48313.13775,53698.48333c-18.7,-164.6 -64.4,-524.5 -127.8,-675c-96.6,-229.2 -395.5,-414.7 -590.6,-383.1c-220.1,53.5 -484.2,222.2 -592.5,417.5c-50.6,136.9 -133.1,448.1 -135.7,695.6c-5.5,516.2 441.2,807.2 866.5,758.9c425.3,-48.2 638.6,-300.6 580.1,-813.9"/>
     <path stroke="null" fill-rule="nonzero" fill="#73382a" id="svg_93" d="m-49727.33775,53402.88333c-33.1,180.6 102,202 185.9,41.5c18.3,121.2 4.7,499.6 158.1,570.1c174.4,83.1 725.9,-171.6 1144,41.3c0,0 -54,580.9 -907.5,546.3c-1003.9,-154.2 -580.5,-1199.2 -580.5,-1199.2"/>
     <path stroke="null" fill-rule="nonzero" fill="#f79b88" id="svg_92" d="m-49574.83775,53513.18333c36.6,-103.9 1.8,-212.6 -77.7,-242.9c-79.5,-30.2 -173.7,29.4 -210.3,133.2c-36.6,103.9 -1.8,212.6 77.7,242.9c79.6,30.3 173.7,-29.4 210.3,-133.2"/>
     <path stroke="null" fill-rule="nonzero" fill="#a65b4a" id="svg_91" d="m-48634.63775,53010.68333c-32.7,-6 -90.2,-33.2 -147.1,-63.3c-82.6,-43.8 -163.5,-93.7 -163.5,-93.7c0,0 -244.3,147.7 -237.6,384.8c3.3,-3.6 6.6,-7.1 10,-10.6c189.9,-195.7 538.2,-217.2 538.2,-217.2"/>
     <path stroke="null" fill-rule="nonzero" fill="#ffffff" id="svg_90" d="m-48634.63775,53010.68333c-32.7,-6 -90.2,-33.2 -147.1,-63.3c-247.7,56.7 -349.6,189.9 -391.1,280.5c189.9,-195.7 538.2,-217.2 538.2,-217.2"/>
     <path stroke="null" fill-rule="nonzero" fill="#a65b4a" id="svg_89" d="m-48647.63775,53125.68333c-49.7,3.1 -88.4,31.9 -89,32.3c-4.4,3.4 -5.3,9.7 -1.9,14.2c3.3,4.4 9.7,5.3 14.1,1.9c3.3,-2.5 80.9,-59.8 151.1,-5.5c38.7,29.8 28.6,49.7 1.7,103c-25.5,50.6 -64,126.9 -77.4,256.8c-0.5,5.5 3.5,10.5 9.1,11.1c5.5,0.5 10.5,-3.5 11,-9.1c13,-126.1 50.5,-200.4 75.3,-249.7c27.8,-54.9 44.5,-88.1 -7.3,-128.1c-29.2,-22.5 -59.6,-28.6 -86.7,-26.9"/>
     <path stroke="null" fill-rule="nonzero" fill="#1e1e1e" id="svg_88" d="m-48917.13775,53623.98333c-2.3,-38 -21.2,-67.8 -42.1,-66.5c-20.9,1.3 -36,33.1 -33.7,71.1c2.4,38 21.2,67.8 42.2,66.5c20.9,-1.3 36,-33.1 33.6,-71.1"/>
     <path stroke="null" fill-rule="nonzero" fill="#1e1e1e" id="svg_87" d="m-48385.83775,53599.08333c-2.2,-34.6 -19.4,-61.7 -38.4,-60.6c-19.1,1.2 -32.8,30.2 -30.7,64.8c2.1,34.6 19.3,61.7 38.4,60.6c19.1,-1.2 32.8,-30.2 30.7,-64.8"/>
     <path stroke="null" fill-rule="nonzero" fill="#73382a" id="svg_86" d="m-48347.43775,54028.68333c0,0 418.7,40.8 287.9,449.3c-129.7,-131.9 -261.6,-67.4 -261.6,-67.4c0,0 153.8,192.7 -100.5,474.9c-40.6,-176 -389.9,-253.4 -589.8,-201.6c-316.7,82.1 -637.1,-31.2 -671.1,-336.7c0,0 -207.2,-50.5 -135,-462.3c319.9,11.2 461.5,302.9 697.4,345.1c236,42.3 436.7,-248.9 772.7,-201.3"/>
     <path stroke="null" fill-rule="nonzero" fill="#a65b4a" id="svg_85" d="m-48751.73775,52703.98333c0,0 -149.4,-35 -231.5,-33.1c-108.4,2.6 -279.9,62.6 -279.9,62.6l284.6,-152.2l226.8,122.7"/>
     <path stroke="null" fill-rule="nonzero" fill="#29a619" id="svg_84" d="m-49029.83775,51958.78333l-40.3,-145.1l287.3,-1800.1l-151.7,-292.5l-270.4,290.3l44.7,1800.1l-65.3,96l76.3,109.2l119.4,-57.9"/>
     <path stroke="null" fill-rule="nonzero" fill="#2a822a" id="svg_83" d="m-48857.63775,52482.08333c-5.6,-213.8 -172.5,-335.1 -292.2,-456.9c-354.9,92.6 -624,310 -702.7,511.4l-167.4,-166.2c29.8,-259.9 238.1,-528.6 554.8,-802.6c48.3,139.4 122.4,267.6 333.5,383l474.8,-135.2c26.9,184.7 47.8,356.8 -60.1,573.9l-140.7,92.6"/>
     <path stroke="null" fill-rule="nonzero" fill="#ffffff" id="svg_82" d="m-49811.83775,48365.78333c-11.7,-123.2 -24.3,-244 -37.8,-362c-117.7,-1031.3 -297.4,-1855.5 -400.5,-2230.8l-1158.4,-944.9c15.8,360.5 274.6,1741.9 434.5,3200.6c21.4,193.9 40.9,389.2 57.8,583.6c25.4,291.1 45.9,580.5 62.5,860.8c84.1,1418.9 70.9,2607.3 115.2,2638.9c243.5,173.2 761.8,300.4 761.8,300.4c296.4,-1341.9 281.7,-2812.4 164.9,-4046.6"/>
     <path stroke="null" fill-rule="nonzero" fill="#ffffff" id="svg_81" d="m-47387.83775,45641.78333l-867.8,-115.3c-513.6,1285.2 -585.5,3846.7 -496.1,6903.4c263.3,-15.6 586.9,-135.8 803,-263.2c26,-15.3 50.4,-30.8 73,-46.1c-49.2,-521.2 -69.6,-1044.4 -69,-1555c0.1,-83.5 0.7,-166.5 1.9,-249.3c9.8,-698.3 56.7,-1368.3 119.5,-1972.1c163.8,-1576.9 435.5,-2702.4 435.5,-2702.4"/>
     <path stroke="null" fill-rule="nonzero" fill="#f2fbff" id="svg_80" d="m-49811.83775,48365.78333c-11.7,-123.2 -24.3,-244 -37.8,-362l-374.9,-176.6l-749.5,201.5c21.4,193.9 40.9,389.2 57.8,583.6c25.4,291.1 45.9,580.5 62.5,860.8l1041.9,-1107.3"/>
     <path stroke="null" fill-rule="nonzero" fill="#ffffff" id="svg_79" d="m-50707.93775,52141.88333c-238.4,-147.8 -735.4,-1758.1 -626.4,-2331.1c109,-573.1 1884.7,-2009.8 1884.7,-2009.8l587.7,473.9l-1218.1,1687.1l95.2,932.5c281.6,1024.8 -184.5,1535.1 -723.1,1247.4"/>
     <path stroke="null" fill-rule="nonzero" fill="#4b9490" id="svg_78" d="m-49094.23775,48588.08333c-9.3,12.7 -930.6,1265.1 -990.2,1371.4l-0.7,1.4l0.1,1.6c28.2,276.4 76.5,568.1 77,571l9.9,-1.6c-0.5,-2.9 -48.6,-293.2 -76.8,-568.8c66.1,-114.7 979.5,-1356.5 988.7,-1369l-8,-6"/>
     <g stroke="null" id="svg_69">
      <g stroke="null" clip-path="url(#svg_71)" id="svg_70">
       <path stroke="null" fill-rule="nonzero" fill="#1b658f" id="svg_77" d="m-48786.13775,50923.08333c-24.8,-134 16.4,-253.9 91.9,-267.9c75.6,-13.9 156.9,83.4 181.6,217.4c24.7,134 -16.5,253.9 -92,267.9c-75.5,13.9 -156.8,-83.4 -181.5,-217.4"/>
       <path stroke="null" fill-rule="nonzero" fill="#1d272e" id="svg_76" d="m-48643.53775,50905.88333c-16.1,-87.3 10.7,-165.4 59.9,-174.5c49.2,-9.1 102.2,54.3 118.3,141.6c16.1,87.3 -10.8,165.4 -60,174.5c-49.2,9.1 -102.1,-54.3 -118.2,-141.6"/>
       <path stroke="null" fill-rule="nonzero" fill="#0d192b" id="svg_75" d="m-48591.13775,51078.48333c11.4,0 20.8,9.1 21.1,20.6c0.2,4.9 12,489.1 -59.9,996.1c-66.5,469.4 -457.5,696.6 -792.5,709.1c-324.8,12.2 -575.3,-165.4 -638,-452.1c-56.5,-258.2 16.6,-698.5 19.8,-717.1c1.9,-11.5 12.8,-19.3 24.4,-17.3c11.5,1.9 19.3,12.8 17.3,24.4c-0.7,4.4 -74.8,450.8 -20.1,700.9c58.1,265.8 291.9,430.1 595,418.9c318,-11.9 689,-227.5 752.2,-672.8c71.4,-503.3 59.6,-984.1 59.5,-988.9c-0.3,-11.7 8.9,-21.5 20.6,-21.8l0.6,0"/>
       <path stroke="null" fill-rule="nonzero" fill="#0d192b" id="svg_74" d="m-50223.43775,50422.88333l134.5,17.3c11.6,1.5 19.8,12.1 18.3,23.7c-1.5,11.6 -12.1,19.8 -23.7,18.3l-101.8,-13.1c-138.1,357.7 -146.1,741.9 -18.3,938.9c63,97.2 156,149.1 276.3,154.1c112.9,4.9 212.2,-32.5 295.7,-110.7c253.9,-238.2 294.8,-787.6 300.7,-905.5l-77,2.9c-11.4,0.8 -21.5,-8.6 -22,-20.3c-0.4,-11.7 8.7,-21.6 20.4,-22l122.4,-4.7l-0.5,22.5c-0.6,27.6 -18.1,679.4 -315,957.9c-92.1,86.4 -201.9,127.5 -326.5,122.3c-134.8,-5.7 -239.1,-64 -310,-173.4c-71.1,-109.6 -104.6,-267.4 -97,-456.4c6.9,-172.9 48.6,-363.4 117.5,-536.5l6,-15.3"/>
       <path stroke="null" fill-rule="nonzero" fill="#1b658f" id="svg_73" d="m-49855.33775,51632.38333l-1.1,-104.5c0,0 -118.6,47 -237.1,-29.7c-30.3,41.9 -51.7,73.4 -51.7,73.4c0,0 94.8,102.6 289.9,60.8"/>
       <path stroke="null" fill-rule="nonzero" fill="#1b658f" id="svg_72" d="m-49944.13775,51595.58333l-22.8,118.9c-33.1,18 -104.1,-1.1 -114.9,-27l26.3,-115.7l111.4,23.8"/>
      </g>
     </g>
     <path stroke="null" fill-rule="nonzero" fill="#f2fbff" id="svg_68" d="m-45703.33775,48897.08333l-15.9,-16.5c0,0 -1686.1,768.5 -1878.4,992.3c-74.2,86.5 -201.4,251.1 -345.2,443.4c9.8,-698.3 56.7,-1368.3 119.5,-1972.1c-116.2,339.1 -236.1,792.5 -262.8,1271.3c-26.5,476.7 -48.3,787.1 -63.7,980.4c-16.2,204.9 -25.4,278.1 -25.4,278.1c0,0 99.8,-137.2 230.5,-308.4c192.6,-252.6 452.2,-579.2 556.9,-648.8c149.1,-99.2 1329.1,-806.8 1684.5,-1019.7"/>
     <path stroke="null" fill-rule="nonzero" fill="#57aca8" id="svg_67" d="m-40946.33775,49369.78333c0,0 -355.3,211.4 -612.2,250.4c-256.9,39 -1823.9,4 -1823.9,4c-425.7,-7.9 -236,-648.1 414.7,-652.9c0,0 2216,98 2021.4,398.5"/>
     <path stroke="null" fill-rule="nonzero" fill="#ff9678" id="svg_66" d="m-44674.73775,49272.48333c-128.6,20.4 -145.7,129.3 8.2,245.6c0,0 918.3,138 1284.1,106.1c365.9,-31.8 211.2,-149.6 -29.2,-254.4c-240.4,-104.8 -1263.1,-97.3 -1263.1,-97.3"/>
     <path stroke="null" fill-rule="nonzero" fill="#ffffff" id="svg_65" d="m-38071.93775,47572.18333c-273.4,-469.1 -1242.1,-370.3 -2537,-434.7c0,0 -2434.6,-6.6 -2917.7,90.4c104,397.4 414.2,743.8 837,1027.6c257.1,172.7 556.3,322.2 876.1,445.5c130.5,50.4 264.5,96.5 400.5,138c628.4,192 1839.7,146.6 2673,83.9c239.3,-18 447.5,-37.4 601.7,-52.9c178.2,-17.9 284.3,-31 284.3,-31c0,0 55.4,-797.7 -217.9,-1266.8"/>
     <path stroke="null" fill-rule="nonzero" fill="#f2faff" id="svg_64" d="m-38072.03775,47572.18333c-273.3,-469.1 -1242,-370.3 -2536.9,-434.8c0,0 -2434.7,-6.5 -2917.7,90.6c104,397.3 414.2,743.7 837,1027.4c141.6,-293.7 619.1,-790.7 2217.6,-612.7c1656.2,184.5 2176.1,883 2333.8,1227.2c178,-17.8 284.2,-30.9 284.2,-30.9c0,0 55.4,-797.7 -218,-1266.8"/>
     <path stroke="null" fill-rule="nonzero" fill="#e0f3ff" id="svg_63" d="m-38740.03775,48922.88333c-130.6,-177.7 -319.2,-375 -516.1,-383.5c-360.9,-15.4 -892.9,216.7 -1109.6,31c-216.7,-185.8 147,-1021.7 147,-1021.7l-828.1,-116l-766.7,503.1l0,765.2c130.5,50.4 264.5,96.5 400.5,138c628.4,192 1839.7,146.6 2673,83.9"/>
     <path stroke="null" fill-rule="nonzero" fill="#57aca8" id="svg_62" d="m-40609.83775,48945.88333c0,0 -85.5,-222.5 -248.3,-474.5c-140.5,-217.3 -338.3,-456.7 -588.3,-594.3c-415,-228.4 -942.6,-332.8 -1164.6,-368.9c-66.8,-10.8 -105.9,-15.5 -105.9,-15.5l29.4,-244.3c-105.3,-12.8 -212.5,-22.9 -321.4,-30.6c-2138.9,-149.7 -2039.4,1726.5 -228.9,2259.2c0,0 1551.1,113.7 2096.3,-63.3c275,-162.3 438.6,-320.9 531.7,-467.8"/>
     <path stroke="null" fill-rule="nonzero" fill="#ffffff" id="svg_61" d="m-41574.73775,43035.98333l-579.9,0l0,2489.9l579.9,0l0,-2489.9"/>
     <path stroke="null" fill-rule="nonzero" fill="#bfffd0" id="svg_60" d="m-41574.73775,44425.98333l-579.9,0l0,453l579.9,0l0,-453"/>
     <path stroke="null" fill-rule="nonzero" fill="#74cf61" id="svg_59" d="m-55452.44775,42872.18333c-230.05,0 -457.17,39.8 -640.08,152.1c-201.94,124 -328.74,323.6 -376.87,593.1c-51.33,287.4 52.29,557.4 148.25,733.4c103.57,189.8 217.44,310.5 222.24,315.5l28.98,-27.6c-4.55,-4.8 -454.53,-485.5 -360.1,-1014.3c46.04,-257.8 166.64,-448.2 358.43,-566c426.58,-262 1109.86,-114.5 1479.26,-3.2l11.5,-38.3c-219.5,-66.1 -548.41,-144.7 -871.61,-144.7"/>
     <path stroke="null" fill-rule="nonzero" fill="#a8ff8c" id="svg_58" d="m-56632.61775,44801.58333l0,3720.2c0,86.7 -70.28,157 -156.98,157c-86.7,0 -156.98,-70.3 -156.98,-157l0,-3720.2l313.96,0"/>
     <path stroke="null" fill-rule="nonzero" fill="#74cf61" id="svg_57" d="m-56568.85775,45670.38333l340.22,0l0,293.8l-340.22,0l0,164l-480.97,0l0,-602.3l480.97,0l0,144.5"/>
     <path stroke="null" fill-rule="nonzero" fill="#a8ff8c" id="svg_56" d="m-37538.83775,44876.98333l26.1,0c100.2,0 181.5,81.3 181.5,181.6l0,5168.1c0,100.3 -81.3,181.6 -181.5,181.6l-26.1,0c-100.2,0 -181.5,-81.3 -181.5,-181.6l0,-5168.1c0,-100.3 81.3,-181.6 181.5,-181.6"/>
     <path stroke="null" fill-rule="nonzero" fill="#74cf61" id="svg_55" d="m-38215.33775,45750.38333l1164.5,0l0,602.3l-1164.5,0l0,-602.3"/>
     <path stroke="null" fill-rule="nonzero" fill="#226f15" id="svg_54" d="m-43523.93775,44277.48333l-7564.5,0l0,949.2l7564.5,0l0,-949.2"/>
     <path stroke="null" fill-rule="nonzero" fill="#226f15" id="svg_53" d="m-54026.63775,44277.48333l-2347.76,0l0,949.2l2347.76,0l0,-949.2"/>
     <path stroke="null" fill-rule="nonzero" fill="#a8ff8c" id="svg_52" d="m-37911.23775,46634.98333l0,-1712.4l-18380.54,0l0,1712.4c0,384.3 310.18,695.9 692.71,695.9l16994.63,0c240.5,0 452.3,-122.7 576.6,-309.4c73.7,-110.6 116.6,-243.7 116.6,-386.5"/>
     <path stroke="null" fill-rule="nonzero" fill="#226f15" id="svg_51" d="m-38046.23775,47022.58333c-120,19.1 -376,52.7 -645.5,41.3c-371.2,-15.2 -2803.3,84.9 -3594.8,84.9c-544.5,0 -925.3,107.1 -1126.8,183.2l4790.5,0c240.5,0 452.3,-122.7 576.6,-309.4"/>
     <path stroke="null" fill-rule="nonzero" fill="#a8ff8c" id="svg_50" d="m-41964.53775,45093.28333l-13216.2,-162.3l-1094.31,-13.4l0,1712.5c0,384.2 310.18,695.9 692.71,695.9c1536,127.7 2990.2,677.3 4170,1101.4c269.3,58.8 860.6,-259.4 1125.8,-198.6c2062.7,473 3993.4,982.9 5703.5,1191.7c84,10.3 167.4,19.8 250.3,28.6c548.8,58 1073.9,82.5 1572.2,61.7c452.7,-579.8 597.3,-1696.2 687.2,-2869.7c32.7,-428 58.2,-863.4 88.7,-1283.4c6.4,-88.9 13.2,-177.1 20.1,-264.4"/>
     <path stroke="null" fill-rule="nonzero" fill="#5da382" id="svg_49" d="m-41984.63775,45357.68333l-13196.1,-426.7l-1094.31,-13.4l0,1601.5c217.04,-68.3 684.24,-146.6 1688.41,-157.7c1830.5,-20.3 10730,365.1 10730,365.1c0,0 1276.5,-156.1 1783.3,-85.4c32.7,-428 58.2,-863.4 88.7,-1283.4"/>
     <path stroke="null" fill-rule="nonzero" fill="#226f15" id="svg_48" d="m-50852.03775,48120.48333c0,0 -259,-207.3 -579.9,-273.5c-320.9,-66.2 806.7,-482.6 806.7,-482.6l-2064.5,56.8c0,0 1126.5,85.1 965.4,246c-161,160.9 -122.8,388 0,388c122.9,0 457.7,-162.7 872.3,65.3"/>
     <path stroke="null" fill-rule="nonzero" fill="#226f15" id="svg_47" d="m-42667.63775,47330.88333c6.9,-63.8 -6863.2,-22.2 -7135.7,1.1c-272.4,23.4 5622.6,363.9 5749.7,939.8c110.7,501.5 -346.3,974.5 -529.4,1148.7c84,10.3 167.4,19.9 250.2,28.7l205.8,-18.9c0,0 1452.3,-2035.6 1459.4,-2099.4"/>
     <path stroke="null" fill-rule="nonzero" fill="#bfffd0" id="svg_46" d="m-44492.03775,49434.48333c0,0 375.9,-425.5 438.4,-851.5c278.1,-1487.5 232.8,-2572.2 232.8,-2572.2c0,0 1693.4,-78.2 1729.2,-40.4c35.8,37.7 0,1894.1 -264.2,2691.2c-208.1,627.6 -361.1,852.4 -361.1,852.4c-462.5,77 -1110,39.8 -1775.1,-79.5"/>
     <path stroke="null" fill-rule="nonzero" fill="#ffffff" id="svg_45" d="m-39191.13775,43393.48333l0,-714.8l-15754.9,0l0,714.8l15754.9,0"/>
     <path stroke="null" fill-rule="nonzero" fill="#bfffd0" id="svg_44" d="m-39191.13775,43036.08333l0,-357.4l-15754.9,0l0,357.4l15754.9,0"/>
     <path stroke="null" fill-rule="nonzero" fill="#95b5d1" id="svg_43" d="m-53521.83775,41639.48333c0,-303.4 -244.9,-549.3 -546.8,-549.3c-302,0 -546.8,245.9 -546.8,549.3c0,303.4 244.8,549.3 546.8,549.3c301.9,0 546.8,-245.9 546.8,-549.3"/>
     <path stroke="null" fill-rule="nonzero" fill="#ffffff" id="svg_42" d="m-53704.13775,41639.48333c0,-202.2 -163.2,-366.2 -364.5,-366.2c-201.4,0 -364.6,164 -364.6,366.2c0,202.2 163.2,366.2 364.6,366.2c201.3,0 364.5,-164 364.5,-366.2"/>
     <path stroke="null" fill-rule="nonzero" fill="#ffffff" id="svg_41" d="m-54431.63775,42853.88333l0,-1214.4l405,0l0,1214.4l-405,0"/>
     <path stroke="null" fill-rule="nonzero" fill="#bfffd0" id="svg_40" d="m-54431.63775,42853.88333l0,-607.2l405,0l0,607.2l-405,0"/>
     <path stroke="null" fill-rule="nonzero" fill="#ffffff" id="svg_39" d="m-53807.83775,42588.48333l-807.6,0l0,265.4l807.6,0l0,-265.4"/>
     <path stroke="null" fill-rule="nonzero" fill="#95b5d1" id="svg_38" d="m-40605.93775,41639.48333c0,-303.4 244.8,-549.3 546.8,-549.3c301.9,0 546.7,245.9 546.7,549.3c0,303.4 -244.8,549.3 -546.7,549.3c-302,0 -546.8,-245.9 -546.8,-549.3"/>
     <path stroke="null" fill-rule="nonzero" fill="#ffffff" id="svg_37" d="m-40423.73775,41639.48333c0,-202.2 163.2,-366.2 364.6,-366.2c201.3,0 364.5,164 364.5,366.2c0,202.2 -163.2,366.2 -364.5,366.2c-201.4,0 -364.6,-164 -364.6,-366.2"/>
     <path stroke="null" fill-rule="nonzero" fill="#ffffff" id="svg_36" d="m-39696.23775,42853.88333l0,-1214.4l-405,0l0,1214.4l405,0"/>
     <path stroke="null" fill-rule="nonzero" fill="#bfffd0" id="svg_35" d="m-39696.23775,42853.88333l0,-547.3l-405,0l0,547.3l405,0"/>
     <path stroke="null" fill-rule="nonzero" fill="#ffffff" id="svg_34" d="m-40320.03775,42588.48333l807.6,0l0,265.4l-807.6,0l0,-265.4"/>
     <path stroke="null" fill-rule="nonzero" fill="#ffffff" id="svg_33" d="m-37633.03775,44876.98333l-18830.15,0l0,811.4l18830.15,0l0,-811.4"/>
     <path stroke="null" fill-rule="nonzero" fill="#ffffff" id="svg_32" d="m-38640.33775,43000.68333l-16840.81,0c-19.45,0 -35.21,15.8 -35.21,35.3l0,2246.7l70.42,0l0,-2211.3l16770.4,0l0,2211.3l70.4,0l0,-2246.7c0,-19.5 -15.7,-35.3 -35.2,-35.3"/>
     <path stroke="null" fill-rule="nonzero" fill="#349f1e" id="svg_31" d="m-52128.93775,44306.18333l-926.4,0c-59.6,0 -108,48.6 -108,108.5l0,325.4c0,59.9 48.4,108.4 108,108.4l926.4,0c59.6,0 107.9,-48.5 107.9,-108.4l0,-325.4c0,-59.9 -48.3,-108.5 -107.9,-108.5zm-1559.3,0l-925.9,0c-59.7,0 -108,48.6 -108,108.5l0,325.4c0,59.9 48.3,108.4 108,108.4l925.9,0c59.6,0 108,-48.5 108,-108.4l0,-325.4c0,-59.9 -48.4,-108.5 -108,-108.5zm-1344.3,686.9l0,-779.9c0,-100.3 81,-181.7 180.9,-181.7l2946.4,0c99.9,0 180.9,81.4 180.9,181.7l0,779.9c0,81.5 -65.8,147.6 -147,147.6l-3014.2,0c-81.1,0 -147,-66.1 -147,-147.6"/>
     <path stroke="null" fill-rule="nonzero" fill="#bfffd0" id="svg_30" d="m-53598.33775,42539.08333l-1861.89,0c-11.55,0 -20.92,9.4 -20.92,21l0,140.2c0,11.6 9.37,20.9 20.92,20.9l1861.89,0c11.5,0 20.9,-9.3 20.9,-20.9l0,-140.2c0,-11.6 -9.4,-21 -20.9,-21"/>
     <path stroke="null" fill-rule="nonzero" fill="#bfffd0" id="svg_29" d="m-38765.33775,42539.08333l-1861.8,0c-11.6,0 -20.9,9.4 -20.9,21l0,140.2c0,11.6 9.3,20.9 20.9,20.9l1861.8,0c11.6,0 20.9,-9.3 20.9,-20.9l0,-140.2c0,-11.6 -9.3,-21 -20.9,-21"/>
     <path stroke="null" fill-rule="nonzero" fill="#349f1e" id="svg_28" d="m-40694.63775,45315.88333l-787,-1572.8c-46.4,-93.2 -139.9,-151.1 -243.9,-151.1l-257.5,0c-94.6,0 -171.6,77 -171.6,172.4l0,1776.3c0,95.3 77,172.3 171.6,172.3l1035.9,0c87,0 172.3,-37.6 225.1,-107.3c64.4,-85.3 74.1,-196.2 27.4,-289.8zm-2162.8,-1038.4c0,-109.9 -88.8,-199.1 -198.2,-199.1l-270.1,0c-109.4,0 -198.2,89.2 -198.2,199.1l0,750.1c0,109.8 88.8,199.1 198.2,199.1l270.1,0c109.4,0 198.2,-89.3 198.2,-199.1l0,-750.1zm-1260.7,0c0,-109.9 -88.9,-199.1 -198.2,-199.1l-269.8,0c-109.7,0 -198.1,89.2 -198.1,199.1l0,750.1c0,109.8 88.4,199.1 198.1,199.1l269.8,0c109.3,0 198.2,-89.3 198.2,-199.1l0,-750.1zm-1278,-513.1c0,-95.4 -76.6,-172.4 -171.5,-172.4l-1035.9,0c-87.4,0 -172.7,37.3 -225.6,107.4c-64.3,85.2 -74.1,195.8 -26.9,289.7l786.6,1572.9c46.4,92.5 140.6,151 243.9,151l257.9,0c94.9,0 171.5,-77 171.5,-172.3l0,-1776.3zm4873.4,1932.3c-89.5,146 -244.9,233.1 -415.8,233.1l-4887,0c-186,0 -353.3,-103.7 -436.7,-270.6l-786.6,-1572.5c-77,-153.6 -69.1,-332.1 20.5,-478.4c89.5,-146 245.3,-233 416.1,-233l4886.7,0c186,0 353.2,103.7 436.7,270.2l787,1572.9c76.6,153.5 68.7,332 -20.9,478.3"/>
     <path stroke="null" fill-rule="nonzero" fill="#ffffff" id="svg_27" d="m-42525.83775,45454.28333l-2590,0c-19.2,0 -34.7,15.5 -34.7,34.7l0,232.1c0,19.2 15.5,34.7 34.7,34.7l2590,0c19.1,0 34.6,-15.5 34.6,-34.7l0,-232.1c0,-19.2 -15.5,-34.7 -34.6,-34.7"/>
     <path stroke="null" fill-rule="nonzero" fill="#4cba24" id="svg_26" d="m-44481.93775,45684.18333l-323.9,0l0,-158.3l323.9,0l0,158.3"/>
     <path stroke="null" fill-rule="nonzero" fill="#4cba24" id="svg_25" d="m-43965.03775,45684.18333l-323.9,0l0,-158.3l323.9,0l0,158.3"/>
     <path stroke="null" fill-rule="nonzero" fill="#4cba24" id="svg_24" d="m-43448.13775,45684.18333l-323.9,0l0,-158.3l323.9,0l0,158.3"/>
     <path stroke="null" fill-rule="nonzero" fill="#4cba24" id="svg_23" d="m-42931.23775,45684.18333l-324,0l0,-158.3l324,0l0,158.3"/>
     <path stroke="null" fill-rule="nonzero" fill="#ffffff" id="svg_22" d="m-50852.03775,43035.98333l-579.9,0l0,2489.9l579.9,0l0,-2489.9"/>
     <path stroke="null" fill-rule="nonzero" fill="#bfffd0" id="svg_21" d="m-50852.03775,44423.98333l-579.9,0l0,453l579.9,0l0,-453"/>
     <path stroke="null" fill-rule="nonzero" fill="#326361" id="svg_20" d="m-42155.13775,49448.88333l-562.3,60.1l1,9.9l562.3,-60.1l-1,-9.9"/>
     <path stroke="null" fill-rule="nonzero" fill="#ff9678" id="svg_19" d="m-42437.93775,48311.48333l-1250.6,-45.5c-233.4,334.3 -640,463.2 -1168.2,798.5l-221.9,-120.8c0,0 564.4,-854.2 1333.2,-1294.3c615.1,-286.4 1462.5,-286.4 1462.5,-286.4l-155,948.5"/>
     <path stroke="null" fill-rule="nonzero" fill="#57aca8" id="svg_18" d="m-40868.83775,48471.38333c-140.4,-217.3 -338.2,-456.7 -588.2,-594.3c-415,-228.4 -942.6,-332.8 -1164.6,-368.9c-242,577.5 -88.8,825.5 -88.8,825.5l953.2,232.4c0,0 630.4,131.8 888.4,-94.7"/>
     <path stroke="null" fill-rule="nonzero" fill="#ff9678" id="svg_17" d="m-44822.73775,49119.38333c0,0 -14.9,282.1 -108.4,296c-51.2,-13.9 15.5,-108 -45.8,-123.9c-61.4,-15.8 -23.1,218.8 -132,207.3c-108.9,-11.4 -369.5,-217.6 36,-567.9c279.4,-118.4 250.2,188.5 250.2,188.5"/>
     <path stroke="null" fill-rule="nonzero" fill="#326361" id="svg_16" d="m-42699.03775,48328.68333l-1.4,9.9c5,0.7 501.1,71.5 715,174.3l4.4,-9c-215.4,-103.5 -713,-174.5 -718,-175.2"/>
     <path stroke="null" fill-rule="nonzero" fill="#4b9490" id="svg_15" d="m-40575.53775,48244.58333c-160.2,-479 -853.2,-784 -1935.6,-913.9c0,0 -77.2,102 -99.9,177.5c222,36.1 749.6,140.5 1164.6,368.9c250,137.6 447.8,377 588.3,594.3c162.8,252 248.3,474.5 248.3,474.5c200,-315 76.2,-575.7 34.3,-701.3"/>
     <path stroke="null" fill-rule="nonzero" fill="#ff9678" id="svg_14" d="m-41145.23775,49403.68333l101.6,31l364.3,110.4l523.4,92.6l254,-643.3l-738.3,-250.6c-190.5,-66.4 -581.2,170 -806.2,378.3c33.5,128.9 160.9,231.5 301.2,281.6"/>
     <path stroke="null" fill-rule="nonzero" fill="#ff7a5b" id="svg_13" d="m-40459.03775,49003.28333c0,0 -334.4,115.5 -584.6,431.4l364.3,110.4l220.3,-541.8"/>
     <path stroke="null" fill-rule="nonzero" fill="#ff9678" id="svg_12" d="m-40321.43775,50246.78333c-329.6,-117.3 -660.2,-463.3 -525,-850.5c135.1,-387.3 639.5,-548 1091,-390.4c451.6,157.5 708.1,599.2 573,986.4c-135.2,387.3 -690.8,554.3 -1139,254.5"/>
     <path stroke="null" fill-rule="nonzero" fill="#363636" id="svg_11" d="m-40238.63775,50296.28333c0,0 245.6,204.2 550.2,-70.1c-100.5,-38.3 -246.1,-4.7 -397.6,38.4c0,0 223.2,-292.2 511.7,-344.4c-91.7,-63.6 -255.6,-37.3 -255.6,-37.3c0,0 58.6,-229.7 318.2,-331c-197.8,-369.9 -243.7,-546 -530.6,-604c487.8,-54.8 678.9,-92 933.9,96.8c365.8,270.8 277.3,887.9 19.8,1238.2c-448.4,654.9 -982.5,496.4 -1150,13.4"/>
     <path stroke="null" fill-rule="nonzero" fill="#ff9678" id="svg_10" d="m-39844.13775,49259.98333c-64.3,-44.3 -80.6,-132.4 -36.3,-196.7c44.3,-64.4 132.4,-80.7 196.7,-36.4c64.4,44.3 80.6,132.4 36.4,196.8c-44.3,64.3 -132.4,80.6 -196.8,36.3"/>
     <path stroke="null" fill-rule="nonzero" fill="#73382a" id="svg_9" d="m-40451.83775,49796.98333l-1.1,1.2c-2,3 -50.7,72.2 -39.8,122.2c10.8,49.5 254.7,57.3 329.2,58.5c4.4,0.1 8.1,-3.5 8.2,-8c0.1,-4.4 -3.5,-8.1 -8,-8.2c-146.5,-2.4 -308.1,-20.5 -313.6,-45.7c-9.4,-43 36.8,-108.7 37.2,-109.4c2.6,-3.6 1.8,-8.7 -1.9,-11.3c-3.2,-2.2 -7.5,-1.9 -10.2,0.7"/>
     <path stroke="null" fill-rule="nonzero" fill="#73382a" id="svg_8" d="m-40483.93775,49566.28333c-100.4,94.5 -152.4,208.4 -153.2,210.2c-1.8,4.1 0,8.9 4.1,10.7c4,1.9 8.8,0.1 10.7,-4c1.3,-2.9 132.8,-290.5 380.6,-322.7c4.4,-0.6 7.6,-4.7 7,-9.1c-0.6,-4.4 -4.7,-7.5 -9.1,-7c-97.9,12.8 -178.2,63.7 -240.1,121.9"/>
     <path stroke="null" fill-rule="nonzero" fill="#5c2d22" id="svg_7" d="m-40231.63775,50132.48333c-27.4,-18.2 -57.9,-20.6 -68.1,-5.2c-10.3,15.4 3.5,42.6 30.9,60.9c27.3,18.3 57.8,20.6 68,5.2c10.3,-15.4 -3.5,-42.6 -30.8,-60.9"/>
     <path stroke="null" fill-rule="nonzero" fill="#5c2d22" id="svg_6" d="m-39950.03775,49671.88333c-31.6,-17.2 -65.1,-16.8 -74.8,1c-9.7,17.8 8.1,46.2 39.7,63.4c31.6,17.3 65.1,16.8 74.8,-1c9.7,-17.7 -8,-46.1 -39.7,-63.4"/>
     <path stroke="null" fill-rule="nonzero" fill="#ff9678" id="svg_5" d="m-44709.33775,49614.18333c0,0 -342.6,-42.2 -347.7,-269.7c-5,-227.5 316.1,80.3 316.1,80.3c0,0 35,-114 75.5,-59.2c40.5,54.8 150.7,221.7 76.2,238.4c-74.5,16.7 -120.1,10.2 -120.1,10.2"/>
    </g>
   </g>
  </g>
 </g>

</svg>