<svg
  viewBox="14.4283 12.82 298.7985 227.2759"
  xmlns="http://www.w3.org/2000/svg"
>
  <path
    fill="#8aed08"
    d="M 195.5,54.5 C 195.5,55.1667 195.5,55.8333 195.5,56.5C 160.437,55.2704 138.604,71.6038 130,105.5C 129.333,133.833 129.333,162.167 130,190.5C 130.505,192.518 131.005,194.518 131.5,196.5C 106.781,196.961 82.1148,196.461 57.5,195C 25.4773,183.487 11.3106,160.654 15,126.5C 24.9405,93.7626 47.1071,78.0959 81.5,79.5C 79.9254,43.4396 96.592,21.2729 131.5,13C 163.316,11.0539 184.649,24.8873 195.5,54.5 Z"
  />
  <path
    fill="#04e27f"
    d="M 195.5,56.5 C 216.167,56.5 236.833,56.5 257.5,56.5C 287.571,59.7777 306.071,76.1111 313,105.5C 315.298,139.767 300.131,161.934 267.5,172C 260.555,173.23 253.555,173.73 246.5,173.5C 248.281,199.439 238.281,219.272 216.5,233C 185.863,246.715 160.029,240.549 139,214.5C 135.426,208.945 132.926,202.945 131.5,196.5C 157.107,197.78 176.94,187.78 191,166.5C 193.918,160.172 195.918,153.505 197,146.5C 197.667,117.833 197.667,89.1667 197,60.5C 196.59,59.0993 196.09,57.766 195.5,56.5 Z"
  />
  <path
    fill="#009673"
    d="M 195.5,56.5 C 196.09,57.766 196.59,59.0993 197,60.5C 197.667,89.1667 197.667,117.833 197,146.5C 195.918,153.505 193.918,160.172 191,166.5C 176.94,187.78 157.107,197.78 131.5,196.5C 131.005,194.518 130.505,192.518 130,190.5C 129.333,162.167 129.333,133.833 130,105.5C 138.604,71.6038 160.437,55.2704 195.5,56.5 Z"
  />
</svg>
